# Blender 4.0.2
# www.blender.org
mtllib BrokenBlock6.mtl
o BrokenBlock6
v -193.798172 46.430500 -25.193861
v -193.810745 46.613480 -24.785862
v -194.379868 46.927551 -25.275612
v -193.812851 49.415382 -25.247076
v -197.728256 46.441883 -23.471685
v -197.852158 46.581856 -23.512280
v -197.393265 46.623859 -23.215986
v -196.940186 46.631145 -22.932352
v -193.802429 46.622055 -24.307329
v -196.872742 46.786293 -22.850014
v -194.145264 46.830139 -21.142565
v -193.888947 46.777649 -24.157526
v -192.821793 46.826305 -21.722523
v -192.650742 46.674561 -21.679462
v -192.304489 46.682152 -21.349009
v -193.996674 46.678459 -21.089664
v -193.543594 46.685745 -20.806028
v -193.776581 47.566734 -20.721523
v -192.307129 47.216450 -21.358534
v -197.090897 49.563324 -22.262611
v -197.293411 49.835155 -22.726574
v -197.286118 48.349361 -22.700085
v -197.470215 48.635357 -22.740105
v -197.476547 49.925785 -22.763113
v -197.642273 47.565437 -23.125669
v -197.655045 50.165363 -23.172022
v -197.951157 47.284706 -23.390841
v -197.966492 50.405514 -23.446474
v -197.627747 50.458233 -23.922743
v -197.610428 46.936916 -23.859966
v -198.298889 50.851669 -24.207973
v -198.277145 46.427464 -24.129103
v -198.294830 50.900547 -24.332758
v -198.279297 50.711212 -24.749401
v -196.773468 50.706844 -25.409258
v -195.270294 50.687695 -26.897989
v -198.293594 50.696457 -25.573160
v -195.176071 50.674648 -26.962063
v -195.539200 50.417484 -27.263718
v -195.177032 50.686504 -26.990337
v -195.988892 50.649490 -28.842766
v -194.935272 50.683422 -27.229786
v -194.774887 50.468151 -26.862360
v -195.698044 50.648647 -28.970219
v -195.696472 50.331146 -28.964561
v -194.865692 50.369022 -27.068939
v -195.935654 50.110607 -28.855335
v -195.284592 50.140293 -27.369766
v -195.921005 47.130322 -28.802200
v -195.269928 47.160004 -27.316639
v -195.679642 46.908394 -28.903542
v -195.678085 46.590893 -28.897881
v -194.848877 46.946274 -27.007919
v -194.542160 46.642685 -26.305958
v -198.259354 46.653458 -24.677063
v -194.128311 46.415443 -25.947140
v -195.138168 46.629616 -26.874805
v -194.559525 50.179096 -26.369001
v -194.145248 49.861538 -26.008572
v -194.393433 49.687252 -25.324812
v -195.968948 46.591736 -28.770426
v -198.273666 46.638699 -25.500822
v -195.521835 46.884281 -27.200731
v -198.251999 46.892193 -26.004366
v -196.172897 46.854599 -28.686295
v -198.903061 46.862507 -27.489927
v -199.104431 46.600819 -27.396442
v -199.395294 46.601662 -27.268990
v -199.396866 46.919167 -27.274649
v -198.566071 46.957043 -25.379030
v -199.157684 47.139702 -27.383877
v -198.506622 47.169384 -25.898314
v -199.172318 50.119987 -27.437010
v -198.521271 50.149670 -25.951441
v -199.413681 50.341915 -27.335667
v -199.415237 50.659420 -27.341328
v -198.582901 50.379795 -25.440044
v -199.124374 50.658573 -27.468781
v -198.920425 50.395714 -27.552917
v -198.269363 50.425396 -26.067354
v -196.190262 50.387802 -28.749283
v -192.485611 47.456024 -21.767441
v -192.482666 46.858517 -21.756794
v -192.668762 47.546658 -21.803980
v -192.666061 46.996758 -21.794176
v -193.743256 48.988884 -24.265558
v -193.645218 49.012489 -24.423990
v -193.733231 46.948101 -24.229177
v -193.634369 46.806007 -24.384653
v -193.823715 49.252064 -24.832899
vn 0.1759 -0.8962 0.4073
vn 0.9996 0.0054 0.0283
vn 0.1248 -0.0171 -0.9920
vn -0.3421 -0.5282 -0.7772
vn -0.5156 -0.2159 0.8292
vn 0.0049 -0.9998 0.0178
vn 0.3336 -0.5510 0.7649
vn -0.6735 -0.6716 0.3086
vn -0.3280 -0.5811 -0.7448
vn 0.4013 0.0183 0.9157
vn 0.3583 0.8653 0.3506
vn -0.9159 0.0027 0.4014
vn -0.1877 0.0166 0.9821
vn -0.9159 0.0026 0.4014
vn -0.6567 0.0102 0.7541
vn -0.8141 -0.0144 -0.5806
vn -0.3838 0.0146 0.9233
vn -0.9994 -0.0055 -0.0347
vn -0.1782 0.8933 -0.4126
vn -0.0049 0.9998 -0.0178
vn -0.2071 0.8534 -0.4783
vn -0.7033 0.6467 0.2953
vn 0.9159 -0.0026 -0.4014
vn -0.4013 -0.0183 -0.9157
vn 0.5943 -0.7660 -0.2452
vn 0.9159 -0.0027 -0.4014
vn 0.5868 0.7625 -0.2724
vn 0.5874 -0.0115 -0.8092
vn -0.1694 -0.9092 -0.3805
vn 0.6518 -0.0103 -0.7583
vn 0.9391 0.0107 0.3436
vn -0.6969 -0.6426 0.3183
vn -0.1986 -0.8719 -0.4475
vn 0.7032 -0.6467 -0.2953
vn -0.5943 0.7660 0.2452
vn -0.5868 -0.7625 0.2724
vn -0.9932 -0.0070 -0.1166
vn 0.6969 0.6426 -0.3183
vn 0.2812 -0.7094 0.6463
vn 0.9159 -0.0027 -0.4013
vn 0.1877 -0.0166 -0.9821
vn 0.8494 0.0136 0.5276
vn 0.6134 0.7371 -0.2836
vt 0.600574 0.501085
vt 0.583642 0.493012
vt 0.583642 0.313330
vt 0.600574 0.303976
vt 0.928945 0.663682
vt 0.944664 0.655609
vt 0.944664 0.792750
vt 0.928945 0.784911
vt 0.187599 0.281942
vt 0.162493 0.304969
vt 0.035143 0.304969
vt 0.049860 0.281942
vt 0.180522 0.483532
vt 0.162493 0.466996
vt 0.187599 0.479051
vt 0.669846 0.688742
vt 0.569565 0.575530
vt 0.624639 0.550107
vt 0.611047 0.546282
vt 0.659589 0.523879
vt 0.671621 0.506756
vt 0.704069 0.501085
vt 0.710810 0.504388
vt 0.703369 0.521250
vt 0.704245 0.540676
vt 0.697323 0.545717
vt 0.702592 0.662644
vt 0.709934 0.666838
vt 0.710810 0.686264
vt 0.563072 0.484538
vt 0.563072 0.327172
vt 0.630294 0.991219
vt 0.630294 0.841567
vt 0.637443 0.840263
vt 0.637443 0.997640
vt 0.396407 0.921960
vt 0.272612 0.921960
vt 0.272612 0.855576
vt 0.396407 0.772308
vt 0.651977 0.840263
vt 0.651977 0.971858
vt 0.644828 0.967403
vt 0.644828 0.845478
vt 0.623341 0.302036
vt 0.623341 0.235657
vt 0.631113 0.229236
vt 0.631113 0.296739
vt 0.408918 0.493012
vt 0.429488 0.484538
vt 0.408918 0.430866
vt 0.429488 0.417035
vt 0.503687 0.302856
vt 0.487554 0.229236
vt 0.528589 0.240710
vt 0.528589 0.302856
vt 0.459089 0.154182
vt 0.466957 0.157784
vt 0.470332 0.178831
vt 0.481268 0.194948
vt 0.460466 0.213798
vt 0.487554 0.234147
vt 0.480449 0.259670
vt 0.484523 0.285073
vt 0.487554 0.303976
vt 0.471991 0.301057
vt 0.471306 0.299913
vt 0.465983 0.299930
vt 0.369234 0.281774
vt 0.282227 0.280432
vt 0.278895 0.275596
vt 0.297987 0.246082
vt 0.272612 0.236419
vt 0.277860 0.217069
vt 0.274488 0.196043
vt 0.280746 0.189603
vt 0.276917 0.165723
vt 0.367833 0.014677
vt 0.441654 0.000000
vt 0.445030 0.021048
vt 0.438769 0.027466
vt 0.528589 0.242149
vt 0.551915 0.229236
vt 0.551915 0.297500
vt 0.631113 0.233468
vt 0.638256 0.229236
vt 0.638256 0.288526
vt 0.631113 0.301737
vt 0.872533 0.022702
vt 0.893081 0.011327
vt 0.893081 0.130780
vt 0.872533 0.081991
vt 0.909903 0.000000
vt 0.909903 0.143388
vt 0.000000 0.466996
vt 0.148736 0.490024
vt 0.004724 0.490024
vt 0.969358 0.469338
vt 0.969358 0.307550
vt 0.992717 0.289096
vt 0.992717 0.492366
vt 0.950973 0.503432
vt 0.956331 0.501085
vt 0.974454 0.509445
vt 0.974454 0.695880
vt 0.950973 0.706701
vt 0.787143 0.201308
vt 0.787143 0.287108
vt 0.772416 0.213053
vt 0.746703 0.506246
vt 0.746130 0.657777
vt 0.710810 0.672347
vt 0.711097 0.596880
vt 0.747651 0.501085
vt 0.766259 0.510331
vt 0.765729 0.647151
vt 0.594015 0.841480
vt 0.594015 0.934244
vt 0.581790 0.933657
vt 0.581790 0.859255
vt 0.593442 0.840263
vt 0.097724 0.828498
vt 0.112517 0.828541
vt 0.112517 0.921022
vt 0.097724 0.915373
vt 0.756461 0.194181
vt 0.766834 0.176211
vt 0.771260 0.186511
vt 0.771260 0.280252
vt 0.756461 0.280252
vt 0.000000 0.490024
vt 0.014591 0.490027
vt 0.024750 0.502128
vt 0.161679 0.502128
vt 0.171849 0.490024
vt 0.186429 0.490027
vt 0.186429 0.504677
vt 0.174380 0.514885
vt 0.174380 0.652410
vt 0.186429 0.662620
vt 0.186429 0.677271
vt 0.171849 0.677271
vt 0.161679 0.665167
vt 0.024750 0.665167
vt 0.014591 0.677271
vt 0.000000 0.677271
vt 0.000000 0.662620
vt 0.012049 0.652410
vt 0.012049 0.514885
vt 0.000000 0.504677
vt 0.125755 0.828976
vt 0.137980 0.828498
vt 0.137980 0.923478
vt 0.125755 0.903421
vt 0.640309 0.151461
vt 0.640309 0.014532
vt 0.714851 0.014532
vt 0.714851 0.151461
vt 0.137980 0.924086
vt 0.137980 0.829454
vt 0.150591 0.828498
vt 0.150591 0.902661
vt 0.068235 0.828498
vt 0.068235 0.956659
vt 0.053436 0.956659
vt 0.053436 0.862917
vt 0.772416 0.176211
vt 0.737471 0.161625
vt 0.737471 0.004362
vt 0.747921 0.000000
vt 0.772416 0.013728
vt 0.973572 0.071219
vt 0.973572 0.279301
vt 0.950202 0.268480
vt 0.950202 0.082040
vt 0.404961 0.585879
vt 0.404961 0.772308
vt 0.369554 0.757717
vt 0.369554 0.600460
vt 0.981730 0.966055
vt 0.957346 0.955228
vt 0.957346 0.792750
vt 0.981730 0.807722
vt 0.273185 0.600460
vt 0.273185 0.585879
vt 0.417550 0.686134
vt 0.546200 0.686145
vt 0.569565 0.709167
vt 0.408918 0.709167
vt 0.569565 0.840872
vt 0.581790 0.840263
vt 0.581790 0.935200
vt 0.569565 0.915252
vt 0.348124 0.747558
vt 0.348124 0.610629
vt 0.272612 0.747558
vt 0.272612 0.610629
vt 0.618465 0.840263
vt 0.618465 0.934005
vt 0.606240 0.932288
vt 0.606240 0.858842
vt 0.273185 0.772308
vt 0.273185 0.757717
vt 0.732262 0.475824
vt 0.732262 0.490410
vt 0.600574 0.490410
vt 0.635960 0.475824
vt 0.630294 0.841306
vt 0.630294 0.935939
vt 0.618465 0.914426
vt 0.732989 0.328731
vt 0.732989 0.465660
vt 0.657500 0.465660
vt 0.657500 0.328731
vt 0.408632 0.772308
vt 0.408632 0.867288
vt 0.396407 0.866810
vt 0.396407 0.792365
vt 0.732262 0.303976
vt 0.732262 0.318562
vt 0.635960 0.318562
vt 0.842145 0.657777
vt 0.842101 0.672347
vt 0.594015 0.841980
vt 0.606240 0.840263
vt 0.606240 0.934005
vt 0.594015 0.915448
vt 0.262846 0.433201
vt 0.262846 0.570032
vt 0.187599 0.570315
vt 0.187599 0.433484
vt 0.569565 0.501085
vt 0.546200 0.524107
vt 0.833811 0.672347
vt 0.825213 0.692360
vt 0.797362 0.692338
vt 0.808903 0.672347
vt 0.797898 0.254600
vt 0.797898 0.227427
vt 0.805047 0.234468
vt 0.805047 0.259479
vt 0.859447 0.792750
vt 0.833811 0.792750
vt 0.928945 0.672347
vt 0.651977 0.846684
vt 0.659126 0.840263
vt 0.659126 0.941643
vt 0.651977 0.940448
vt 0.644828 0.840263
vt 0.644828 0.971445
vt 0.637443 0.967229
vt 0.637443 0.845674
vt 0.722357 0.822303
vt 0.825213 0.822303
vt 0.833811 0.842294
vt 0.710810 0.842294
s 0
usemtl (null)
f 1/1/1 2/2/1 7/3/1 5/4/1
f 2/5/2 1/6/2 4/7/2 90/8/2
f 1/9/3 3/10/3 60/11/3 4/12/3
f 6/13/4 30/14/4 3/10/4 1/9/4 5/15/4
f 18/16/5 20/17/5 22/18/5 23/19/5 25/20/5 27/21/5 6/22/5 5/23/5 7/24/5 8/25/5 10/26/5 11/27/5 16/28/5 17/29/5
f 2/2/6 9/30/6 8/31/6 7/3/6
f 12/32/7 10/33/7 8/34/7 9/35/7
f 12/36/6 13/37/6 11/38/6 10/39/6
f 9/40/8 14/41/8 13/42/8 12/43/8
f 11/44/9 13/45/9 14/46/9 16/47/9
f 2/2/6 15/48/6 14/49/6 9/30/6
f 14/49/6 15/48/6 17/50/6 16/51/6
f 19/52/10 18/53/10 17/54/10 15/55/10
f 86/56/11 87/57/11 90/58/11 4/59/11 60/60/11 59/61/11 58/62/11 43/63/11 42/64/11 40/65/11 38/66/11 36/67/11 35/68/11 33/69/11 31/70/11 29/71/11 28/72/11 26/73/11 24/74/11 21/75/11 20/76/11 18/77/11 19/78/11 82/79/11 84/80/11
f 20/81/12 21/82/12 22/83/12
f 21/84/13 24/85/13 23/86/13 22/87/13
f 24/88/14 26/89/14 25/90/14 23/91/14
f 26/89/15 28/92/15 27/93/15 25/90/15
f 29/94/16 30/14/16 6/13/16 27/95/16 28/96/16
f 30/97/17 29/98/17 31/99/17 32/100/17
f 31/101/18 33/102/18 34/103/18 55/104/18 32/105/18
f 33/106/19 35/107/19 34/108/19
f 36/109/20 37/110/20 34/111/20 35/112/20
f 36/109/21 38/113/21 39/114/21 80/115/21 37/110/21
f 40/116/22 41/117/22 81/118/22 39/119/22 38/120/22
f 44/121/20 41/122/20 40/123/20 42/124/20
f 42/125/23 43/126/23 46/127/23 45/128/23 44/129/23
f 76/130/24 78/131/24 79/132/24 81/133/24 41/134/24 44/135/24 45/136/24 47/137/24 49/138/24 51/139/24 52/140/24 61/141/24 65/142/24 66/143/24 67/144/24 68/145/24 69/146/24 71/147/24 73/148/24 75/149/24
f 47/150/25 45/151/25 46/152/25 48/153/25
f 49/154/26 47/155/26 48/156/26 50/157/26
f 53/158/27 51/159/27 49/160/27 50/161/27
f 54/162/23 52/163/23 51/164/23 53/165/23
f 54/166/26 53/167/26 46/168/26 43/169/26 58/170/26
f 46/168/28 53/167/28 50/157/28 48/156/28
f 56/171/29 32/172/29 55/173/29 54/174/29
f 54/175/6 55/176/6 62/177/6 57/178/6
f 56/179/30 54/180/30 58/181/30 59/182/30
f 61/183/6 52/184/6 54/175/6 57/178/6
f 60/185/31 3/186/31 56/187/31 59/188/31
f 65/189/32 61/190/32 57/191/32 63/192/32
f 57/178/33 62/177/33 64/193/33 63/194/33
f 66/195/6 65/196/6 63/194/6 64/193/6
f 62/197/34 67/198/34 66/199/34 64/200/34
f 55/176/6 68/201/6 67/202/6 62/177/6
f 69/203/14 68/204/14 55/205/14 70/206/14
f 71/197/35 69/207/35 70/208/35 72/209/35
f 73/210/12 71/211/12 72/212/12 74/213/12
f 77/214/36 75/215/36 73/216/36 74/217/36
f 34/4/12 76/218/12 75/219/12 77/220/12
f 55/205/12 34/4/12 77/220/12 70/206/12
f 70/206/37 77/220/37 74/213/37 72/212/37
f 78/221/20 76/222/20 34/111/20 37/110/20
f 79/223/38 78/224/38 37/225/38 80/226/38
f 81/227/20 79/228/20 80/229/20 39/230/20
f 32/231/39 56/187/39 3/186/39 30/232/39
f 15/233/40 83/234/40 82/235/40 19/236/40
f 82/237/41 83/238/41 85/239/41 84/240/41
f 84/241/23 85/242/23 88/233/23 86/243/23
f 88/244/42 89/245/42 87/246/42 86/247/42
f 83/248/43 89/249/43 88/250/43 85/251/43
f 87/252/26 89/253/26 2/254/26 90/255/26
f 15/233/26 2/254/26 89/253/26 83/234/26
