# Blender 4.0.2
# www.blender.org
mtllib BrokenBlock5.mtl
o BrokenBlock5
v 7.575562 -3.140354 0.063330
v 7.856308 0.318573 -2.847910
v 7.310959 -0.215938 3.512394
v -2.903961 -0.117035 2.644867
v 7.591690 3.242989 0.601154
v -6.992813 -0.056503 2.049049
v -1.819763 -3.049389 -0.734592
v -2.084366 -0.124969 2.714472
v -3.253387 -0.092712 2.366629
v 8.377762 0.313522 -2.803625
v 8.097015 -3.145405 0.107615
v 8.113159 3.237938 0.645441
v 7.832428 -0.220989 3.556681
v -2.545471 -0.060772 1.966309
v -2.339447 -2.337917 -0.719362
v 7.087662 -2.803566 0.049797
v -1.330185 -2.722065 -0.665111
v 7.339203 0.295498 -2.558563
v -1.078659 0.376999 -3.273470
v 7.102112 2.915665 0.531671
v 6.850601 -0.183403 3.140028
v -1.567261 -0.101902 2.425119
v 6.111526 -0.381084 2.833887
v -0.791122 -0.314251 2.247665
v -0.591141 -2.524384 -0.358970
v 6.311523 -2.591221 0.227253
v 6.349747 -2.553741 -0.218637
v -0.552917 -2.486912 -0.804863
v -0.340744 0.127178 -3.005033
v 6.561920 0.060341 -2.418810
v 6.563034 0.507850 -2.381107
v -0.339615 0.574680 -2.967333
v 6.363068 2.717983 0.225532
v 6.324829 2.680511 0.671425
v -0.577820 2.747345 0.085197
v -0.789978 0.133251 2.285368
v 6.112656 0.066422 2.871595
v 5.694565 -0.319305 2.458925
v -0.315781 -0.261116 1.948479
v 5.868698 -2.243732 0.189251
v -0.141647 -2.185539 -0.321190
v 5.901978 -2.211102 -0.198999
v -0.108368 -2.152912 -0.709444
v 6.086716 0.065060 -2.114752
v 0.076385 0.123249 -2.625195
v 6.087692 0.454719 -2.081921
v 0.077377 0.512909 -2.592365
v 5.913574 2.379139 0.187752
v -0.096756 2.437328 -0.322695
v 5.880280 2.346512 0.576008
v -0.130051 2.404701 0.065559
v 5.695557 0.070351 2.491756
v -0.314789 0.128540 1.981314
v -3.682068 0.052418 2.210690
v -6.541275 0.080101 1.967859
v -3.682724 -0.207550 2.188786
v -6.541916 -0.179867 1.945959
v -3.769348 0.061188 1.995193
v -6.418732 0.086838 1.770187
v -3.769974 -0.179699 1.974897
v -6.419342 -0.154049 1.749891
v -2.393692 -0.014759 -3.351650
v -2.121155 0.351452 -2.982895
v -2.718948 2.162640 0.726158
v -2.374405 2.046917 0.192354
v -2.789825 -0.085964 -3.090862
v -6.959702 0.351555 1.705597
v -3.089828 1.922478 0.670524
v -3.545288 1.737595 0.792343
v -3.642853 1.619812 0.683359
v -1.174698 1.438415 -2.021629
v -1.434143 0.402130 -3.561008
v -1.545517 0.329548 -3.578512
v -3.245285 -0.270848 -2.969042
v -3.364868 -0.241226 -2.801971
v -1.870758 2.506943 0.499292
v -1.348053 2.598991 0.151886
v -0.532440 2.705742 -0.453953
v -0.389282 2.988197 -0.104557
v -0.492584 2.784359 -0.356703
v -0.798523 2.822067 0.004907
v -0.518707 2.768436 -0.358902
v -6.504227 0.536446 1.583778
v -6.384644 0.506817 1.416708
v -2.554825 -2.843166 -0.780288
v -2.587158 -2.398243 -1.345566
v -2.653305 -2.887260 -0.622341
v -2.951004 -2.071625 -1.419607
v -6.913788 -0.929924 1.018936
v -6.844635 -0.418755 0.262968
v -3.024902 -2.617947 -0.611643
v -3.456970 -1.375988 -1.846889
v -3.325272 -1.256401 -2.139542
v -3.482590 -2.419273 -0.419733
v -6.456085 -1.128590 0.827030
v -3.881653 -0.451000 -2.663750
v -3.579666 -2.282902 -0.505628
v -6.334930 -1.086937 0.649635
vn 0.8855 -0.3392 -0.3176
vn 0.9170 -0.3964 0.0453
vn 0.9031 -0.4029 0.1485
vn 0.6996 -0.4925 -0.5177
vn 0.5355 -0.5688 -0.6242
vn 0.1382 -0.0835 0.9869
vn 0.8256 0.3226 0.4629
vn 0.4523 0.5525 0.7001
vn 0.8238 -0.3997 0.4021
vn 0.4849 -0.6484 0.5869
vn 0.6448 0.0626 -0.7618
vn 0.5773 0.8080 0.1174
vn 0.5057 -0.0737 0.8595
vn 0.5732 -0.8192 -0.0197
vn -0.2337 -0.6149 -0.7532
vn -0.3102 -0.5973 -0.7396
vn -0.9964 0.0096 -0.0846
vn -0.6244 -0.0640 0.7785
vn -0.4817 -0.6863 0.5450
vn -0.4785 0.5879 0.6523
vn -0.5313 0.8100 0.2482
vn -0.1742 0.7380 0.6519
vn -0.4306 0.6013 0.6730
vn -0.8545 0.3733 0.3613
vn 0.5932 -0.2733 -0.7573
vn 0.4873 0.6842 -0.5427
vn 0.6303 0.0636 -0.7737
vn -0.1272 0.7517 -0.6471
vn -0.3756 0.6925 -0.6160
vn -0.2489 -0.7481 0.6152
vn -0.4873 -0.6841 0.5427
vn 0.1027 -0.6454 -0.7569
vn 0.4841 -0.5861 -0.6497
vn -0.0355 -0.6418 -0.7660
vn -0.5552 -0.5088 -0.6580
vn -0.2635 -0.6086 -0.7485
vn -0.4160 -0.5928 -0.6896
vn -0.5096 -0.6149 -0.6018
vn -0.1307 -0.6322 -0.7637
vn -0.2454 0.6358 0.7318
vn -0.1554 -0.7593 0.6319
vn -0.7340 -0.5448 0.4056
vn -0.6470 -0.4596 -0.6084
vn -0.7314 0.4729 0.4913
vn -0.1518 0.6437 0.7501
vn -0.0583 0.6456 0.7614
vn -0.0382 0.8107 -0.5843
vn 0.1518 0.8088 -0.5681
vn 0.2759 0.9493 -0.1504
vn -0.2283 0.9542 -0.1933
vn -0.1612 -0.7046 0.6911
vn -0.1518 -0.8088 0.5681
vn -0.2759 -0.9493 0.1504
vn -0.3323 -0.3267 0.8848
vn -0.0320 -0.5780 -0.8154
vn 0.1580 -0.5798 -0.7993
vn 0.3310 -0.1757 -0.9271
vn -0.1732 -0.1708 -0.9700
vn 0.0382 -0.8107 0.5843
vn 0.2283 -0.9542 0.1932
vn 0.3756 -0.6925 0.6160
vn -0.4841 0.5861 0.6497
vn -0.1900 -0.6231 -0.7587
vn 0.3788 0.5778 0.7230
vn -0.0620 -0.7636 0.6427
vn 0.0288 -0.7064 0.7072
vn 0.0584 -0.6456 -0.7614
vn 0.1480 -0.7031 -0.6955
vn -0.0421 -0.7013 -0.7116
vn 0.0620 0.7636 -0.6427
vn 0.5088 0.6755 -0.5337
vn -0.0288 0.7064 -0.7072
vn 0.0842 0.2628 -0.9612
vn -0.0584 0.6456 0.7614
vn 0.0320 0.5780 0.8154
vn -0.1580 0.5798 0.7993
vn 0.0421 0.7013 0.7116
vn -0.1480 0.7031 0.6955
vn -0.2330 -0.9073 -0.3501
vn 0.1732 0.1708 0.9700
vn -0.3310 0.1757 0.9271
vn 0.1720 -0.3315 0.9276
vn -0.1720 0.3315 -0.9276
vn 0.2712 -0.9122 -0.3073
vn -0.2712 0.9122 0.3073
vn 0.3814 0.3946 -0.8359
vn 0.3323 0.3267 -0.8848
vn 0.2330 0.9073 0.3501
vn 0.0760 0.7356 0.6731
vn 0.5551 0.5088 0.6580
vn -0.1782 -0.8358 0.5193
vn -0.4226 -0.7070 0.5670
vn 0.0720 -0.8382 0.5405
vn 0.5766 -0.6008 0.5536
vn -0.5354 -0.8375 0.1094
vn -0.8564 -0.4244 0.2941
vn 0.0064 0.9993 0.0381
vn 0.0014 -0.9916 -0.1297
vn 0.7882 0.3576 0.5008
vn 0.7862 -0.4403 0.4336
vn -0.4366 0.7787 -0.4506
vn -0.5136 -0.6883 -0.5124
vt 0.569565 0.822828
vt 0.686317 0.823536
vt 0.699262 0.835660
vt 0.676434 0.840263
vt 0.572955 0.839631
vt 0.085067 0.937711
vt 0.068235 0.919719
vt 0.068235 0.828498
vt 0.085067 0.839037
vt 0.686317 0.705422
vt 0.704354 0.688742
vt 0.704354 0.832431
vt 0.150591 0.677271
vt 0.150591 0.828498
vt 0.000000 0.828498
vt 0.000000 0.677271
vt 0.743782 0.184446
vt 0.756461 0.176211
vt 0.756461 0.280426
vt 0.743782 0.271256
vt 0.563544 0.282735
vt 0.551915 0.229236
vt 0.581491 0.237570
vt 0.581491 0.282735
vt 0.097724 0.971761
vt 0.085067 0.965894
vt 0.085067 0.835299
vt 0.097724 0.828498
vt 0.112518 0.834365
vt 0.125174 0.828498
vt 0.125174 0.928171
vt 0.112518 0.922478
vt 0.267354 0.723748
vt 0.272502 0.719076
vt 0.272502 0.792761
vt 0.267354 0.791892
vt 0.623341 0.229236
vt 0.623341 0.291426
vt 0.613144 0.237494
vt 0.246610 0.282007
vt 0.246610 0.433201
vt 0.229067 0.425226
vt 0.229067 0.289753
vt 0.939776 0.792750
vt 0.939776 0.943977
vt 0.923075 0.936111
vt 0.923075 0.800616
vt 0.953160 0.290802
vt 0.956855 0.289096
vt 0.969358 0.295170
vt 0.969358 0.430665
vt 0.953160 0.438542
vt 0.792739 0.230502
vt 0.797898 0.227427
vt 0.797898 0.270517
vt 0.792739 0.280122
vt 0.899139 0.652312
vt 0.899139 0.501085
vt 0.916703 0.501085
vt 0.916703 0.652312
vt 0.263955 0.281942
vt 0.263955 0.433136
vt 0.934273 0.501085
vt 0.934273 0.652323
vt 0.916703 0.652323
vt 0.957346 0.792750
vt 0.957346 0.943977
vt 0.926134 0.151227
vt 0.926134 0.000000
vt 0.944201 0.016732
vt 0.944201 0.134495
vt 0.935017 0.421799
vt 0.935017 0.304220
vt 0.872533 0.252275
vt 0.872533 0.160120
vt 0.890600 0.143388
vt 0.890600 0.258468
vt 0.983263 0.501085
vt 0.983263 0.732282
vt 0.974454 0.717120
vt 0.974454 0.515812
vt 0.010668 0.025369
vt 0.125639 0.025369
vt 0.118206 0.040569
vt 0.018089 0.040569
vt 0.272601 0.281942
vt 0.272601 0.510167
vt 0.263955 0.494185
vt 0.263955 0.295468
vt 0.992073 0.732282
vt 0.992073 0.963442
vt 0.983263 0.948247
vt 0.983263 0.746971
vt 0.909903 0.143361
vt 0.909903 0.007866
vt 0.950973 0.508951
vt 0.950973 0.644457
vt 0.882400 0.644446
vt 0.882400 0.508951
vt 0.906831 0.151254
vt 0.906831 0.269355
vt 0.136306 0.000000
vt 0.136306 0.281942
vt 0.125639 0.256561
vt 0.549312 0.709167
vt 0.549312 0.844662
vt 0.523791 0.834058
vt 0.523791 0.719771
vt 0.000000 0.281942
vt 0.000000 0.000000
vt 0.010668 0.256561
vt 0.272612 0.585879
vt 0.272612 0.303976
vt 0.283280 0.329345
vt 0.283280 0.560510
vt 0.882400 0.501085
vt 0.882400 0.636591
vt 0.856878 0.625987
vt 0.856878 0.511689
vt 0.408918 0.303976
vt 0.408918 0.585879
vt 0.398251 0.560510
vt 0.398251 0.329345
vt 0.266819 0.570315
vt 0.266819 0.848638
vt 0.256151 0.823552
vt 0.256151 0.595326
vt 0.013411 0.949369
vt 0.013411 0.839189
vt 0.038604 0.828498
vt 0.038604 0.883376
vt 0.559979 0.734254
vt 0.559979 0.960926
vt 0.549312 0.956863
vt 0.203874 0.414709
vt 0.203874 0.300444
vt 0.272612 0.250912
vt 0.265136 0.264156
vt 0.261945 0.256561
vt 0.261945 0.025369
vt 0.272612 0.000000
vt 0.950201 0.279301
vt 0.924669 0.268697
vt 0.924669 0.154400
vt 0.932309 0.151227
vt 0.950202 0.161223
vt 0.146974 0.025369
vt 0.146974 0.256561
vt 0.833107 0.289096
vt 0.833107 0.490410
vt 0.732989 0.490410
vt 0.732989 0.289096
vt 0.150591 0.878546
vt 0.250709 0.677271
vt 0.250709 0.878546
vt 0.408918 0.907895
vt 0.408918 0.709167
vt 0.509014 0.709515
vt 0.509014 0.908243
vt 0.772416 0.201308
vt 0.772416 0.000000
vt 0.872533 0.000000
vt 0.872533 0.201308
vt 0.290701 0.545267
vt 0.390818 0.545267
vt 0.992073 0.501085
vt 0.992073 0.732277
vt 0.983263 0.717110
vt 0.983263 0.515807
vt 0.509014 0.826681
vt 0.509014 0.727159
vt 0.187599 0.407202
vt 0.187599 0.307702
vt 0.842145 0.618598
vt 0.842145 0.519077
vt 0.254512 0.040569
vt 0.154395 0.040569
vt 0.991191 0.048104
vt 0.991191 0.279301
vt 0.982381 0.264574
vt 0.982381 0.063266
vt 0.012777 0.953117
vt 0.000000 0.946305
vt 0.000000 0.846805
vt 0.982381 0.048104
vt 0.982381 0.279301
vt 0.973572 0.264574
vt 0.973572 0.063266
vt 0.909903 0.261309
vt 0.909903 0.161788
vt 1.000000 0.048962
vt 1.000000 0.278546
vt 0.991191 0.263857
vt 0.991191 0.062587
vt 0.999585 0.048104
vt 0.559979 0.937393
vt 0.559979 0.709167
vt 0.568942 0.722748
vt 0.568942 0.921476
vt 0.728950 0.192714
vt 0.728950 0.235804
vt 0.648627 0.286717
vt 0.722753 0.286717
vt 0.728950 0.301460
vt 0.640309 0.301460
vt 0.787143 0.201308
vt 0.801975 0.207480
vt 0.801975 0.227427
vt 0.787143 0.219148
vt 0.728950 0.176211
vt 0.722753 0.190954
vt 0.053436 0.959082
vt 0.038604 0.952922
vt 0.038604 0.838548
vt 0.053436 0.828498
vt 0.710810 0.688742
vt 0.710810 0.813991
vt 0.704613 0.799247
vt 0.704613 0.703485
vt 0.613144 0.278302
vt 0.598312 0.284462
vt 0.598312 0.239286
vt 0.613144 0.229236
vt 0.581491 0.238624
vt 0.598312 0.229236
vt 0.598312 0.278856
vt 0.237680 0.570315
vt 0.256151 0.570315
vt 0.256151 0.659048
vt 0.187599 0.659048
vt 0.923075 0.901518
vt 0.833811 0.901518
vt 0.833811 0.853267
vt 0.923075 0.792750
vt 0.267442 0.619869
vt 0.267442 0.511113
vt 0.272601 0.624541
vt 0.272601 0.719076
vt 0.267354 0.716349
vt 0.267354 0.628746
vt 0.256151 0.754799
vt 0.250992 0.751127
vt 0.250992 0.662405
vt 0.586639 0.282398
vt 0.586639 0.302150
vt 0.581491 0.297022
vt 0.581491 0.278856
vt 0.787143 0.280339
vt 0.787143 0.232099
vt 0.792739 0.227427
vt 0.792739 0.276493
vt 0.629204 0.115591
vt 0.634363 0.119165
vt 0.634363 0.135060
vt 0.640309 0.148185
vt 0.623390 0.159669
vt 0.640309 0.177792
vt 0.632352 0.195773
vt 0.632352 0.214960
vt 0.632352 0.229236
vt 0.621641 0.225292
vt 0.621291 0.224369
vt 0.617510 0.223771
vt 0.550947 0.199228
vt 0.489368 0.188211
vt 0.487554 0.184267
vt 0.504451 0.164710
vt 0.487554 0.154660
vt 0.493478 0.141025
vt 0.493478 0.125130
vt 0.498658 0.121121
vt 0.498658 0.103085
vt 0.580326 0.002292
vt 0.634363 0.000000
vt 0.634363 0.015895
vt 0.629204 0.019904
vt 0.905462 0.433685
vt 0.833107 0.343572
vt 0.872848 0.325189
vt 0.863033 0.321908
vt 0.898052 0.305698
vt 0.906752 0.292725
vt 0.930164 0.289096
vt 0.935017 0.291823
vt 0.929661 0.304698
vt 0.930273 0.319768
vt 0.925289 0.323527
vt 0.929093 0.414248
vt 0.934383 0.417681
vt 0.935017 0.432751
s 1
usemtl (null)
f 63/1/1 15/2/2 85/3/3 86/4/4 62/5/5
f 4/6/6 14/7/7 65/8/7 64/9/8
f 85/3/3 15/2/2 14/10/9 4/11/6 87/12/10
f 10/13/11 12/14/12 13/15/13 11/16/14
f 66/17/15 62/18/5 86/19/4 88/20/16
f 67/21/17 90/22/17 89/23/17 6/24/17
f 4/25/6 9/26/18 91/27/19 87/28/10
f 9/29/18 4/30/6 64/31/8 68/32/20
f 58/33/21 54/34/22 69/35/23 70/36/24
f 72/37/25 71/38/26 19/39/27
f 5/40/28 2/41/28 18/42/29 20/43/29
f 1/44/30 3/45/30 21/46/31 16/47/31
f 73/48/32 72/49/25 19/50/27 17/51/33 7/52/34
f 75/53/35 74/54/36 93/55/37 92/56/38
f 1/57/39 2/58/39 10/59/11 11/60/14
f 2/41/28 5/40/28 12/61/12 10/62/11
f 5/63/40 3/64/40 13/65/13 12/59/12
f 3/45/30 1/44/30 11/66/14 13/67/13
f 7/68/41 8/69/41 14/70/42 15/71/42
f 15/72/43 63/73/43 73/48/32 7/52/34
f 65/74/44 14/75/44 8/76/45 76/77/46
f 31/78/47 32/79/48 47/80/49 46/81/50
f 26/82/51 23/83/52 38/84/53 40/85/54
f 27/86/55 28/87/56 43/88/57 42/89/58
f 23/90/52 24/91/59 39/92/60 38/93/53
f 8/69/41 7/68/41 17/94/61 22/95/61
f 3/64/40 5/63/40 20/96/62 21/97/62
f 2/58/39 1/57/39 16/98/63 18/99/63
f 8/76/45 22/100/64 77/101/64 76/77/46
f 21/102/65 22/103/65 24/104/59 23/83/52
f 22/105/65 17/106/65 25/107/66 24/108/59
f 17/109/65 16/110/65 26/82/51 25/111/66
f 16/110/65 21/102/65 23/83/52 26/82/51
f 16/112/63 17/113/67 28/114/56 27/115/55
f 17/116/67 19/117/67 29/118/68 28/119/56
f 19/120/67 18/121/63 30/122/69 29/123/68
f 18/121/63 16/112/63 27/115/55 30/122/69
f 18/124/70 19/125/70 32/126/48 31/127/47
f 78/128/71 32/129/48 19/130/70 71/131/70
f 20/105/70 33/132/72 80/133/73 79/134/70
f 20/43/70 18/42/70 31/135/47 33/136/72
f 79/137/74 81/138/74 35/139/75 34/140/76 20/141/74
f 22/142/74 36/143/77 35/144/75 81/145/74 77/146/74
f 22/103/74 21/102/74 37/147/78 36/148/77
f 21/102/74 20/141/74 34/140/76 37/147/78
f 38/149/65 39/150/65 41/151/65 40/152/65
f 42/153/67 43/13/67 45/154/67 44/155/67
f 46/156/70 47/157/70 49/158/70 48/159/70
f 50/160/74 51/161/74 53/162/74 52/163/74
f 30/122/69 27/115/55 42/164/58 44/165/79
f 34/166/76 35/167/75 51/168/80 50/169/81
f 24/108/59 25/107/66 41/170/82 39/171/60
f 33/136/72 31/135/47 46/172/50 48/173/83
f 28/119/56 29/118/68 45/174/84 43/175/57
f 37/147/78 34/140/76 50/176/81 52/177/85
f 25/178/66 26/179/51 40/180/54 41/181/82
f 78/128/71 82/182/86 49/183/87 47/184/49 32/129/48
f 29/185/68 30/186/69 44/187/79 45/188/84
f 35/144/75 36/143/77 53/189/88 51/190/80
f 80/191/73 33/192/72 48/193/83 49/194/87 82/195/86
f 36/196/77 37/197/78 52/198/85 53/199/88
f 74/200/36 66/17/15 88/20/16 93/201/37
f 69/202/23 54/203/22 9/204/74 68/205/74
f 6/206/74 55/207/89 83/208/90 67/209/74
f 6/210/74 9/204/74 54/203/22 55/211/89
f 9/212/65 56/213/91 94/214/92 91/215/65
f 9/216/65 6/217/65 57/218/93 56/219/91
f 57/220/93 6/221/65 89/222/65 95/223/94
f 96/224/67 75/225/35 92/226/38
f 84/227/74 59/228/74 58/229/74 70/230/74
f 60/231/65 61/232/65 98/233/65 97/234/65
f 60/235/95 97/236/96 94/87/92 56/237/91
f 55/237/89 54/238/22 58/239/21 59/240/97
f 56/229/91 57/241/93 61/242/98 60/243/95
f 83/244/90 55/245/89 59/246/99 84/247/99
f 98/248/100 61/249/100 57/250/93 95/251/94
f 70/252/101 69/253/101 68/254/101 64/255/101 65/256/101 76/257/101 77/258/101 81/259/101 79/260/101 80/261/101 82/262/101 78/263/101 71/264/101 72/265/101 73/266/101 63/267/101 62/268/101 66/269/101 74/270/101 75/271/101 96/272/101 90/273/101 67/274/101 83/275/101 84/276/101
f 90/277/102 96/278/102 92/279/38 93/280/37 88/281/102 86/282/102 85/283/102 87/284/102 91/285/102 94/286/102 97/287/102 98/288/102 95/289/102 89/290/102
