# Blender 4.0.2
# www.blender.org
mtllib BrokenBlock3.mtl
o BrokenBlock3
v -175.836456 46.282368 -24.883047
v -178.764282 46.456127 -21.882208
v -175.688400 46.452267 -24.508108
v -176.364929 46.799465 -24.743120
v -175.700989 49.198452 -24.919722
v -175.568649 49.030029 -24.540531
v -176.239670 49.495552 -24.777029
v -176.255096 49.668674 -25.487562
v -176.743973 50.008324 -25.662008
v -176.411499 46.302010 -25.445217
v -179.502274 46.485443 -22.277351
v -176.904480 46.553425 -25.618555
v -177.421600 46.881767 -26.142109
v -181.683228 46.716671 -30.290472
v -179.673691 46.717773 -22.780268
v -177.652695 46.584442 -25.916122
v -181.931442 46.730610 -30.099224
v -178.104797 46.860325 -26.070629
v -179.988556 46.723072 -23.522005
v -180.138687 46.981037 -23.986002
v -184.607361 46.880852 -28.037552
v -184.855576 46.894791 -27.846304
v -184.303650 47.123314 -28.057846
v -181.973648 46.992489 -29.853006
v -184.697296 47.200062 -27.709555
v -184.381958 47.401260 -27.772253
v -180.190826 47.046120 -23.303822
v -180.314819 47.262321 -23.796022
v -180.035492 50.389973 -23.345879
v -179.489532 50.681999 -22.830128
v -182.991074 50.490936 -26.235395
v -180.179565 50.173916 -23.832644
v -182.896301 50.266720 -26.488659
v -182.832779 50.796207 -26.098650
v -182.584564 50.782272 -26.289896
v -179.804382 50.687298 -23.571865
v -182.542358 50.520390 -26.536114
v -179.978333 50.432804 -24.029417
v -181.665512 50.471157 -27.211683
v -182.098618 49.478611 -27.715322
v -179.064438 50.350349 -27.209002
v -177.944427 50.312092 -26.114042
v -178.608139 50.587597 -27.080114
v -177.501495 50.549793 -25.998219
v -178.163818 50.566959 -27.079655
v -177.370316 50.539856 -26.303885
v -178.341415 50.262352 -27.235296
v -177.266251 50.225620 -26.184166
v -178.832199 50.067150 -27.344128
v -177.768311 50.030807 -26.304022
v -179.176620 49.476418 -27.645966
v -181.712036 48.600941 -28.142118
v -180.344727 47.472980 -28.669638
v -181.100327 47.212074 -28.817499
v -181.093201 47.523392 -29.402819
v -181.227539 48.002560 -29.561628
v -181.619705 47.246162 -29.900459
v -181.707138 48.815262 -28.545071
v -177.903580 47.119217 -26.267403
v -181.524948 47.021946 -30.153725
v -177.102951 50.312973 -26.029900
v -177.490952 50.537518 -25.972961
v -177.552094 50.553627 -25.880329
v -178.367737 50.615425 -23.979904
v -179.340637 50.858055 -22.446249
v -179.301483 50.807671 -22.331713
v -178.611801 50.382450 -22.319677
v -178.771622 46.942295 -22.276409
v -178.747391 50.337448 -21.763874
v -178.889023 47.288578 -21.725529
v -178.378647 50.080647 -21.629560
v -178.081100 49.828148 -21.324644
v -178.496643 47.540649 -21.597614
v -178.139679 48.567459 -21.308786
v -177.974503 48.277847 -21.340515
v -177.907074 49.729397 -21.358770
v -177.569458 49.442902 -21.012802
v -174.118301 47.287571 -20.833271
v -173.040558 46.884621 -21.949736
v -173.987915 46.417423 -20.997047
v -173.064819 46.362640 -21.943172
v -174.502167 46.440166 -21.088333
v -173.499466 46.380661 -22.116035
v -174.647461 46.597111 -21.081575
v -173.661499 46.538597 -22.092127
v -177.743164 46.734016 -21.631090
v -175.520309 46.602100 -23.909380
v -177.843048 46.587917 -21.681374
v -178.357300 46.610657 -21.772655
v -175.505493 46.449188 -24.077221
v -173.365219 46.553383 -22.247313
v -173.537109 46.698643 -22.213772
v -175.371262 46.621910 -24.208500
v -173.338104 47.137119 -22.254658
v -173.512146 47.235870 -22.220530
v -175.303284 48.755886 -24.056097
v -175.271118 48.777531 -24.235609
v -175.395920 46.762146 -24.031021
v -178.883377 46.600094 -21.873358
vn -0.6376 -0.4910 -0.5936
vn 0.2634 -0.9135 0.3099
vn 0.9363 -0.0479 -0.3480
vn -0.2562 -0.0003 -0.9666
vn 0.5125 0.8367 0.1928
vn 0.9984 -0.0468 -0.0331
vn 0.3194 -0.0268 -0.9472
vn -0.3513 -0.8898 -0.2913
vn 0.4610 -0.7382 0.4925
vn 0.6977 -0.0414 -0.7151
vn 0.6978 -0.0414 -0.7151
vn -0.0464 -0.9988 0.0126
vn -0.5633 -0.6124 0.5547
vn -0.4014 -0.8495 -0.3424
vn 0.5034 -0.6757 -0.5385
vn -0.4880 0.5548 -0.6738
vn -0.6977 0.0414 0.7151
vn -0.4144 0.7902 0.4515
vn -0.9634 0.0481 0.2638
vn -0.6977 0.0415 0.7152
vn -0.4853 -0.7368 0.4707
vn 0.0464 0.9988 -0.0126
vn 0.5633 0.6124 -0.5547
vn 0.0216 0.4449 -0.8953
vn -0.5034 0.6757 0.5386
vn 0.6977 -0.0414 -0.7152
vn 0.4144 -0.7902 -0.4515
vn -0.3687 0.8225 0.4330
vn 0.9295 0.3209 0.1820
vn 0.4854 0.7368 -0.4707
vn 0.2407 -0.0234 -0.9703
vn -0.3213 0.8742 -0.3641
vn -0.2677 0.9109 -0.3139
vn -0.9385 0.0479 0.3420
vn -0.0094 0.0130 0.9999
vn -0.9714 0.0422 -0.2335
vn -0.3255 0.0270 0.9452
vn -0.1799 -0.2079 0.9615
vn 0.1942 0.0033 0.9810
vn -0.6977 0.0414 0.7152
vn 0.7148 -0.0244 0.6989
vn -0.6155 -0.5453 -0.5690
vn 0.5630 -0.5856 0.5832
vn -0.5469 -0.6424 0.5369
vn 0.5044 0.7102 -0.4911
vn -0.1942 -0.0033 -0.9809
vn 0.9843 -0.0436 0.1712
vt 0.013285 0.534878
vt 0.136283 0.541028
vt 0.152746 0.562260
vt 0.003115 0.554779
vt 0.000000 0.548871
vt 0.145901 0.576299
vt 0.009502 0.569479
vt 0.819509 0.339606
vt 0.807919 0.328823
vt 0.904482 0.285963
vt 0.904869 0.301718
vt 0.815752 0.302743
vt 0.905030 0.263116
vt 0.651941 0.253172
vt 0.647885 0.253319
vt 0.574155 0.240296
vt 0.507854 0.241280
vt 0.505319 0.237270
vt 0.519867 0.211810
vt 0.500529 0.204241
vt 0.504532 0.187748
vt 0.501960 0.170012
vt 0.506728 0.164424
vt 0.503810 0.144301
vt 0.573088 0.014211
vt 0.629338 0.000000
vt 0.631910 0.017736
vt 0.627142 0.023324
vt 0.642626 0.130091
vt 0.648621 0.132960
vt 0.651193 0.150696
vt 0.659528 0.164072
vt 0.643674 0.180531
vt 0.664317 0.197100
vt 0.658903 0.218886
vt 0.662006 0.240284
vt 0.664317 0.256221
vt 0.652459 0.254126
vt 0.271454 0.501976
vt 0.369082 0.498859
vt 0.387631 0.523926
vt 0.265720 0.527818
vt 0.379911 0.543439
vt 0.254806 0.547434
vt 0.928536 0.670871
vt 0.909373 0.822196
vt 0.891247 0.822679
vt 0.900519 0.679418
vt 0.952624 0.692802
vt 0.935279 0.822034
vt 0.376166 0.778310
vt 0.369537 0.570692
vt 0.387631 0.785231
vt 0.248453 0.574558
vt 0.244837 0.566621
vt 0.674874 0.519261
vt 0.674874 0.761179
vt 0.663636 0.734271
vt 0.663636 0.517665
vt 0.531253 0.761179
vt 0.542491 0.734271
vt 0.651491 0.718424
vt 0.651491 0.522568
vt 0.550321 0.715906
vt 0.655806 0.715906
vt 0.542491 0.500456
vt 0.531253 0.498859
vt 0.554636 0.507584
vt 0.554636 0.718425
vt 0.684223 0.565143
vt 0.684223 0.531962
vt 0.674874 0.523349
vt 0.674874 0.509957
vt 0.686191 0.509089
vt 0.694077 0.519546
vt 0.800309 0.511394
vt 0.808195 0.499727
vt 0.819513 0.498859
vt 0.819513 0.512250
vt 0.810164 0.522298
vt 0.810164 0.647998
vt 0.819512 0.656612
vt 0.819512 0.670003
vt 0.808195 0.670871
vt 0.800309 0.660415
vt 0.760331 0.663482
vt 0.756720 0.620414
vt 0.724139 0.595575
vt 0.875980 0.014989
vt 0.875980 0.210843
vt 0.770495 0.210843
vt 0.770495 0.000000
vt 0.520015 0.734269
vt 0.520016 0.506141
vt 0.507871 0.718423
vt 0.507871 0.512535
vt 0.387631 0.761177
vt 0.398869 0.734269
vt 0.406699 0.715904
vt 0.512185 0.715904
vt 0.398869 0.584647
vt 0.387631 0.591930
vt 0.411013 0.580891
vt 0.411013 0.718423
vt 0.674874 0.876763
vt 0.674874 0.670871
vt 0.780359 0.670871
vt 0.780359 0.808402
vt 0.796583 0.407972
vt 0.797207 0.268141
vt 0.807919 0.266627
vt 0.807919 0.434888
vt 0.784857 0.390845
vt 0.784747 0.263116
vt 0.682177 0.398913
vt 0.678534 0.340857
vt 0.743891 0.269308
vt 0.105485 0.787238
vt 0.186907 0.739811
vt 0.195569 0.722691
vt 0.209477 0.714590
vt 0.210724 0.728481
vt 0.200104 0.744853
vt 0.202522 0.771794
vt 0.144764 0.851845
vt 0.113959 0.829619
vt 0.671298 0.415118
vt 0.670653 0.414210
vt 0.667053 0.356847
vt 0.658868 0.410501
vt 0.656286 0.369369
vt 0.238694 0.621060
vt 0.237412 0.580911
vt 0.250190 0.628959
vt 0.261097 0.590009
vt 0.262816 0.643839
vt 0.105485 0.848854
vt 0.105485 0.902712
vt 0.000000 0.902712
vt 0.000000 0.714590
vt 0.027845 0.732635
vt 0.010679 0.740550
vt 0.009780 0.778498
vt 0.083692 0.832833
vt 0.210724 0.863161
vt 0.193511 0.887018
vt 0.650892 0.858564
vt 0.674874 0.859277
vt 0.673997 0.888682
vt 0.658364 0.798675
vt 0.674874 0.799166
vt 0.638137 0.844613
vt 0.363908 0.774944
vt 0.357905 0.586918
vt 0.362297 0.589298
vt 0.256865 0.592664
vt 0.680201 0.417892
vt 0.676094 0.417353
vt 0.750553 0.438135
vt 0.511714 0.761177
vt 0.511714 0.827486
vt 0.498666 0.770787
vt 0.909909 0.961540
vt 0.929130 0.963516
vt 0.925123 0.965833
vt 0.952624 0.945825
vt 0.227913 0.659513
vt 0.213076 0.672253
vt 0.207253 0.647444
vt 0.207253 0.536985
vt 0.227913 0.534878
vt 0.192696 0.545709
vt 0.192696 0.637732
vt 0.177064 0.554475
vt 0.177064 0.600149
vt 0.885406 0.690251
vt 0.886094 0.709157
vt 0.880657 0.713000
vt 0.884795 0.826809
vt 0.890560 0.831980
vt 0.891247 0.850885
vt 0.859085 0.847075
vt 0.780359 0.722476
vt 0.823595 0.706240
vt 0.812927 0.700488
vt 0.851033 0.686179
vt 0.860479 0.671447
vt 0.885955 0.670871
vt 0.891247 0.675092
vt 0.170482 0.557737
vt 0.170482 0.610325
vt 0.152746 0.567683
vt 0.668534 0.494845
vt 0.656286 0.438135
vt 0.687445 0.446969
vt 0.687445 0.494845
vt 0.145543 0.693104
vt 0.152746 0.708424
vt 0.104029 0.714590
vt 0.091282 0.700849
vt 0.085788 0.694200
vt 0.137607 0.687525
vt 0.133556 0.597620
vt 0.019951 0.592466
vt 0.019233 0.585408
vt 0.140141 0.591641
vt 0.873390 0.460999
vt 0.873015 0.444064
vt 0.892345 0.435484
vt 0.890675 0.453327
vt 0.831817 0.351244
vt 0.840040 0.351672
vt 0.878214 0.437679
vt 0.874866 0.436040
vt 0.892656 0.428144
vt 0.479203 0.761177
vt 0.498666 0.761177
vt 0.498666 0.855276
vt 0.426434 0.855276
vt 0.839009 0.355254
vt 0.903199 0.319562
vt 0.905030 0.325950
s 0
usemtl (null)
f 68/1/1 4/2/1 1/3/1 2/4/1 99/5/1
f 1/3/2 3/6/2 89/7/2 2/4/2
f 3/8/3 1/9/3 5/10/3 6/11/3
f 1/9/4 4/12/4 7/13/4 5/10/4
f 62/14/5 63/15/5 64/16/5 65/17/5 66/18/5 67/19/5 69/20/5 71/21/5 72/22/5 76/23/5 77/24/5 78/25/5 79/26/5 94/27/5 95/28/5 96/29/5 97/30/5 6/31/5 5/32/5 7/33/5 8/34/5 9/35/5 61/36/5 46/37/5 44/38/5
f 7/39/6 4/40/6 10/41/6 8/42/6
f 10/41/7 12/43/7 9/44/7 8/42/7
f 10/45/8 11/46/8 15/47/8 12/48/8
f 11/46/9 10/45/9 4/49/9 68/50/9
f 60/51/10 13/52/10 12/43/10 14/53/10
f 12/43/11 13/52/11 48/54/11 61/55/11 9/44/11
f 14/56/12 12/57/12 16/58/12 17/59/12
f 12/57/12 15/60/12 19/61/12 16/58/12
f 17/59/13 16/58/13 18/62/13 24/63/13
f 16/58/14 19/61/14 20/64/14 18/65/14
f 21/66/12 19/61/12 15/60/12 22/67/12
f 23/68/15 20/69/15 19/61/15 21/66/15
f 56/70/16 57/71/16 60/72/16 14/73/16 17/74/16 24/75/16 23/76/16 21/77/16 22/78/16 25/79/16 26/80/16 33/81/16 31/82/16 34/83/16 35/84/16 37/85/16 39/86/16 40/87/16 58/88/16
f 24/89/12 18/90/12 20/91/12 23/92/12
f 27/93/17 25/94/17 22/67/17 15/60/17
f 28/95/18 26/96/18 25/94/18 27/93/18
f 15/60/17 30/97/17 29/98/17 27/93/17
f 27/93/19 29/98/19 32/99/19 28/100/19
f 31/101/20 29/98/20 30/97/20 34/102/20
f 33/103/21 32/104/21 29/98/21 31/101/21
f 26/105/17 28/106/17 32/107/17 33/108/17
f 36/109/22 35/110/22 34/111/22 30/112/22
f 38/113/23 37/114/23 35/110/23 36/109/23
f 37/114/22 38/113/22 42/115/22 41/116/22 39/117/22
f 39/118/24 41/119/24 43/120/24 45/121/24 47/122/24 49/123/24 51/124/24 52/125/24 40/126/24
f 41/116/25 42/115/25 62/127/25 44/128/25 43/129/25
f 44/128/22 46/130/22 45/131/22 43/129/22
f 45/132/26 46/133/26 61/55/26 48/54/26 47/134/26
f 47/134/27 48/54/27 50/135/27 49/136/27
f 49/137/10 50/138/10 59/139/10 57/140/10 56/141/10 55/142/10 53/143/10 51/144/10
f 53/145/24 54/146/24 52/125/24 51/124/24
f 55/147/28 54/148/28 53/149/28
f 58/150/29 52/151/29 54/148/29 55/147/29 56/152/29
f 52/151/29 58/150/29 40/57/29
f 57/153/30 59/154/30 13/52/30 60/51/30
f 48/54/31 13/52/31 59/155/31 50/156/31
f 36/109/32 63/157/32 62/158/32 42/115/32 38/113/32
f 63/157/22 36/109/22 30/112/22 64/159/22
f 65/160/33 64/161/33 30/162/33
f 30/163/34 15/47/34 11/46/34 66/164/34 65/165/34
f 68/50/35 67/166/35 66/164/35 11/46/35
f 68/167/36 99/168/36 70/169/36 69/170/36 67/171/36
f 71/172/37 69/170/37 70/169/37 73/173/37
f 72/174/17 71/172/17 73/173/17 74/175/17
f 89/176/38 88/177/38 86/178/38 84/179/38 82/180/38 80/181/38 78/182/38 77/183/38 75/184/38 74/185/38 73/186/38 70/187/38 99/188/38 2/189/38
f 76/190/39 72/174/39 74/175/39 75/191/39
f 77/192/40 76/190/40 75/191/40
f 79/193/41 78/194/41 80/195/41 81/196/41
f 83/197/12 81/198/12 80/199/12 82/200/12
f 84/201/42 85/202/42 83/197/42 82/200/42
f 87/203/12 85/202/12 84/201/12 86/204/12
f 87/203/43 86/204/43 88/205/43 90/206/43
f 3/6/12 90/206/12 88/205/12 89/7/12
f 3/6/12 81/198/12 83/197/12 90/206/12
f 90/206/44 83/197/44 85/202/44 87/203/44
f 81/207/10 91/208/10 94/209/10 79/210/10
f 81/207/10 3/8/10 93/211/10 91/208/10
f 91/208/45 93/211/45 98/212/45 92/213/45
f 94/209/46 91/208/46 92/214/46 95/215/46
f 95/216/10 92/217/10 98/218/10 96/219/10
f 98/220/47 93/211/47 97/221/47 96/222/47
f 97/221/11 93/211/11 3/8/11 6/11/11
