# Blender 4.0.2
# www.blender.org
mtllib BrokenBlock5.mtl
o BrokenBlock5
v -188.148758 45.689728 -18.208586
v -187.868011 49.148655 -21.119825
v -188.413361 48.614143 -14.759521
v -198.628281 48.713047 -15.627048
v -188.132629 52.073071 -17.670761
v -202.717133 48.773579 -16.222866
v -197.544083 45.780693 -19.006508
v -197.808685 48.705112 -15.557444
v -198.977707 48.737370 -15.905286
v -187.346558 49.143604 -21.075541
v -187.627304 45.684677 -18.164301
v -187.611160 52.068020 -17.626474
v -187.891891 48.609093 -14.715234
v -198.269791 48.769310 -16.305607
v -198.063766 46.492165 -18.991278
v -188.636658 46.026516 -18.222118
v -197.054504 46.108017 -18.937027
v -188.385117 49.125580 -20.830479
v -196.802979 49.207081 -21.545385
v -188.622208 51.745747 -17.740244
v -188.873718 48.646679 -15.131886
v -197.291580 48.728180 -15.846796
v -189.612793 48.448997 -15.438027
v -196.515442 48.515831 -16.024250
v -196.315460 46.305698 -18.630886
v -189.412796 46.238861 -18.044662
v -189.374573 46.276340 -18.490553
v -196.277237 46.343170 -19.076778
v -196.065063 48.957260 -21.276949
v -189.162399 48.890423 -20.690725
v -189.161285 49.337933 -20.653023
v -196.063934 49.404762 -21.239248
v -189.361252 51.548065 -18.046383
v -189.399490 51.510593 -17.600491
v -196.302139 51.577427 -18.186718
v -196.514297 48.963333 -15.986547
v -189.611664 48.896503 -15.400320
v -190.029755 48.510777 -15.812989
v -196.040100 48.568966 -16.323437
v -189.855621 46.586349 -18.082664
v -195.865967 46.644543 -18.593105
v -189.822342 46.618980 -18.470915
v -195.832687 46.677170 -18.981359
v -189.637604 48.895142 -20.386667
v -195.647934 48.953331 -20.897110
v -189.636627 49.284801 -20.353836
v -195.646942 49.342991 -20.864281
v -189.810745 51.209221 -18.084164
v -195.821075 51.267410 -18.594610
v -189.844040 51.176594 -17.695908
v -195.854370 51.234783 -18.206356
v -190.028763 48.900433 -15.780159
v -196.039108 48.958622 -16.290602
v -199.406387 48.882500 -16.061226
v -202.265594 48.910183 -16.304056
v -199.407043 48.622532 -16.083130
v -202.266235 48.650215 -16.325956
v -199.493668 48.891270 -16.276722
v -202.143051 48.916920 -16.501728
v -199.494293 48.650383 -16.297018
v -202.143661 48.676033 -16.522024
v -198.118011 48.815323 -21.623566
v -197.845474 49.181534 -21.254810
v -198.443268 50.992722 -17.545757
v -198.098724 50.876999 -18.079561
v -198.514145 48.744118 -21.362778
v -202.684021 49.181637 -16.566319
v -198.814148 50.752560 -17.601391
v -199.269608 50.567677 -17.479572
v -199.367172 50.449894 -17.588556
v -196.899017 50.268497 -20.293545
v -197.158463 49.232212 -21.832924
v -197.269836 49.159630 -21.850428
v -198.969604 48.559235 -21.240957
v -199.089188 48.588856 -21.073887
v -197.595078 51.337025 -17.772623
v -197.072372 51.429073 -18.120029
v -196.256760 51.535824 -18.725868
v -196.113602 51.818279 -18.376472
v -196.216904 51.614441 -18.628618
v -196.522842 51.652149 -18.267008
v -196.243027 51.598518 -18.630817
v -202.228546 49.366528 -16.688137
v -202.108963 49.336899 -16.855207
v -198.279144 45.986916 -19.052204
v -198.311478 46.431839 -19.617481
v -198.377625 45.942822 -18.894257
v -198.675323 46.758457 -19.691523
v -202.638107 47.900158 -17.252979
v -202.568954 48.411327 -18.008947
v -198.749222 46.212135 -18.883558
v -199.181290 47.454094 -20.118805
v -199.049591 47.573681 -20.411457
v -199.206909 46.410809 -18.691648
v -202.180405 47.701492 -17.444885
v -199.605972 48.379082 -20.935665
v -199.303986 46.547180 -18.777544
v -202.059250 47.743145 -17.622280
vn 0.8855 -0.3392 -0.3176
vn 0.9170 -0.3964 0.0453
vn 0.9031 -0.4029 0.1485
vn 0.6996 -0.4925 -0.5177
vn 0.5355 -0.5688 -0.6242
vn 0.1382 -0.0835 0.9869
vn 0.8256 0.3226 0.4629
vn 0.4523 0.5525 0.7001
vn 0.8238 -0.3996 0.4021
vn 0.4849 -0.6484 0.5869
vn 0.6448 0.0626 -0.7618
vn 0.5773 0.8080 0.1174
vn 0.5057 -0.0737 0.8595
vn 0.5732 -0.8192 -0.0197
vn -0.2337 -0.6149 -0.7531
vn -0.3102 -0.5973 -0.7396
vn -0.9964 0.0096 -0.0846
vn -0.6244 -0.0640 0.7785
vn -0.4817 -0.6863 0.5449
vn -0.4785 0.5878 0.6523
vn -0.5312 0.8101 0.2482
vn -0.1742 0.7380 0.6519
vn -0.4306 0.6014 0.6730
vn -0.8544 0.3734 0.3613
vn 0.5932 -0.2733 -0.7573
vn 0.4873 0.6842 -0.5426
vn 0.6303 0.0636 -0.7737
vn -0.1272 0.7517 -0.6471
vn -0.3756 0.6925 -0.6160
vn -0.2489 -0.7481 0.6152
vn -0.4873 -0.6841 0.5427
vn 0.1027 -0.6454 -0.7569
vn 0.4841 -0.5861 -0.6497
vn -0.0355 -0.6418 -0.7660
vn -0.5551 -0.5088 -0.6580
vn -0.2635 -0.6086 -0.7485
vn -0.4160 -0.5928 -0.6896
vn -0.5096 -0.6149 -0.6018
vn -0.1307 -0.6322 -0.7637
vn -0.2454 0.6358 0.7318
vn -0.1553 -0.7593 0.6319
vn -0.7340 -0.5448 0.4056
vn -0.6470 -0.4596 -0.6084
vn -0.7314 0.4729 0.4914
vn -0.1518 0.6437 0.7501
vn -0.0583 0.6456 0.7614
vn -0.0382 0.8107 -0.5842
vn 0.1518 0.8088 -0.5681
vn 0.2759 0.9493 -0.1504
vn -0.2283 0.9542 -0.1933
vn -0.1612 -0.7046 0.6911
vn -0.1518 -0.8088 0.5681
vn -0.2759 -0.9493 0.1504
vn -0.3323 -0.3267 0.8848
vn -0.0320 -0.5780 -0.8154
vn 0.1580 -0.5798 -0.7993
vn 0.3310 -0.1757 -0.9271
vn -0.1732 -0.1708 -0.9700
vn 0.0382 -0.8107 0.5842
vn 0.2283 -0.9542 0.1932
vn 0.3756 -0.6925 0.6160
vn -0.4841 0.5861 0.6497
vn -0.1900 -0.6231 -0.7587
vn 0.3788 0.5778 0.7230
vn -0.0620 -0.7636 0.6427
vn 0.0288 -0.7064 0.7072
vn 0.0584 -0.6456 -0.7614
vn 0.1480 -0.7031 -0.6955
vn -0.0421 -0.7013 -0.7116
vn 0.0620 0.7636 -0.6427
vn 0.5088 0.6755 -0.5337
vn -0.0288 0.7064 -0.7072
vn 0.0842 0.2628 -0.9612
vn -0.0584 0.6456 0.7614
vn 0.0320 0.5780 0.8154
vn -0.1580 0.5798 0.7993
vn 0.0421 0.7013 0.7116
vn -0.1480 0.7031 0.6955
vn -0.2330 -0.9073 -0.3501
vn 0.1732 0.1708 0.9700
vn -0.3310 0.1757 0.9271
vn 0.1720 -0.3315 0.9276
vn -0.1720 0.3315 -0.9276
vn 0.2712 -0.9122 -0.3073
vn -0.2712 0.9122 0.3073
vn 0.3814 0.3946 -0.8359
vn 0.3323 0.3267 -0.8848
vn 0.2330 0.9073 0.3501
vn 0.0760 0.7356 0.6731
vn 0.5551 0.5088 0.6580
vn -0.1782 -0.8358 0.5193
vn -0.4226 -0.7070 0.5670
vn 0.0720 -0.8382 0.5405
vn 0.5767 -0.6008 0.5536
vn 0.0584 -0.6456 -0.7615
vn -0.5354 -0.8375 0.1093
vn -0.8564 -0.4244 0.2941
vn 0.0064 0.9993 0.0380
vn 0.0014 -0.9916 -0.1297
vn 0.7882 0.3576 0.5008
vn 0.7863 -0.4402 0.4336
vn -0.4366 0.7787 -0.4506
vn -0.5136 -0.6883 -0.5124
vt 0.569565 0.822828
vt 0.686317 0.823536
vt 0.699262 0.835660
vt 0.676434 0.840263
vt 0.572955 0.839631
vt 0.085067 0.937711
vt 0.068235 0.919719
vt 0.068235 0.828498
vt 0.085067 0.839037
vt 0.686317 0.705422
vt 0.704354 0.688742
vt 0.704354 0.832431
vt 0.150591 0.677271
vt 0.150591 0.828498
vt 0.000000 0.828498
vt 0.000000 0.677271
vt 0.743782 0.184446
vt 0.756461 0.176211
vt 0.756461 0.280426
vt 0.743782 0.271256
vt 0.563544 0.282735
vt 0.551915 0.229236
vt 0.581491 0.237570
vt 0.581491 0.282735
vt 0.097724 0.971761
vt 0.085067 0.965894
vt 0.085067 0.835299
vt 0.097724 0.828498
vt 0.112518 0.834365
vt 0.125174 0.828498
vt 0.125174 0.928171
vt 0.112518 0.922478
vt 0.267354 0.723748
vt 0.272502 0.719076
vt 0.272502 0.792761
vt 0.267354 0.791892
vt 0.623341 0.229236
vt 0.623341 0.291426
vt 0.613144 0.237494
vt 0.246610 0.282007
vt 0.246610 0.433201
vt 0.229067 0.425226
vt 0.229067 0.289753
vt 0.939776 0.792750
vt 0.939776 0.943977
vt 0.923075 0.936111
vt 0.923075 0.800616
vt 0.953160 0.290802
vt 0.956855 0.289096
vt 0.969358 0.295170
vt 0.969358 0.430665
vt 0.953160 0.438542
vt 0.792739 0.230502
vt 0.797898 0.227427
vt 0.797898 0.270517
vt 0.792739 0.280122
vt 0.899139 0.652312
vt 0.899139 0.501085
vt 0.916703 0.501085
vt 0.916703 0.652312
vt 0.263955 0.281942
vt 0.263955 0.433136
vt 0.934273 0.501085
vt 0.934273 0.652323
vt 0.916703 0.652323
vt 0.957346 0.792750
vt 0.957346 0.943977
vt 0.926134 0.151227
vt 0.926134 0.000000
vt 0.944201 0.016732
vt 0.944201 0.134495
vt 0.935017 0.421799
vt 0.935017 0.304220
vt 0.872533 0.252275
vt 0.872533 0.160120
vt 0.890600 0.143388
vt 0.890600 0.258468
vt 0.983263 0.501085
vt 0.983263 0.732282
vt 0.974454 0.717120
vt 0.974454 0.515812
vt 0.010668 0.025369
vt 0.125639 0.025369
vt 0.118206 0.040569
vt 0.018089 0.040569
vt 0.272601 0.281942
vt 0.272601 0.510167
vt 0.263955 0.494185
vt 0.263955 0.295468
vt 0.992073 0.732282
vt 0.992073 0.963442
vt 0.983263 0.948247
vt 0.983263 0.746971
vt 0.909903 0.143361
vt 0.909903 0.007866
vt 0.950973 0.508951
vt 0.950973 0.644457
vt 0.882400 0.644446
vt 0.882400 0.508951
vt 0.906831 0.151254
vt 0.906831 0.269355
vt 0.136306 0.000000
vt 0.136306 0.281942
vt 0.125639 0.256561
vt 0.549312 0.709167
vt 0.549312 0.844662
vt 0.523791 0.834058
vt 0.523791 0.719771
vt 0.000000 0.281942
vt 0.000000 0.000000
vt 0.010668 0.256561
vt 0.272612 0.585879
vt 0.272612 0.303976
vt 0.283280 0.329345
vt 0.283280 0.560510
vt 0.882400 0.501085
vt 0.882400 0.636591
vt 0.856878 0.625987
vt 0.856878 0.511689
vt 0.408918 0.303976
vt 0.408918 0.585879
vt 0.398251 0.560510
vt 0.398251 0.329345
vt 0.266819 0.570315
vt 0.266819 0.848638
vt 0.256151 0.823552
vt 0.256151 0.595326
vt 0.013411 0.949369
vt 0.013411 0.839189
vt 0.038604 0.828498
vt 0.038604 0.883376
vt 0.559979 0.734254
vt 0.559979 0.960926
vt 0.549312 0.956863
vt 0.203874 0.414709
vt 0.203874 0.300444
vt 0.272612 0.250912
vt 0.265136 0.264156
vt 0.261945 0.256561
vt 0.261945 0.025369
vt 0.272612 0.000000
vt 0.950201 0.279301
vt 0.924669 0.268697
vt 0.924669 0.154400
vt 0.932309 0.151227
vt 0.950202 0.161223
vt 0.146974 0.025369
vt 0.146974 0.256561
vt 0.833107 0.289096
vt 0.833107 0.490410
vt 0.732989 0.490410
vt 0.732989 0.289096
vt 0.150591 0.878546
vt 0.250709 0.677271
vt 0.250709 0.878546
vt 0.408918 0.907895
vt 0.408918 0.709167
vt 0.509014 0.709515
vt 0.509014 0.908243
vt 0.772416 0.201308
vt 0.772416 0.000000
vt 0.872533 0.000000
vt 0.872533 0.201308
vt 0.290701 0.545267
vt 0.390818 0.545267
vt 0.992073 0.501085
vt 0.992073 0.732277
vt 0.983263 0.717110
vt 0.983263 0.515807
vt 0.509014 0.826681
vt 0.509014 0.727159
vt 0.187599 0.407202
vt 0.187599 0.307702
vt 0.842145 0.618598
vt 0.842145 0.519077
vt 0.254512 0.040569
vt 0.154395 0.040569
vt 0.991191 0.048104
vt 0.991191 0.279301
vt 0.982381 0.264574
vt 0.982381 0.063266
vt 0.012777 0.953117
vt 0.000000 0.946305
vt 0.000000 0.846805
vt 0.982381 0.048104
vt 0.982381 0.279301
vt 0.973572 0.264574
vt 0.973572 0.063266
vt 0.909903 0.261309
vt 0.909903 0.161788
vt 1.000000 0.048962
vt 1.000000 0.278546
vt 0.991191 0.263857
vt 0.991191 0.062587
vt 0.999585 0.048104
vt 0.559979 0.937393
vt 0.559979 0.709167
vt 0.568942 0.722748
vt 0.568942 0.921476
vt 0.728950 0.192714
vt 0.728950 0.235804
vt 0.648627 0.286717
vt 0.722753 0.286717
vt 0.728950 0.301460
vt 0.640309 0.301460
vt 0.787143 0.201308
vt 0.801975 0.207480
vt 0.801975 0.227427
vt 0.787143 0.219148
vt 0.728950 0.176211
vt 0.722753 0.190954
vt 0.053436 0.959082
vt 0.038604 0.952922
vt 0.038604 0.838548
vt 0.053436 0.828498
vt 0.710810 0.688742
vt 0.710810 0.813991
vt 0.704613 0.799247
vt 0.704613 0.703485
vt 0.613144 0.278302
vt 0.598312 0.284462
vt 0.598312 0.239286
vt 0.613144 0.229236
vt 0.581491 0.238624
vt 0.598312 0.229236
vt 0.598312 0.278856
vt 0.237680 0.570315
vt 0.256151 0.570315
vt 0.256151 0.659048
vt 0.187599 0.659048
vt 0.923075 0.901518
vt 0.833811 0.901518
vt 0.833811 0.853267
vt 0.923075 0.792750
vt 0.267442 0.619869
vt 0.267442 0.511113
vt 0.272601 0.624541
vt 0.272601 0.719076
vt 0.267354 0.716349
vt 0.267354 0.628746
vt 0.256151 0.754799
vt 0.250992 0.751127
vt 0.250992 0.662405
vt 0.586639 0.282398
vt 0.586639 0.302150
vt 0.581491 0.297022
vt 0.581491 0.278856
vt 0.787143 0.280339
vt 0.787143 0.232099
vt 0.792739 0.227427
vt 0.792739 0.276493
vt 0.629204 0.115591
vt 0.634363 0.119165
vt 0.634363 0.135060
vt 0.640309 0.148185
vt 0.623390 0.159669
vt 0.640309 0.177792
vt 0.632352 0.195773
vt 0.632352 0.214960
vt 0.632352 0.229236
vt 0.621641 0.225292
vt 0.621291 0.224369
vt 0.617510 0.223771
vt 0.550947 0.199228
vt 0.489368 0.188211
vt 0.487554 0.184267
vt 0.504451 0.164710
vt 0.487554 0.154660
vt 0.493478 0.141025
vt 0.493478 0.125130
vt 0.498658 0.121121
vt 0.498658 0.103085
vt 0.580326 0.002292
vt 0.634363 0.000000
vt 0.634363 0.015895
vt 0.629204 0.019904
vt 0.905462 0.433685
vt 0.833107 0.343572
vt 0.872848 0.325189
vt 0.863033 0.321908
vt 0.898052 0.305698
vt 0.906752 0.292725
vt 0.930164 0.289096
vt 0.935017 0.291823
vt 0.929661 0.304698
vt 0.930273 0.319768
vt 0.925289 0.323527
vt 0.929093 0.414248
vt 0.934383 0.417681
vt 0.935017 0.432751
s 1
usemtl (null)
f 63/1/1 15/2/2 85/3/3 86/4/4 62/5/5
f 4/6/6 14/7/7 65/8/7 64/9/8
f 85/3/3 15/2/2 14/10/9 4/11/6 87/12/10
f 10/13/11 12/14/12 13/15/13 11/16/14
f 66/17/15 62/18/5 86/19/4 88/20/16
f 67/21/17 90/22/17 89/23/17 6/24/17
f 4/25/6 9/26/18 91/27/19 87/28/10
f 9/29/18 4/30/6 64/31/8 68/32/20
f 58/33/21 54/34/22 69/35/23 70/36/24
f 72/37/25 71/38/26 19/39/27
f 5/40/28 2/41/28 18/42/29 20/43/29
f 1/44/30 3/45/30 21/46/31 16/47/31
f 73/48/32 72/49/25 19/50/27 17/51/33 7/52/34
f 75/53/35 74/54/36 93/55/37 92/56/38
f 1/57/39 2/58/39 10/59/11 11/60/14
f 2/41/28 5/40/28 12/61/12 10/62/11
f 5/63/40 3/64/40 13/65/13 12/59/12
f 3/45/30 1/44/30 11/66/14 13/67/13
f 7/68/41 8/69/41 14/70/42 15/71/42
f 15/72/43 63/73/43 73/48/32 7/52/34
f 65/74/44 14/75/44 8/76/45 76/77/46
f 31/78/47 32/79/48 47/80/49 46/81/50
f 26/82/51 23/83/52 38/84/53 40/85/54
f 27/86/55 28/87/56 43/88/57 42/89/58
f 23/90/52 24/91/59 39/92/60 38/93/53
f 8/69/41 7/68/41 17/94/61 22/95/61
f 3/64/40 5/63/40 20/96/62 21/97/62
f 2/58/39 1/57/39 16/98/63 18/99/63
f 8/76/45 22/100/64 77/101/64 76/77/46
f 21/102/65 22/103/65 24/104/59 23/83/52
f 22/105/65 17/106/65 25/107/66 24/108/59
f 17/109/65 16/110/65 26/82/51 25/111/66
f 16/110/65 21/102/65 23/83/52 26/82/51
f 16/112/63 17/113/67 28/114/56 27/115/55
f 17/116/67 19/117/67 29/118/68 28/119/56
f 19/120/67 18/121/63 30/122/69 29/123/68
f 18/121/63 16/112/63 27/115/55 30/122/69
f 18/124/70 19/125/70 32/126/48 31/127/47
f 78/128/71 32/129/48 19/130/70 71/131/70
f 20/105/70 33/132/72 80/133/73 79/134/70
f 20/43/70 18/42/70 31/135/47 33/136/72
f 79/137/74 81/138/74 35/139/75 34/140/76 20/141/74
f 22/142/74 36/143/77 35/144/75 81/145/74 77/146/74
f 22/103/74 21/102/74 37/147/78 36/148/77
f 21/102/74 20/141/74 34/140/76 37/147/78
f 38/149/65 39/150/65 41/151/65 40/152/65
f 42/153/67 43/13/67 45/154/67 44/155/67
f 46/156/70 47/157/70 49/158/70 48/159/70
f 50/160/74 51/161/74 53/162/74 52/163/74
f 30/122/69 27/115/55 42/164/58 44/165/79
f 34/166/76 35/167/75 51/168/80 50/169/81
f 24/108/59 25/107/66 41/170/82 39/171/60
f 33/136/72 31/135/47 46/172/50 48/173/83
f 28/119/56 29/118/68 45/174/84 43/175/57
f 37/147/78 34/140/76 50/176/81 52/177/85
f 25/178/66 26/179/51 40/180/54 41/181/82
f 78/128/71 82/182/86 49/183/87 47/184/49 32/129/48
f 29/185/68 30/186/69 44/187/79 45/188/84
f 35/144/75 36/143/77 53/189/88 51/190/80
f 80/191/73 33/192/72 48/193/83 49/194/87 82/195/86
f 36/196/77 37/197/78 52/198/85 53/199/88
f 74/200/36 66/17/15 88/20/16 93/201/37
f 69/202/23 54/203/22 9/204/74 68/205/74
f 6/206/74 55/207/89 83/208/90 67/209/74
f 6/210/74 9/204/74 54/203/22 55/211/89
f 9/212/65 56/213/91 94/214/92 91/215/65
f 9/216/65 6/217/65 57/218/93 56/219/91
f 57/220/93 6/221/65 89/222/65 95/223/94
f 96/224/95 75/225/35 92/226/38
f 84/227/74 59/228/74 58/229/74 70/230/74
f 60/231/65 61/232/65 98/233/65 97/234/65
f 60/235/96 97/236/97 94/87/92 56/237/91
f 55/237/89 54/238/22 58/239/21 59/240/98
f 56/229/91 57/241/93 61/242/99 60/243/96
f 83/244/90 55/245/89 59/246/100 84/247/100
f 98/248/101 61/249/101 57/250/93 95/251/94
f 70/252/102 69/253/102 68/254/102 64/255/102 65/256/102 76/257/102 77/258/102 81/259/102 79/260/102 80/261/102 82/262/102 78/263/102 71/264/102 72/265/102 73/266/102 63/267/102 62/268/102 66/269/102 74/270/102 75/271/102 96/272/102 90/273/102 67/274/102 83/275/102 84/276/102
f 90/277/103 96/278/103 92/279/38 93/280/37 88/281/103 86/282/103 85/283/103 87/284/103 91/285/103 94/286/103 97/287/103 98/288/103 95/289/103 89/290/103
