# Blender 4.0.2
# www.blender.org
mtllib BrokenBlock7.mtl
o BrokenBlock7
v 2.093857 -1.888908 3.120510
v -3.000076 -1.888908 2.156602
v 3.057770 -1.888909 -1.973416
v -2.036163 -1.888909 -2.937321
v -3.000076 -2.487907 2.156602
v 2.093857 -2.487907 3.120510
v -2.036163 -2.487908 -2.937321
v 3.057770 -2.487908 -1.973416
v 1.879013 -1.327507 2.805389
v -2.684952 -1.327507 1.941762
v -1.821320 -1.327507 -2.622200
v 2.742645 -1.327507 -1.758573
v 2.675064 -0.457256 -1.401463
v 1.521896 -0.457256 2.737814
v -2.327835 -0.457256 2.009336
v -2.617371 -0.457256 1.584651
v -1.888901 -0.457256 -2.265090
v -1.464203 -0.457256 -2.554626
v 2.385529 -0.457256 -1.826148
v 2.332977 0.055241 -1.208453
v -2.023193 0.055241 1.761430
v -2.275299 0.055241 1.391641
v -1.640991 0.055240 -1.960439
v -1.271194 0.055240 -2.212545
v 2.080872 0.055241 -1.578242
v -2.617371 2.520775 1.584651
v -2.275299 2.362190 1.391641
v 1.988739 -0.457256 2.225514
v 2.109756 0.055241 -0.028726
v 1.521896 -0.305576 2.737814
v 1.426147 -0.202980 2.568087
v 2.675064 0.067264 -1.401463
v 2.332977 0.225849 -1.208453
v 2.742645 0.118908 -1.758574
v 1.879013 -0.541115 2.805389
v 1.943924 -0.491504 2.462330
v -2.684952 2.469128 1.941761
v -2.327835 2.233593 2.009336
v -1.888901 3.077511 -2.265090
v -1.821320 3.129150 -2.622201
v -1.464203 2.893612 -2.554627
v 2.385529 0.354446 -1.826148
v 1.095352 0.055241 2.351542
v -2.023193 2.112129 1.761429
v -1.640991 2.846954 -1.960439
v -1.271194 2.686828 -2.212546
v 2.080872 0.475906 -1.578242
vn -0.0000 -1.0000 -0.0000
vn -0.8857 0.4330 -0.1676
vn 0.8857 0.4330 0.1676
vn -0.1859 -0.0000 0.9826
vn -0.9826 -0.0000 -0.1859
vn 0.1859 -0.0000 -0.9826
vn 0.9826 -0.0000 0.1859
vn -0.4914 -0.0000 -0.8709
vn 0.8478 0.5055 0.1604
vn -0.8710 -0.0000 0.4913
vn 0.4914 -0.0000 0.8709
vn 0.1676 0.4330 -0.8857
vn -0.1676 0.4330 0.8857
vn -0.1604 0.5055 0.8478
vn 0.8709 -0.0000 -0.4914
vn -0.8478 0.5054 -0.1604
vn 0.1604 0.5055 -0.8478
vn 0.6312 -0.0000 0.7756
vn -0.7756 -0.0000 0.6312
vn -0.6312 -0.0000 -0.7756
vn 0.5086 0.8333 0.2167
vt 0.500529 0.263116
vt 0.237412 0.263116
vt 0.237412 0.000000
vt 0.500529 0.000000
vt 0.937517 0.670871
vt 0.937517 0.407756
vt 0.969127 0.421443
vt 0.969127 0.657184
vt 0.740094 0.000000
vt 0.740094 0.263116
vt 0.708485 0.249429
vt 0.708485 0.013687
vt 0.969599 0.263116
vt 0.969600 0.000000
vt 1.000000 0.000000
vt 1.000000 0.263116
vt 0.907117 0.670871
vt 0.907117 0.407756
vt 0.906380 0.000000
vt 0.906380 0.263116
vt 0.875980 0.263116
vt 0.875980 0.000000
vt 0.770495 0.000000
vt 0.770495 0.263116
vt 0.393421 0.460479
vt 0.419431 0.480413
vt 0.268289 0.480413
vt 0.276337 0.460479
vt 0.426434 0.948521
vt 0.396289 0.935668
vt 0.396289 0.874732
vt 0.426434 0.761177
vt 0.228473 0.714590
vt 0.225353 0.730547
vt 0.221930 0.723652
vt 0.599757 0.840015
vt 0.599757 0.831357
vt 0.619691 0.805346
vt 0.619691 0.831967
vt 0.937990 0.013687
vt 0.937990 0.249429
vt 0.638137 0.761179
vt 0.638137 0.834588
vt 0.687445 0.474963
vt 0.702826 0.438135
vt 0.702826 0.484115
vt 0.666056 0.031407
vt 0.664317 0.230983
vt 0.664318 0.043639
vt 0.228473 0.778309
vt 0.210724 0.742562
vt 0.463598 0.498859
vt 0.507765 0.480413
vt 0.644332 0.480413
vt 0.656286 0.498859
vt 0.463598 0.263116
vt 0.507765 0.281562
vt 0.270910 0.498859
vt 0.463598 0.263117
vt 0.419431 0.281562
vt 0.240033 0.281562
vt 0.214232 0.317582
vt 0.044167 0.317582
vt 0.000000 0.299136
vt 0.226186 0.299136
vt 0.073409 0.534878
vt 0.000000 0.534878
vt 0.044167 0.516432
vt 0.085363 0.516432
vt 0.387631 0.935668
vt 0.819513 0.614098
vt 0.907117 0.478921
vt 0.389286 0.294415
vt 0.389286 0.467560
vt 0.272203 0.467560
vt 0.247600 0.294415
vt 0.091527 0.496498
vt 0.070178 0.496498
vt 0.070178 0.323354
vt 0.203737 0.323354
vt 0.537910 0.467560
vt 0.522722 0.287939
vt 0.537910 0.306478
vt 0.203737 0.337516
vt 0.070178 0.337516
vt 0.074312 0.330435
vt 0.074312 0.503579
vt 0.533776 0.460479
vt 0.638168 0.460479
vt 0.393421 0.301497
vt 0.251734 0.301497
vt 0.237412 0.299136
vt 0.218836 0.297711
vt 0.205892 0.278560
vt 0.031520 0.265180
vt 0.018577 0.282344
vt 0.000000 0.280918
vt 0.000000 0.258938
vt 0.015345 0.244799
vt 0.015345 0.052849
vt 0.007614 0.030164
vt 0.000000 0.021981
vt 0.000000 0.000000
vt 0.017846 0.001369
vt 0.030164 0.002315
vt 0.144524 0.029247
vt 0.205892 0.033956
vt 0.218836 0.016792
vt 0.237412 0.018218
vt 0.237412 0.040198
vt 0.222067 0.054337
vt 0.222067 0.260662
vt 0.237412 0.277155
s 0
usemtl (null)
f 5/1/1 7/2/1 8/3/1 6/4/1
f 4/5/2 2/6/2 10/7/2 11/8/2
f 1/9/3 3/10/3 12/11/3 9/12/3
f 1/13/4 2/14/4 5/15/4 6/16/4
f 2/6/5 4/5/5 7/17/5 5/18/5
f 4/19/6 3/20/6 8/21/6 7/22/6
f 3/10/7 1/9/7 6/23/7 8/24/7
f 22/25/8 16/26/8 26/27/8 27/28/8
f 13/29/9 20/30/9 29/31/9 28/32/9
f 31/33/10 14/34/10 30/35/10
f 33/36/11 20/37/11 13/38/11 32/39/11
f 3/20/12 4/19/12 11/40/12 12/41/12
f 2/14/13 1/13/13 9/41/13 10/40/13
f 32/39/7 13/38/7 12/42/7 34/43/7
f 35/44/7 9/45/7 36/46/7
f 36/47/7 9/12/7 12/11/7 13/48/7 28/49/7
f 14/34/4 9/50/4 35/51/4 30/35/4
f 10/52/4 15/53/4 38/54/4 37/55/4
f 10/52/4 9/56/4 14/57/4 15/53/4
f 16/26/5 10/52/5 37/58/5 26/27/5
f 11/59/5 17/60/5 39/61/5 40/2/5
f 11/59/5 10/52/5 16/26/5 17/60/5
f 41/62/6 18/63/6 11/64/6 40/65/6
f 34/66/6 12/67/6 19/68/6 42/69/6
f 12/67/6 11/64/6 18/63/6 19/68/6
f 20/30/7 33/70/7 29/31/7
f 21/71/4 43/72/4 44/17/4
f 23/73/5 22/74/5 27/75/5 45/76/5
f 47/77/6 25/78/6 24/79/6 46/80/6
f 21/81/14 15/53/14 14/57/14 31/82/14 43/83/14
f 46/84/15 24/85/15 18/63/15 41/62/15
f 17/60/16 16/26/16 22/74/16 23/73/16
f 19/68/17 18/63/17 24/86/17 25/87/17
f 38/54/18 15/53/18 21/88/18 44/89/18
f 17/60/19 23/90/19 45/91/19 39/61/19
f 19/68/20 25/78/20 47/77/20 42/69/20
f 40/92/21 39/93/21 45/94/21 27/95/21 26/96/21 37/97/21 38/98/21 44/99/21 43/100/21 31/101/21 30/102/21 35/103/21 36/104/21 28/105/21 29/106/21 33/107/21 32/108/21 34/109/21 42/110/21 47/111/21 46/112/21 41/113/21
