# Blender 4.0.2
# www.blender.org
mtllib BrokenBlock2.mtl
o BrokenBlock2
v -179.157196 47.127079 -15.041482
v -183.586105 47.127079 -15.124107
v -179.074570 47.127079 -19.470381
v -183.503479 47.127079 -19.553003
v -183.586105 46.615280 -15.124107
v -179.157196 46.615280 -15.041482
v -183.503479 46.615280 -19.553003
v -179.074570 46.615280 -19.470381
v -179.383286 47.606766 -15.276166
v -183.351410 47.606766 -15.350197
v -183.277390 47.606766 -19.318319
v -179.309265 47.606766 -19.244289
v -179.315063 48.350338 -18.933802
v -179.693771 48.350338 -15.281958
v -183.040924 48.350338 -15.344405
v -183.345612 48.350338 -15.660686
v -183.283173 48.350338 -19.007832
v -182.966904 48.350338 -19.312527
v -179.619751 48.350338 -19.250082
v -179.575562 48.788231 -18.722240
v -182.819794 48.788231 -15.596848
v -183.085098 48.788231 -15.872247
v -183.030731 48.788231 -18.786701
v -182.755341 48.788231 -19.052010
v -179.840881 48.788231 -18.997637
v -183.345612 50.894875 -15.660686
v -183.085098 50.759373 -15.872247
v -179.373886 48.350338 -15.780335
v -179.594696 48.788231 -17.696531
v -179.693771 48.479939 -15.281958
v -179.798752 48.567600 -15.411216
v -179.315063 48.798504 -18.933802
v -179.575562 48.934006 -18.722240
v -179.309265 48.842632 -19.244289
v -179.383286 48.278687 -15.276166
v -179.377731 48.321075 -15.574436
v -183.351410 50.850742 -15.350197
v -183.040924 50.649494 -15.344405
v -183.283173 51.370564 -19.007832
v -183.277390 51.414692 -19.318319
v -182.966904 51.213440 -19.312527
v -179.619751 49.043884 -19.250082
v -180.108383 48.788231 -15.546264
v -182.819794 50.545712 -15.596848
v -183.030731 51.173573 -18.786701
v -182.755341 51.036755 -19.052010
v -179.840881 49.147667 -18.997637
vn -0.0000 -1.0000 -0.0000
vn -0.9012 0.4330 -0.0168
vn 0.9012 0.4330 0.0168
vn -0.0187 -0.0000 0.9998
vn -0.9998 -0.0000 -0.0187
vn 0.0187 -0.0000 -0.9998
vn 0.9998 -0.0000 0.0187
vn -0.6304 -0.0000 -0.7763
vn 0.8627 0.5054 0.0161
vn -0.7762 -0.0000 0.6304
vn 0.6304 -0.0000 0.7763
vn 0.0168 0.4330 -0.9012
vn -0.0168 0.4330 0.9012
vn 0.9998 -0.0000 0.0186
vn -0.9998 -0.0000 -0.0186
vn -0.0161 0.5055 0.8627
vn 0.7763 -0.0000 -0.6304
vn -0.8627 0.5055 -0.0161
vn 0.0161 0.5055 -0.8627
vn 0.7522 -0.0000 0.6589
vn -0.6589 -0.0000 0.7522
vn -0.7522 -0.0000 -0.6589
vn 0.5377 0.8333 0.1285
vt 0.500529 0.263116
vt 0.237412 0.263116
vt 0.237412 0.000000
vt 0.500529 0.000000
vt 0.937517 0.670871
vt 0.937517 0.407756
vt 0.969127 0.421443
vt 0.969127 0.657184
vt 0.740094 0.000000
vt 0.740094 0.263116
vt 0.708485 0.249429
vt 0.708485 0.013687
vt 0.969599 0.263116
vt 0.969600 0.000000
vt 1.000000 0.000000
vt 1.000000 0.263116
vt 0.907117 0.670871
vt 0.907117 0.407756
vt 0.906380 0.000000
vt 0.906380 0.263116
vt 0.875980 0.263116
vt 0.875980 0.000000
vt 0.770495 0.000000
vt 0.770495 0.263116
vt 0.393421 0.460479
vt 0.419431 0.480413
vt 0.268289 0.480413
vt 0.276337 0.460479
vt 0.426434 0.948521
vt 0.396289 0.935668
vt 0.396289 0.874732
vt 0.426434 0.761177
vt 0.228473 0.714590
vt 0.225353 0.730547
vt 0.221930 0.723652
vt 0.599757 0.840015
vt 0.599757 0.831357
vt 0.619691 0.805346
vt 0.619691 0.831967
vt 0.937990 0.013687
vt 0.937990 0.249429
vt 0.638137 0.761179
vt 0.638137 0.834588
vt 0.687445 0.474963
vt 0.702826 0.438135
vt 0.702826 0.484115
vt 0.666056 0.031407
vt 0.664317 0.230983
vt 0.664318 0.043639
vt 0.228473 0.778309
vt 0.210724 0.742562
vt 0.463598 0.498859
vt 0.507765 0.480413
vt 0.644332 0.480413
vt 0.656286 0.498859
vt 0.463598 0.263116
vt 0.507765 0.281562
vt 0.270910 0.498859
vt 0.463598 0.263117
vt 0.419431 0.281562
vt 0.240033 0.281562
vt 0.214232 0.317582
vt 0.044167 0.317582
vt 0.000000 0.299136
vt 0.226186 0.299136
vt 0.073409 0.534878
vt 0.000000 0.534878
vt 0.044167 0.516432
vt 0.085363 0.516432
vt 0.387631 0.935668
vt 0.819513 0.614098
vt 0.907117 0.478921
vt 0.389286 0.294415
vt 0.389286 0.467560
vt 0.272203 0.467560
vt 0.247600 0.294415
vt 0.091527 0.496498
vt 0.070178 0.496498
vt 0.070178 0.323354
vt 0.203737 0.323354
vt 0.537910 0.467560
vt 0.522722 0.287939
vt 0.537910 0.306478
vt 0.203737 0.337516
vt 0.070178 0.337516
vt 0.074312 0.330435
vt 0.074312 0.503579
vt 0.533776 0.460479
vt 0.638168 0.460479
vt 0.393421 0.301497
vt 0.251734 0.301497
vt 0.237412 0.299136
vt 0.218836 0.297711
vt 0.205892 0.278560
vt 0.031520 0.265180
vt 0.018577 0.282344
vt 0.000000 0.280918
vt 0.000000 0.258938
vt 0.015345 0.244799
vt 0.015345 0.052849
vt 0.007614 0.030164
vt 0.000000 0.021981
vt 0.000000 0.000000
vt 0.017846 0.001369
vt 0.030164 0.002315
vt 0.144524 0.029247
vt 0.205892 0.033956
vt 0.218836 0.016792
vt 0.237412 0.018218
vt 0.237412 0.040198
vt 0.222067 0.054337
vt 0.222067 0.260662
vt 0.237412 0.277155
s 0
usemtl (null)
f 5/1/1 7/2/1 8/3/1 6/4/1
f 4/5/2 2/6/2 10/7/2 11/8/2
f 1/9/3 3/10/3 12/11/3 9/12/3
f 1/13/4 2/14/4 5/15/4 6/16/4
f 2/6/5 4/5/5 7/17/5 5/18/5
f 4/19/6 3/20/6 8/21/6 7/22/6
f 3/10/7 1/9/7 6/23/7 8/24/7
f 22/25/8 16/26/8 26/27/8 27/28/8
f 13/29/9 20/30/9 29/31/9 28/32/9
f 31/33/10 14/34/10 30/35/10
f 33/36/11 20/37/11 13/38/11 32/39/11
f 3/20/12 4/19/12 11/40/12 12/41/12
f 2/14/13 1/13/13 9/41/13 10/40/13
f 32/39/7 13/38/7 12/42/7 34/43/7
f 35/44/14 9/45/14 36/46/14
f 36/47/7 9/12/7 12/11/7 13/48/7 28/49/7
f 14/34/4 9/50/4 35/51/4 30/35/4
f 10/52/4 15/53/4 38/54/4 37/55/4
f 10/52/4 9/56/4 14/57/4 15/53/4
f 16/26/5 10/52/5 37/58/5 26/27/5
f 11/59/15 17/60/15 39/61/15 40/2/15
f 11/59/5 10/52/5 16/26/5 17/60/5
f 41/62/6 18/63/6 11/64/6 40/65/6
f 34/66/6 12/67/6 19/68/6 42/69/6
f 12/67/6 11/64/6 18/63/6 19/68/6
f 20/30/7 33/70/7 29/31/7
f 21/71/4 43/72/4 44/17/4
f 23/73/5 22/74/5 27/75/5 45/76/5
f 47/77/6 25/78/6 24/79/6 46/80/6
f 21/81/16 15/53/16 14/57/16 31/82/16 43/83/16
f 46/84/17 24/85/17 18/63/17 41/62/17
f 17/60/18 16/26/18 22/74/18 23/73/18
f 19/68/19 18/63/19 24/86/19 25/87/19
f 38/54/20 15/53/20 21/88/20 44/89/20
f 17/60/21 23/90/21 45/91/21 39/61/21
f 19/68/22 25/78/22 47/77/22 42/69/22
f 40/92/23 39/93/23 45/94/23 27/95/23 26/96/23 37/97/23 38/98/23 44/99/23 43/100/23 31/101/23 30/102/23 35/103/23 36/104/23 28/105/23 29/106/23 33/107/23 32/108/23 34/109/23 42/110/23 47/111/23 46/112/23 41/113/23
