# Blender 4.0.2
# www.blender.org
mtllib CircleBlock13.mtl
o CircleBlock13
v -274.419037 46.365395 -3.029661
v -274.969086 46.365395 -2.460077
v -274.419037 50.181492 -3.029661
v -277.476257 46.365387 -6.195491
v -273.937592 46.365395 -3.463158
v -273.937592 50.181492 -3.463157
v -276.808044 46.365387 -6.797163
v -277.620819 46.881256 -7.741216
v -278.341919 46.881256 -7.091922
v -277.957489 48.126682 -8.132254
v -278.700500 48.126682 -7.463236
v -277.957489 50.181480 -8.132254
v -278.700500 50.181480 -7.463236
v -277.957489 53.997574 -8.132254
v -278.700500 53.997574 -7.463236
v -275.810638 53.997578 -5.638679
v -276.413940 53.997578 -5.095444
v -275.352692 53.706909 -5.106750
v -274.120758 51.805157 -3.675910
v -275.924744 53.706039 -4.588831
v -274.616302 51.812717 -3.233936
v -276.578735 53.705406 -3.909395
v -275.181824 51.818211 -2.651617
v -277.184021 53.704956 -3.186356
v -277.103241 53.997578 -4.381670
v -277.741058 53.997578 -3.621556
v -279.549377 53.997574 -6.584192
v -280.334869 53.997570 -5.648077
v -279.549377 50.181480 -6.584192
v -280.334869 50.181480 -5.648077
v -279.549377 48.126682 -6.584192
v -279.165771 46.881256 -6.238795
v -280.334869 48.126682 -5.648077
v -279.928101 46.881256 -5.330281
v -281.053162 48.126682 -4.659449
v -280.625214 46.881256 -4.370800
v -281.700745 48.126682 -3.623122
v -281.053162 50.181480 -4.659448
v -281.053162 53.997574 -4.659449
v -281.700745 50.181480 -3.623122
v -281.700745 53.997574 -3.623122
v -282.274414 50.181480 -2.544147
v -282.274414 53.997570 -2.544147
v -282.771454 50.181480 -1.427790
v -282.274414 48.126682 -2.544147
v -281.810486 46.881256 -2.317866
v -282.771454 48.126682 -1.427790
v -282.292877 46.881256 -1.234422
v -283.189392 48.126682 -0.279471
v -282.698486 46.881256 -0.119960
v -283.526245 48.126682 0.895204
v -283.189392 50.181480 -0.279471
v -283.189392 53.997570 -0.279471
v -283.526245 50.181480 0.895204
v -283.526245 53.997570 0.895204
v -283.780304 50.181480 2.090514
v -283.780304 53.997570 2.090514
v -283.950409 50.181480 3.300636
v -283.780304 48.126682 2.090514
v -283.271973 46.881256 2.180149
v -283.950409 48.126682 3.300636
v -283.437042 46.881256 3.354591
v -282.197662 46.365387 3.484853
v -282.044739 46.365387 2.396547
v -277.820770 46.365395 3.944884
v -277.710541 46.365395 3.160776
v -277.820770 50.181488 3.944884
v -277.710541 50.181488 3.160776
v -277.820770 51.127556 3.944884
v -277.710541 51.127556 3.160776
v -278.102783 51.811771 3.915241
v -279.976562 53.706112 3.718300
v -277.992188 51.817532 3.111117
v -279.843750 53.705456 2.784636
v -277.825043 51.821602 2.316673
v -279.646606 53.704994 1.862507
v -277.602325 51.824318 1.535884
v -277.545929 51.127556 2.386264
v -277.327667 51.127556 1.625123
v -277.545929 50.181488 2.386264
v -277.545929 46.365395 2.386264
v -277.327667 50.181488 1.625123
v -277.327667 46.365395 1.625123
v -277.056885 50.181488 0.881059
v -277.056885 46.365395 0.881059
v -276.734802 50.181488 0.157706
v -277.056885 51.127556 0.881059
v -276.734802 51.127556 0.157706
v -277.325226 51.825890 0.772634
v -279.063110 53.704506 0.070480
v -276.995148 51.826447 0.030724
v -278.679504 53.704449 -0.790782
v -276.613770 51.826031 -0.686172
v -278.236969 53.704498 -1.623317
v -276.182983 51.824612 -1.374475
v -276.363068 51.127556 -0.541425
v -275.943481 51.127556 -1.212922
v -276.363068 50.181488 -0.541425
v -276.363068 46.365395 -0.541425
v -275.943481 50.181488 -1.212922
v -275.943481 46.365395 -1.212922
v -275.478058 50.181488 -1.853513
v -275.478058 46.365395 -1.853513
v -274.969086 50.181488 -2.460077
v -275.478058 51.127556 -1.853513
v -274.969086 51.127556 -2.460077
v -275.704865 51.822071 -2.030733
v -274.419037 51.127556 -3.029661
v -273.937592 51.127556 -3.463157
v -278.946106 46.365387 -4.563053
v -278.239685 46.365387 -5.404934
v -279.592102 46.365387 -3.673942
v -280.174469 46.365387 -2.741935
v -281.253693 46.881256 -3.365028
v -280.690430 46.365387 -1.771574
v -281.137421 46.365387 -0.767593
v -276.734802 46.365395 0.157706
v -281.513306 46.365387 0.265132
v -281.816223 46.365387 1.321561
v -283.025391 46.881256 1.020081
v -277.737671 53.704662 -2.423118
v -278.324280 53.997578 -2.818798
v -278.850098 53.997578 -1.977312
v -279.315948 53.997578 -1.101197
v -279.719513 53.997578 -0.194728
v -280.058899 53.997574 0.737695
v -282.771454 53.997570 -1.427790
v -280.332397 53.997574 1.691519
v -279.385986 53.704685 0.956335
v -280.538696 53.997574 2.662097
v -280.676819 53.997574 3.644703
v -283.950409 53.997570 3.300636
vn 0.7431 -0.0000 0.6691
vn 0.6947 -0.0000 0.7193
vn -0.1383 -0.9800 -0.1433
vn -0.0000 -1.0000 -0.0000
vn -0.1480 -0.9800 -0.1333
vn 0.6691 -0.0000 0.7431
vn -0.1323 -0.9803 -0.1470
vn 0.7578 -0.0000 -0.6525
vn -0.2657 -0.9240 -0.2751
vn -0.2561 -0.9239 -0.2844
vn -0.6814 -0.1944 -0.7056
vn -0.6563 -0.1946 -0.7289
vn -0.6182 -0.3827 -0.6866
vn -0.6417 -0.3829 -0.6645
vn -0.6947 -0.0000 -0.7193
vn -0.6691 -0.0000 -0.7431
vn -0.0000 1.0000 -0.0000
vn 0.1326 0.9816 0.1373
vn 0.1288 0.9813 0.1430
vn 0.3854 0.8328 0.3975
vn 0.3722 0.8320 0.4113
vn 0.5779 0.5568 0.5967
vn 0.5580 0.5542 0.6176
vn 0.4117 0.8330 0.3697
vn 0.6177 0.5569 0.5552
vn 0.1418 0.9816 0.1277
vn 0.4362 0.8331 0.3402
vn 0.6547 0.5571 0.5109
vn 0.1504 0.9816 0.1175
vn -0.7431 -0.0000 -0.6691
vn -0.7880 -0.0000 -0.6157
vn -0.7290 -0.1944 -0.6564
vn -0.7730 -0.1944 -0.6039
vn -0.6865 -0.3829 -0.6181
vn -0.7280 -0.3829 -0.5687
vn -0.8132 -0.1944 -0.5485
vn -0.7659 -0.3829 -0.5166
vn -0.8290 -0.0000 -0.5592
vn -0.8495 -0.1944 -0.4905
vn -0.8000 -0.3829 -0.4619
vn -0.8660 -0.0000 -0.5000
vn -0.8988 -0.0000 -0.4384
vn -0.8817 -0.1944 -0.4300
vn -0.9272 -0.0000 -0.3746
vn -0.9095 -0.1944 -0.3675
vn -0.8303 -0.3829 -0.4050
vn -0.8565 -0.3829 -0.3461
vn -0.9329 -0.1944 -0.3031
vn -0.8786 -0.3829 -0.2855
vn -0.9511 -0.0000 -0.3090
vn -0.9518 -0.1944 -0.2373
vn -0.8964 -0.3829 -0.2235
vn -0.9703 -0.0000 -0.2419
vn -0.9848 -0.0000 -0.1737
vn -0.9660 -0.1944 -0.1703
vn -0.9903 -0.0000 -0.1392
vn -0.9714 -0.1943 -0.1365
vn -0.9098 -0.3829 -0.1604
vn -0.9149 -0.3827 -0.1286
vn -0.1045 -0.0000 0.9945
vn -0.3790 -0.9239 -0.0533
vn -0.3767 -0.9240 -0.0664
vn -0.1961 -0.9800 -0.0346
vn -0.1973 -0.9799 -0.0277
vn 0.9903 -0.0000 0.1392
vn 0.9848 -0.0000 0.1736
vn 0.9657 0.1960 0.1703
vn 0.9711 0.1959 0.1365
vn 0.8178 0.5569 0.1450
vn 0.8232 0.5557 0.1166
vn 0.5448 0.8329 0.0968
vn 0.5480 0.8329 0.0779
vn 0.5366 0.8331 0.1343
vn 0.8057 0.5571 0.2014
vn 0.9515 0.1960 0.2372
vn 0.5259 0.8332 0.1712
vn 0.7896 0.5572 0.2569
vn 0.9326 0.1960 0.3030
vn 0.9703 -0.0000 0.2419
vn 0.9511 -0.0000 0.3090
vn 0.9272 -0.0000 0.3746
vn 0.9092 0.1960 0.3673
vn 0.8988 -0.0000 0.4384
vn 0.8814 0.1960 0.4299
vn 0.7463 0.5573 0.3640
vn 0.7698 0.5573 0.3112
vn 0.4970 0.8332 0.2424
vn 0.5126 0.8332 0.2073
vn 0.4789 0.8332 0.2764
vn 0.7192 0.5572 0.4150
vn 0.8492 0.1960 0.4903
vn 0.4586 0.8332 0.3090
vn 0.6886 0.5572 0.4641
vn 0.8130 0.1960 0.5483
vn 0.8660 -0.0000 0.5000
vn 0.8290 -0.0000 0.5592
vn 0.7880 -0.0000 0.6157
vn 0.7727 0.1960 0.6037
vn 0.7287 0.1960 0.6562
vn 0.6812 0.1960 0.7054
vn 0.6562 0.1956 0.7288
vn -0.1569 -0.9800 -0.1226
vn -0.1651 -0.9800 -0.1114
vn -0.3014 -0.9240 -0.2355
vn -0.2842 -0.9240 -0.2559
vn -0.3171 -0.9240 -0.2139
vn -0.3312 -0.9240 -0.1912
vn -0.1725 -0.9800 -0.0996
vn -0.3438 -0.9240 -0.1677
vn -0.1790 -0.9800 -0.0873
vn -0.3546 -0.9240 -0.1433
vn -0.1846 -0.9800 -0.0746
vn -0.3638 -0.9240 -0.1182
vn -0.1894 -0.9800 -0.0615
vn -0.3711 -0.9240 -0.0925
vn -0.1932 -0.9800 -0.0482
vn 0.1582 0.9816 0.1067
vn 0.1653 0.9816 0.0954
vn 0.1715 0.9816 0.0836
vn 0.1769 0.9816 0.0715
vn 0.1815 0.9816 0.0590
vn 0.1851 0.9816 0.0462
vn 0.1879 0.9816 0.0331
vn 0.1891 0.9816 0.0266
vt 0.464050 0.817106
vt 0.452415 0.815502
vt 0.452415 0.734188
vt 0.464050 0.735792
vt 0.637642 0.305079
vt 0.726059 0.335842
vt 0.721344 0.352073
vt 0.631096 0.327606
vt 0.442211 0.814280
vt 0.442211 0.732965
vt 0.644257 0.287087
vt 0.730820 0.322879
vt 0.834538 0.874604
vt 0.775572 0.875144
vt 0.762993 0.869014
vt 0.729158 0.828462
vt 0.724127 0.813950
vt 0.724127 0.793622
vt 0.724127 0.711629
vt 0.802967 0.710907
vt 0.825291 0.721786
vt 0.834538 0.748461
vt 0.834538 0.792611
vt 0.614525 0.295607
vt 0.621658 0.276191
vt 0.955223 0.670864
vt 0.970581 0.669678
vt 0.976814 0.697601
vt 0.961906 0.698753
vt 0.957405 0.627136
vt 0.972763 0.625946
vt 0.961456 0.545921
vt 0.976814 0.544735
vt 0.497032 0.276192
vt 0.489731 0.256271
vt 0.555458 0.232872
vt 0.561386 0.249050
vt 0.570808 0.228432
vt 0.576393 0.243824
vt 0.616737 0.218727
vt 0.621681 0.231949
vt 0.565269 0.209167
vt 0.611877 0.202156
vt 0.549599 0.212608
vt 0.561066 0.189533
vt 0.608185 0.185257
vt 0.545151 0.191952
vt 0.482513 0.231316
vt 0.477036 0.205875
vt 0.071682 0.710352
vt 0.070935 0.691059
vt 0.152586 0.694225
vt 0.153334 0.713518
vt 0.070349 0.670572
vt 0.152001 0.673738
vt 0.026969 0.689354
vt 0.026383 0.668867
vt 0.027717 0.708648
vt 0.937775 0.672546
vt 0.944977 0.700386
vt 0.001304 0.681098
vt 0.000735 0.661215
vt 0.025963 0.647286
vt 0.000328 0.640271
vt 0.069929 0.648992
vt 0.025710 0.624718
vt 0.000082 0.618367
vt 0.069676 0.626422
vt 0.151580 0.652158
vt 0.151328 0.629588
vt 0.069592 0.602974
vt 0.151243 0.606140
vt 0.025626 0.601270
vt 0.069676 0.578762
vt 0.151328 0.581928
vt 0.025710 0.577058
vt 0.000000 0.595611
vt 0.000082 0.572112
vt 0.025963 0.552198
vt 0.000328 0.547986
vt 0.069929 0.553904
vt 0.026383 0.526814
vt 0.000735 0.523351
vt 0.070349 0.528520
vt 0.151580 0.557070
vt 0.152001 0.531685
vt 0.070935 0.502734
vt 0.152586 0.505899
vt 0.026969 0.501029
vt 0.071682 0.476672
vt 0.153334 0.479837
vt 0.027717 0.474967
vt 0.001304 0.498325
vt 0.002030 0.473032
vt 0.753586 0.081314
vt 0.753586 0.101473
vt 0.747520 0.116123
vt 0.707199 0.156957
vt 0.692123 0.163343
vt 0.621681 0.164162
vt 0.621681 0.082848
vt 0.621681 0.039064
vt 0.632729 0.012398
vt 0.659401 0.001095
vt 0.753586 0.000000
vt 0.621658 0.544734
vt 0.613213 0.520690
vt 0.636429 0.513655
vt 0.644257 0.535934
vt 0.725182 0.486117
vt 0.730820 0.502171
vt 0.177340 0.991917
vt 0.177264 0.975500
vt 0.259254 0.974812
vt 0.259330 0.991228
vt 0.692471 0.845985
vt 0.692394 0.829569
vt 0.712721 0.829399
vt 0.712797 0.845816
vt 0.943110 0.121796
vt 0.943022 0.105379
vt 0.957748 0.103424
vt 0.957716 0.120266
vt 0.569885 0.049793
vt 0.576530 0.030651
vt 0.621681 0.048523
vt 0.615860 0.064960
vt 0.564545 0.069328
vt 0.611191 0.081753
vt 0.942951 0.089315
vt 0.957764 0.086939
vt 0.560539 0.089165
vt 0.607697 0.098824
vt 0.942900 0.073681
vt 0.957769 0.070898
vt 0.692337 0.813505
vt 0.692299 0.797869
vt 0.712626 0.797699
vt 0.712664 0.813334
vt 0.177206 0.959435
vt 0.259197 0.958746
vt 0.177168 0.943800
vt 0.259158 0.943111
vt 0.177149 0.928671
vt 0.259139 0.927982
vt 0.692280 0.782742
vt 0.712606 0.782570
vt 0.177149 0.914122
vt 0.259139 0.913435
vt 0.692280 0.768192
vt 0.712606 0.768023
vt 0.942869 0.058552
vt 0.942858 0.044003
vt 0.957769 0.040455
vt 0.957769 0.055376
vt 0.556625 0.129364
vt 0.557899 0.109207
vt 0.605385 0.116081
vt 0.604279 0.133438
vt 0.556732 0.149536
vt 0.604378 0.150810
vt 0.942865 0.030104
vt 0.957769 0.026203
vt 0.558212 0.169624
vt 0.605682 0.168114
vt 0.942894 0.016926
vt 0.957767 0.012695
vt 0.692299 0.754293
vt 0.692337 0.741116
vt 0.712664 0.740944
vt 0.712626 0.754124
vt 0.177168 0.900225
vt 0.259158 0.899536
vt 0.177206 0.887045
vt 0.259197 0.886356
vt 0.177264 0.874647
vt 0.259254 0.873960
vt 0.692394 0.728718
vt 0.712721 0.728548
vt 0.177340 0.863094
vt 0.259330 0.862406
vt 0.692471 0.717163
vt 0.712797 0.716993
vt 0.480068 0.920074
vt 0.479759 0.930943
vt 0.464050 0.928307
vt 0.464283 0.917145
vt 0.942942 0.004528
vt 0.957762 0.000000
vt 0.499752 0.928356
vt 0.499653 0.940102
vt 0.479660 0.942688
vt 0.464077 0.940365
vt 0.499752 0.950378
vt 0.479759 0.952969
vt 0.464348 0.950924
vt 0.717766 0.368609
vt 0.626129 0.350559
vt 0.715332 0.385374
vt 0.622757 0.373827
vt 0.602097 0.344687
vt 0.607460 0.319917
vt 0.598457 0.369796
vt 0.596558 0.395123
vt 0.620995 0.397296
vt 0.714066 0.402283
vt 0.596413 0.420543
vt 0.620857 0.420852
vt 0.713966 0.419254
vt 0.598015 0.445932
vt 0.622345 0.444380
vt 0.715034 0.436206
vt 0.601364 0.471169
vt 0.625450 0.467765
vt 0.717270 0.453055
vt 0.606438 0.496129
vt 0.630150 0.490894
vt 0.720657 0.469719
vt 0.542130 0.171005
vt 0.540565 0.149864
vt 0.473320 0.180077
vt 0.471382 0.154041
vt 0.471245 0.127899
vt 0.540451 0.128635
vt 0.472900 0.101772
vt 0.541794 0.107426
vt 0.476341 0.075798
vt 0.544586 0.086330
vt 0.481544 0.050091
vt 0.548813 0.065456
vt 0.488495 0.024784
vt 0.554459 0.044910
vt 0.497154 0.000000
vt 0.561485 0.024784
s 1
usemtl (null)
f 2/1/1 1/2/2 3/3/2 104/4/1
f 4/5/3 1/6/4 2/7/4 111/8/5
f 1/2/2 5/9/6 6/10/6 3/3/2
f 7/11/7 5/12/4 1/6/4 4/5/3
f 14/13/8 16/14/8 18/15/8 19/16/8 109/17/8 6/18/8 5/19/8 7/20/8 8/21/8 10/22/8 12/23/8
f 9/24/9 8/25/10 7/11/7 4/5/3
f 11/26/11 10/27/12 8/28/13 9/29/14
f 10/27/12 11/26/11 13/30/15 12/31/16
f 12/31/16 13/30/15 15/32/15 14/33/16
f 14/34/17 15/35/17 17/36/18 16/37/19
f 20/38/20 18/39/21 16/37/19 17/36/18
f 21/40/22 19/41/23 18/39/21 20/38/20
f 20/38/20 22/42/24 23/43/25 21/40/22
f 22/42/24 20/38/20 17/36/18 25/44/26
f 22/42/24 24/45/27 107/46/28 23/43/25
f 24/45/27 22/42/24 25/44/26 26/47/29
f 15/35/17 27/48/17 25/44/26 17/36/18
f 27/48/17 28/49/17 26/47/29 25/44/26
f 13/50/15 29/51/30 27/52/30 15/53/15
f 29/51/30 30/54/31 28/55/31 27/52/30
f 31/56/32 33/57/33 30/54/31 29/51/30
f 11/58/11 31/56/32 29/51/30 13/50/15
f 31/59/32 11/26/11 9/29/14 32/60/34
f 33/57/33 31/56/32 32/61/34 34/62/35
f 35/63/36 33/57/33 34/62/35 36/64/37
f 33/57/33 35/63/36 38/65/38 30/54/31
f 37/66/39 35/63/36 36/64/37 114/67/40
f 35/63/36 37/66/39 40/68/41 38/65/38
f 30/54/31 38/65/38 39/69/38 28/55/31
f 38/65/38 40/68/41 41/70/41 39/69/38
f 40/68/41 42/71/42 43/72/42 41/70/41
f 37/66/39 45/73/43 42/71/42 40/68/41
f 42/71/42 44/74/44 127/75/44 43/72/42
f 45/73/43 47/76/45 44/74/44 42/71/42
f 45/73/43 37/66/39 114/67/40 46/77/46
f 47/76/45 45/73/43 46/77/46 48/78/47
f 49/79/48 47/76/45 48/78/47 50/80/49
f 47/76/45 49/79/48 52/81/50 44/74/44
f 51/82/51 49/79/48 50/80/49 120/83/52
f 49/79/48 51/82/51 54/84/53 52/81/50
f 44/74/44 52/81/50 53/85/50 127/75/44
f 52/81/50 54/84/53 55/86/53 53/85/50
f 54/84/53 56/87/54 57/88/54 55/86/53
f 51/82/51 59/89/55 56/87/54 54/84/53
f 56/87/54 58/90/56 132/91/56 57/88/54
f 59/89/55 61/92/57 58/90/56 56/87/54
f 59/89/55 51/82/51 120/83/52 60/93/58
f 61/92/57 59/89/55 60/93/58 62/94/59
f 67/95/60 69/96/60 71/97/60 72/98/60 131/99/60 132/100/60 58/101/60 61/102/60 62/103/60 63/104/60 65/105/60
f 62/106/61 60/107/62 64/108/63 63/109/64
f 64/108/63 66/110/4 65/111/4 63/109/64
f 65/112/65 66/113/66 68/114/66 67/115/65
f 67/116/65 68/117/66 70/118/67 69/119/68
f 69/120/68 70/121/67 73/122/69 71/123/70
f 74/124/71 72/125/72 71/126/70 73/127/69
f 76/128/73 74/124/71 73/127/69 75/129/74
f 70/121/67 78/130/75 75/131/74 73/122/69
f 129/132/76 76/128/73 75/129/74 77/133/77
f 78/130/75 79/134/78 77/135/77 75/131/74
f 80/136/79 82/137/80 79/138/78 78/139/75
f 68/117/66 80/136/79 78/139/75 70/118/67
f 66/113/66 81/140/79 80/141/79 68/114/66
f 81/140/79 83/142/80 82/143/80 80/141/79
f 83/142/80 85/144/81 84/145/81 82/143/80
f 82/137/80 84/146/81 87/147/82 79/138/78
f 85/144/81 117/148/83 86/149/83 84/145/81
f 84/146/81 86/150/83 88/151/84 87/147/82
f 87/152/82 88/153/84 91/154/85 89/155/86
f 79/134/78 87/152/82 89/155/86 77/135/77
f 92/156/87 90/157/88 89/158/86 91/159/85
f 90/157/88 129/132/76 77/133/77 89/158/86
f 94/160/89 92/156/87 91/159/85 93/161/90
f 88/153/84 96/162/91 93/163/90 91/154/85
f 121/164/92 94/160/89 93/161/90 95/165/93
f 96/162/91 97/166/94 95/167/93 93/163/90
f 98/168/95 100/169/96 97/170/94 96/171/91
f 86/150/83 98/168/95 96/171/91 88/151/84
f 117/148/83 99/172/95 98/173/95 86/149/83
f 99/172/95 101/174/96 100/175/96 98/173/95
f 101/174/96 103/176/97 102/177/97 100/175/96
f 100/169/96 102/178/97 105/179/98 97/170/94
f 103/176/97 2/180/1 104/181/1 102/177/97
f 102/178/97 104/182/1 106/183/99 105/179/98
f 105/184/98 106/185/99 23/186/25 107/187/28
f 97/166/94 105/188/98 107/189/28 95/167/93
f 24/45/27 121/164/92 95/165/93 107/46/28
f 104/190/1 3/191/2 108/192/100 106/185/99
f 106/185/99 108/192/100 21/193/22 23/186/25
f 3/191/2 6/194/6 109/195/101 108/192/100
f 108/192/100 109/195/101 19/196/23 21/193/22
f 111/8/5 2/7/4 103/197/4 110/198/102
f 110/198/102 103/197/4 101/199/4 112/200/103
f 34/201/104 32/202/105 111/8/5 110/198/102
f 36/203/106 34/201/104 110/198/102 112/200/103
f 114/204/107 36/203/106 112/200/103 113/205/108
f 112/200/103 101/199/4 99/206/4 113/205/108
f 46/207/109 114/204/107 113/205/108 115/208/110
f 113/205/108 99/206/4 117/209/4 115/208/110
f 48/210/111 46/207/109 115/208/110 116/211/112
f 115/208/110 117/209/4 85/212/4 116/211/112
f 50/213/113 48/210/111 116/211/112 118/214/114
f 116/211/112 85/212/4 83/215/4 118/214/114
f 120/216/115 50/213/113 118/214/114 119/217/116
f 118/214/114 83/215/4 81/218/4 119/217/116
f 60/107/62 120/216/115 119/217/116 64/108/63
f 119/217/116 81/218/4 66/110/4 64/108/63
f 32/202/105 9/24/9 4/5/3 111/8/5
f 121/164/92 24/45/27 26/47/29 122/219/117
f 94/160/89 121/164/92 122/219/117 123/220/118
f 28/49/17 39/221/17 122/219/117 26/47/29
f 39/221/17 41/222/17 123/220/118 122/219/117
f 41/222/17 43/223/17 124/224/119 123/220/118
f 92/156/87 94/160/89 123/220/118 124/224/119
f 43/223/17 127/225/17 125/226/120 124/224/119
f 90/157/88 92/156/87 124/224/119 125/226/120
f 127/225/17 53/227/17 126/228/121 125/226/120
f 129/132/76 90/157/88 125/226/120 126/228/121
f 53/227/17 55/229/17 128/230/122 126/228/121
f 76/128/73 129/132/76 126/228/121 128/230/122
f 55/229/17 57/231/17 130/232/123 128/230/122
f 74/124/71 76/128/73 128/230/122 130/232/123
f 57/231/17 132/233/17 131/234/124 130/232/123
f 72/125/72 74/124/71 130/232/123 131/234/124
