# Blender 4.0.2
# www.blender.org
mtllib CircleBlock14.mtl
o CircleBlock14
v -2.204285 -3.328415 -5.612156
v -1.654083 -3.328415 -5.042420
v -2.204285 1.808574 -5.612157
v -3.018555 -3.063088 -4.768964
v -2.525177 -3.063088 -4.258080
v -3.018555 1.543247 -4.768964
v -2.525177 1.543247 -4.258080
v -1.654083 1.808574 -5.042420
v -2.068695 1.543247 -3.714028
v -1.144989 1.808574 -4.435693
v -1.651245 1.543247 -3.139457
v -2.068695 -3.063088 -3.714028
v -1.144989 -3.328415 -4.435692
v -1.651245 -3.063092 -3.139457
v -0.679443 -3.328419 -3.794929
v -1.274872 -3.063092 -2.537164
v -0.941437 -3.063092 -1.910084
v -1.274872 1.543247 -2.537165
v -0.259735 -3.328419 -3.123252
v 0.112091 -3.328419 -2.423934
v -0.259735 1.808574 -3.123252
v -0.679443 1.808574 -3.794930
v -0.100037 1.808574 -2.822907
v -0.165802 1.794369 -2.812948
v -0.060150 1.539200 -2.747864
v -0.074127 1.468902 -2.726122
v -0.048584 1.466388 -2.726122
v 0.089111 0.968330 -2.467152
v 0.112091 0.913402 -2.423933
v -0.168640 0.993717 -2.467152
v -0.460693 1.082313 -2.467152
v -0.251495 0.577209 -2.118637
v -0.623230 0.689972 -2.118637
v -0.319489 0.235393 -1.693971
v 0.135101 0.539131 -2.118637
v 0.135101 0.848186 -2.372271
v 0.248016 0.550258 -2.118637
v 0.135101 0.190616 -1.693971
v 0.135101 -0.068352 -1.209473
v 0.436584 0.220310 -1.693971
v 0.612915 -0.021290 -1.209473
v 0.434235 0.225345 -1.700386
v 0.434235 -3.328419 -1.700386
v 0.705139 -3.328419 -0.956122
v -0.652588 -3.063091 -1.261281
v -0.652588 0.095917 -1.261281
v -0.409698 -3.063091 -0.593899
v -0.409698 -0.181618 -0.593900
v -0.213928 -3.063091 0.088798
v -0.066254 -3.063091 0.783489
v -0.213928 -0.225052 0.088799
v 0.923431 -3.328419 -0.194777
v 1.088135 -3.328419 0.579943
v 0.923431 -0.148613 -0.194777
v 0.783234 -0.141060 -0.683762
v 0.935730 -0.150806 -0.137039
v 0.681824 -0.227821 -0.137039
v 1.051910 -0.059555 0.409683
v 0.671326 -0.175011 0.409683
v 1.088135 0.005138 0.579943
v 1.131409 0.115437 0.887962
v 1.138092 0.135239 0.935393
v 1.125916 0.128731 0.935393
v 0.640198 -0.018600 0.935393
v 1.026794 0.367989 1.419892
v 0.893433 0.689972 1.844560
v 0.589691 0.235394 1.419892
v 1.202209 0.461765 1.419892
v 1.231934 0.870907 1.844560
v 1.198334 0.426132 1.364264
v 1.198334 -3.328419 1.364263
v 1.253601 -3.328418 2.154361
v 0.032593 -3.063091 1.486788
v 0.032593 0.255615 1.486788
v 0.082123 -3.063091 2.195268
v 0.082123 0.973122 2.195268
v 0.082123 -3.063091 2.905477
v 0.032593 -3.063091 3.613954
v 0.082123 1.543247 2.905477
v 1.253601 -3.328418 2.946382
v 1.198334 -3.328418 3.736482
v 1.253601 1.808571 2.946381
v 1.198334 1.808571 3.736481
v 1.253601 1.808571 2.315158
v 1.214264 1.799664 2.331534
v 1.253601 1.773380 2.306247
v 1.253601 1.441235 2.193074
v 1.236023 1.419815 2.193074
v 1.253601 1.402241 2.172675
v 1.253601 1.373509 2.154361
v 1.232330 0.878639 1.850032
v 1.000061 1.226189 2.193074
v 0.730896 1.082314 2.193074
v 0.730896 1.629036 2.452043
v 0.545502 1.529934 2.452044
v 0.695404 1.682152 2.471422
v 0.833801 1.713501 2.452043
v 0.922272 1.733536 2.430220
v 0.500702 1.638050 2.487542
v 0.318848 1.596867 2.491620
v 0.135101 1.555241 2.484487
v 0.344299 1.468903 2.452044
v 0.438843 0.993717 2.193074
v 0.135101 1.448300 2.452044
v 0.135101 0.963799 2.193074
v 0.082123 1.453518 2.452044
v 0.082123 1.543247 2.479264
v 0.081970 0.969032 2.193074
v 0.135101 0.539131 1.844560
v 0.057617 0.546768 1.844560
v 0.135101 0.190617 1.419892
v 0.521698 0.577210 1.844560
v 0.023193 0.201645 1.419892
v 0.135101 -0.068352 0.935393
v 0.135101 -0.227821 0.409683
v -0.044891 -0.050621 0.935393
v -0.066254 -0.094597 0.783489
v -0.145721 -0.200165 0.409683
v 0.135101 -0.281670 -0.137039
v -0.278687 -0.240913 -0.137039
v 0.135101 -0.227821 -0.683762
v 0.671326 -0.175011 -0.683762
v -0.401123 -0.175011 -0.683762
v -0.369995 -0.018604 -1.209473
v -0.403259 -0.185848 -0.571564
v -0.442383 -0.162491 -0.683762
v -0.633728 0.061394 -1.209473
v 0.645477 -0.045239 -1.119953
v 0.705139 -0.078831 -0.956122
v 1.088135 1.808571 4.520801
v 0.032593 1.543247 3.613954
v -0.066254 1.543248 4.317254
v -0.066254 -3.063091 4.317254
v -0.213928 1.543248 5.011943
v 0.923431 1.808571 5.295522
v -0.213928 -3.063091 5.011943
v -0.311798 1.543248 5.353292
v -0.311798 -3.063091 5.353292
v 0.814270 1.808571 5.676192
v 0.814270 -3.328418 5.676193
v 0.923431 -3.328418 5.295522
v 1.088135 -3.328418 4.520801
v -0.784515 0.300629 -1.557568
v -0.756592 0.367988 -1.693971
v -0.845245 0.415363 -1.693971
v -0.941437 0.666931 -1.910085
v -1.005737 0.813316 -2.031034
v -1.052368 0.944099 -2.118637
v -0.965820 0.873092 -2.118637
v -0.729889 1.226188 -2.467152
v -0.965820 1.419815 -2.467152
v -0.460693 1.629036 -2.726122
v -0.275299 1.529934 -2.726122
v -0.382294 1.746383 -2.768936
v -0.555878 1.707123 -2.726122
v -0.718781 1.666870 -2.653903
v -1.091156 1.572540 -2.467152
v -1.194489 1.543247 -2.385962
v -1.133911 1.251720 -2.272058
vn 0.7431 -0.0000 -0.6691
vn 0.7193 -0.0000 -0.6947
vn -0.1641 -0.9753 0.1477
vn -0.1589 -0.9753 0.1535
vn -0.7193 -0.0000 -0.6947
vn -0.7431 -0.0000 0.6691
vn -0.7193 -0.0000 0.6947
vn -0.1589 0.9753 0.1535
vn -0.1641 0.9753 0.1477
vn -0.1740 0.9753 0.1359
vn -0.7880 -0.0000 0.6156
vn -0.1830 0.9753 0.1235
vn -0.8290 -0.0000 0.5592
vn -0.1740 -0.9753 0.1359
vn -0.1830 -0.9753 0.1235
vn -0.1912 -0.9753 0.1104
vn -0.8660 -0.0000 0.5000
vn -0.8988 -0.0000 0.4384
vn -0.8907 -0.0000 0.4546
vn -0.8829 -0.0000 0.4695
vn -0.1984 -0.9753 0.0968
vn 0.8660 -0.0000 -0.5000
vn 0.8290 -0.0000 -0.5592
vn 0.8903 -0.0000 -0.4553
vn 0.8988 -0.0000 -0.4384
vn 0.8830 -0.0000 -0.4695
vn -0.1912 0.9753 0.1104
vn -0.1950 0.9753 0.1037
vn 0.1005 0.2725 0.9569
vn 0.1484 0.3584 0.9217
vn 0.0757 0.3805 0.9217
vn 0.0786 0.2803 0.9567
vn 0.0846 0.2790 0.9566
vn 0.0392 0.3986 0.9163
vn 0.1092 0.5490 0.8286
vn 0.0564 0.5729 0.8177
vn 0.1385 0.6965 0.7041
vn -0.0000 0.7101 0.7041
vn 0.0513 0.6335 0.7720
vn 0.0624 0.6331 0.7715
vn 0.2142 0.5172 0.8286
vn 0.2718 0.6561 0.7040
vn 0.1626 0.8173 0.5528
vn 0.3189 0.7699 0.5528
vn -0.0000 0.8333 0.5528
vn -0.0705 0.7157 0.6949
vn -0.0824 0.8369 0.5412
vn -0.0759 0.7708 0.6326
vn -0.0000 0.9248 0.3805
vn -0.0913 0.9267 0.3645
vn 0.1804 0.9070 0.3805
vn 0.9496 -0.0000 -0.3133
vn 0.9511 -0.0000 -0.3090
vn 0.9272 -0.0000 -0.3746
vn 0.9218 -0.0000 -0.3876
vn 0.9397 -0.0000 -0.3420
vn 0.9135 -0.0000 -0.4067
vn -0.2047 -0.9753 0.0827
vn -0.2100 -0.9753 0.0682
vn -0.9272 -0.0000 0.3746
vn -0.9225 -0.0000 0.3861
vn -0.9136 -0.0000 0.4067
vn -0.9511 -0.0000 0.3090
vn -0.9498 -0.0000 0.3130
vn -0.9397 -0.0000 0.3420
vn -0.9703 -0.0000 0.2419
vn -0.9707 -0.0000 0.2404
vn -0.9613 -0.0000 0.2757
vn -0.2142 -0.9753 0.0534
vn -0.9848 -0.0000 0.1737
vn -0.9858 -0.0000 0.1677
vn -0.9781 -0.0000 0.2079
vn -0.2174 -0.9753 0.0383
vn 0.9702 -0.0000 -0.2425
vn 0.9703 -0.0000 -0.2419
vn 0.9613 -0.0000 -0.2756
vn 0.9861 -0.0000 -0.1660
vn 0.9848 -0.0000 -0.1736
vn 0.9781 -0.0000 -0.2080
vn -0.1914 0.9622 0.1940
vn -0.1951 0.9808 -0.0000
vn -0.2903 0.9569 -0.0133
vn -0.2889 0.9524 0.0976
vn -0.2856 0.9412 0.1805
vn -0.1914 0.9622 -0.1939
vn -0.2838 0.9355 -0.2104
vn -0.1804 0.9070 -0.3805
vn -0.3541 0.8542 -0.3807
vn -0.2932 0.9112 -0.2894
vn -0.2779 0.9161 -0.2890
vn 0.9958 -0.0000 -0.0916
vn 0.9945 -0.0000 -0.1045
vn 0.9903 -0.0000 -0.1391
vn -0.4323 0.8080 -0.4002
vn -0.3189 0.7699 -0.5528
vn -0.1626 0.8173 -0.5528
vn -0.3869 0.7239 -0.5712
vn -0.4162 0.7786 -0.4696
vn -0.2718 0.6561 -0.7041
vn -0.3257 0.6093 -0.7230
vn -0.1385 0.6965 -0.7041
vn 0.9999 -0.0000 -0.0123
vn 0.9994 -0.0000 -0.0349
vn 0.9976 -0.0000 -0.0698
vn -0.2196 -0.9753 0.0231
vn -0.2206 -0.9753 0.0077
vn -0.9945 -0.0000 0.1045
vn -0.9960 -0.0000 0.0896
vn -0.9903 -0.0000 0.1392
vn -0.9994 -0.0000 0.0349
vn -0.9999 -0.0000 0.0109
vn -0.9976 -0.0000 0.0697
vn -0.9994 -0.0000 -0.0349
vn -1.0000 -0.0000 -0.0000
vn -0.2206 -0.9753 -0.0077
vn -0.9945 -0.0000 -0.1045
vn -0.2196 -0.9753 -0.0231
vn 1.0000 -0.0000 -0.0000
vn 0.9994 -0.0000 0.0349
vn 0.9945 -0.0000 0.1045
vn -0.2206 0.9753 -0.0077
vn -0.2209 0.9753 -0.0000
vn -0.2196 0.9753 -0.0231
vn -0.3782 0.2823 -0.8816
vn -0.4172 0.2233 -0.8809
vn -0.3813 0.2778 -0.8817
vn -0.3992 0.3278 -0.8563
vn -0.3958 0.3958 -0.8287
vn -0.3202 0.3464 -0.8818
vn -0.4229 0.4736 -0.7726
vn -0.3110 0.4654 -0.8287
vn -0.4036 0.4918 -0.7715
vn -0.3176 0.5501 -0.7724
vn -0.2142 0.5172 -0.8286
vn -0.2155 0.3225 -0.9217
vn -0.2830 0.3448 -0.8950
vn -0.1484 0.3583 -0.9217
vn -0.1555 0.2452 -0.9569
vn -0.1081 0.2694 -0.9569
vn -0.0757 0.3804 -0.9217
vn -0.0571 0.2846 -0.9569
vn -0.0000 0.3879 -0.9217
vn -0.0043 0.2903 -0.9569
vn -0.1092 0.5490 -0.8286
vn -0.0000 0.5597 -0.8287
vn 0.0544 0.5525 -0.8318
vn 0.0464 0.4708 -0.8810
vn 0.0372 0.3772 -0.9254
vn 0.0286 0.2903 -0.9565
vn -0.0000 0.7101 -0.7041
vn 0.0694 0.7045 -0.7063
vn -0.0000 0.8333 -0.5528
vn 0.0819 0.8308 -0.5506
vn 0.0760 0.7708 -0.6326
vn -0.0000 0.9248 -0.3806
vn 0.0909 0.9222 -0.3759
vn -0.0000 0.9810 -0.1939
vn 0.0964 0.9784 -0.1828
vn 0.0938 0.9527 -0.2890
vn -0.0000 1.0000 -0.0000
vn 0.0980 0.9950 0.0173
vn 0.0975 0.9904 -0.0975
vn -0.0000 0.9810 0.1939
vn 0.1913 0.9622 0.1939
vn 0.1164 0.9884 0.0977
vn -0.1114 0.9507 0.2894
vn 0.2653 0.8745 0.4060
vn 0.2831 0.9338 0.2187
vn 0.2885 0.9525 0.0975
vn 0.2854 0.8348 0.4707
vn 0.2563 0.8448 0.4697
vn -0.2780 0.9160 0.2891
vn 0.9848 -0.0000 0.1736
vn -0.2174 0.9753 -0.0383
vn -0.9848 -0.0000 -0.1737
vn -0.2142 0.9753 -0.0534
vn -0.9703 -0.0000 -0.2419
vn -0.2123 0.9753 -0.0609
vn -0.9613 -0.0000 -0.2756
vn -0.2756 -0.0000 0.9613
vn 0.9613 -0.0000 0.2757
vn 0.9703 -0.0000 0.2419
vn -0.2123 -0.9753 -0.0609
vn -0.2142 -0.9753 -0.0534
vn -0.2174 -0.9753 -0.0383
vn 0.3822 0.7150 0.5854
vn 0.3945 0.5905 0.7040
vn 0.3959 0.6645 0.6338
vn 0.3651 0.6831 0.6325
vn 0.4263 0.5195 0.7406
vn 0.3110 0.4654 0.8287
vn 0.3958 0.3958 0.8286
vn 0.4295 0.4674 0.7727
vn 0.2155 0.3225 0.9217
vn 0.2665 0.3247 0.9075
vn 0.3104 0.3559 0.8815
vn 0.1486 0.2498 0.9568
vn 0.4455 0.3657 0.8172
vn 0.4918 0.4037 0.7715
vn 0.7880 -0.0000 -0.6157
vt 0.260498 0.028868
vt 0.261404 0.006617
vt 0.371705 0.006277
vt 0.370799 0.028530
vt 0.641762 0.368362
vt 0.676186 0.350754
vt 0.687538 0.371208
vt 0.654427 0.391174
vt 0.729790 0.838816
vt 0.729790 0.729218
vt 0.758652 0.738296
vt 0.758652 0.836573
vt 0.616618 0.843636
vt 0.715651 0.841692
vt 0.715404 0.860927
vt 0.616371 0.862871
vt 0.903244 0.436888
vt 0.941566 0.442953
vt 0.938889 0.466144
vt 0.900261 0.462751
vt 0.937843 0.489462
vt 0.899094 0.488755
vt 0.616784 0.823519
vt 0.715816 0.821575
vt 0.938423 0.512793
vt 0.899742 0.514774
vt 0.616866 0.802618
vt 0.715899 0.800675
vt 0.630722 0.344727
vt 0.666283 0.329552
vt 0.621361 0.320374
vt 0.657890 0.307716
vt 0.613724 0.295425
vt 0.651039 0.285347
vt 0.616866 0.781036
vt 0.715899 0.779092
vt 0.616784 0.758877
vt 0.696976 0.757303
vt 0.700139 0.761515
vt 0.702962 0.764556
vt 0.709596 0.769847
vt 0.715879 0.773749
vt 0.607841 0.270012
vt 0.645767 0.262558
vt 0.258493 0.100546
vt 0.259039 0.075949
vt 0.369340 0.075609
vt 0.368794 0.100208
vt 0.349153 0.125412
vt 0.258072 0.125692
vt 0.368613 0.111008
vt 0.362784 0.113724
vt 0.361208 0.114510
vt 0.350358 0.123854
vt 0.940643 0.536024
vt 0.902214 0.540681
vt 0.905975 0.550670
vt 0.904053 0.551705
vt 0.941566 0.541574
vt 0.937218 0.541483
vt 0.923691 0.543932
vt 0.917961 0.545252
vt 0.912544 0.547553
vt 0.988139 0.301743
vt 0.982958 0.306679
vt 0.980666 0.300499
vt 0.982116 0.299675
vt 0.988127 0.299545
vt 0.980486 0.299698
vt 0.970735 0.306953
vt 0.968921 0.298874
vt 0.847618 0.013391
vt 0.855843 0.011241
vt 0.861320 0.022316
vt 0.848984 0.025540
vt 0.846916 0.016978
vt 0.847237 0.015042
vt 0.974063 0.315933
vt 0.865166 0.008710
vt 0.873184 0.019094
vt 0.866951 0.035815
vt 0.880905 0.032027
vt 0.852448 0.039607
vt 0.845383 0.026446
vt 0.842834 0.042026
vt 0.842857 0.041795
vt 0.856415 0.055434
vt 0.841171 0.059269
vt 0.872528 0.051221
vt 0.327391 0.176916
vt 0.257616 0.177130
vt 0.257780 0.151260
vt 0.334085 0.151026
vt 0.333976 0.151251
vt 0.328682 0.168106
vt 0.328148 0.171219
vt 0.347732 0.127243
vt 0.341231 0.136225
vt 0.603745 0.244240
vt 0.642090 0.239449
vt 0.601456 0.218254
vt 0.640045 0.216148
vt 0.976744 0.536236
vt 0.976744 0.616446
vt 0.954118 0.616165
vt 0.954118 0.548237
vt 0.964450 0.543962
vt 0.969207 0.541553
vt 0.959069 0.961682
vt 0.959069 0.893753
vt 0.982056 0.893957
vt 0.982056 0.955919
vt 0.978961 0.956302
vt 0.960854 0.960956
vt 0.492674 0.982747
vt 0.492674 0.920785
vt 0.515908 0.920914
vt 0.515908 0.981941
vt 0.508223 0.981558
vt 0.493434 0.982660
vt 0.600990 0.192169
vt 0.639626 0.192757
vt 0.959922 0.770735
vt 0.983293 0.770787
vt 0.983293 0.834619
vt 0.970717 0.832321
vt 0.959922 0.831762
vt 0.602341 0.166115
vt 0.640831 0.169395
vt 0.325859 0.202963
vt 0.257582 0.203173
vt 0.326043 0.186237
vt 0.329257 0.229044
vt 0.257679 0.229263
vt 0.325819 0.204908
vt 0.327847 0.223314
vt 0.843620 0.076718
vt 0.847771 0.094283
vt 0.839676 0.096238
vt 0.839592 0.094297
vt 0.840050 0.077580
vt 0.852600 0.111507
vt 0.840462 0.114438
vt 0.857918 0.127729
vt 0.842430 0.131469
vt 0.841866 0.130026
vt 0.840706 0.120048
vt 0.338523 0.255024
vt 0.257906 0.255272
vt 0.331715 0.239250
vt 0.332153 0.240822
vt 0.243790 0.829670
vt 0.243408 0.829559
vt 0.244003 0.828135
vt 0.849586 0.145692
vt 0.863525 0.142326
vt 0.243065 0.845575
vt 0.237564 0.843960
vt 0.238121 0.842274
vt 0.244003 0.859758
vt 0.233383 0.856640
vt 0.869202 0.154736
vt 0.857346 0.157598
vt 0.359221 0.280766
vt 0.258261 0.281075
vt 0.339314 0.256840
vt 0.348289 0.270681
vt 0.348457 0.270859
vt 0.605507 0.140221
vt 0.643677 0.146172
vt 0.610474 0.114609
vt 0.648125 0.123207
vt 0.954485 0.171943
vt 0.977877 0.171919
vt 0.977877 0.243283
vt 0.975651 0.242124
vt 0.959538 0.236717
vt 0.954485 0.235776
vt 0.977415 0.436888
vt 0.977415 0.523680
vt 0.977343 0.523592
vt 0.965883 0.514562
vt 0.954117 0.508352
vt 0.954117 0.436989
vt 0.493289 0.884476
vt 0.592338 0.885231
vt 0.592338 0.899094
vt 0.590409 0.899963
vt 0.580079 0.908234
vt 0.493289 0.907570
vt 0.617210 0.089401
vt 0.654167 0.100609
vt 0.493212 0.861702
vt 0.592261 0.862457
vt 0.625694 0.064735
vt 0.661774 0.078484
vt 0.368660 0.285908
vt 0.369043 0.306206
vt 0.258743 0.306543
vt 0.359848 0.281351
vt 0.360698 0.282005
vt 0.367899 0.285624
vt 0.259350 0.331558
vt 0.369650 0.331219
vt 0.167755 0.853045
vt 0.129532 0.848684
vt 0.132355 0.828135
vt 0.133553 0.828860
vt 0.142593 0.833491
vt 0.145370 0.834631
vt 0.149780 0.835935
vt 0.156029 0.837406
vt 0.161911 0.838422
vt 0.167915 0.839083
vt 0.169655 0.839170
vt 0.166199 0.876333
vt 0.127800 0.874655
vt 0.152637 0.982155
vt 0.152564 0.983490
vt 0.151780 0.983398
vt 0.144243 0.982521
vt 0.143873 0.981880
vt 0.153070 0.972267
vt 0.143325 0.982430
vt 0.140893 0.973579
vt 0.142633 0.982376
vt 0.130865 0.980621
vt 0.130678 0.980598
vt 0.128443 0.969002
vt 0.139116 0.964363
vt 0.151863 0.965668
vt 0.153164 0.969292
vt 0.150640 0.959320
vt 0.153240 0.964653
vt 0.153296 0.958145
vt 0.150292 0.952576
vt 0.153296 0.952095
vt 0.635071 0.403732
vt 0.635788 0.406689
vt 0.628899 0.406689
vt 0.628998 0.404266
vt 0.138612 0.954575
vt 0.638702 0.418177
vt 0.628700 0.418177
vt 0.626968 0.417953
vt 0.626976 0.417856
vt 0.627174 0.406467
vt 0.627258 0.404434
vt 0.884422 0.162045
vt 0.881531 0.151633
vt 0.884003 0.150987
vt 0.886116 0.161602
vt 0.874733 0.164483
vt 0.878021 0.138677
vt 0.881592 0.137744
vt 0.881844 0.139863
vt 0.127802 0.956551
vt 0.874023 0.123675
vt 0.879768 0.122174
vt 0.869698 0.107203
vt 0.878662 0.104861
vt 0.879204 0.117236
vt 0.865204 0.089895
vt 0.878410 0.086444
vt 0.878197 0.094134
vt 0.860718 0.072414
vt 0.877831 0.067942
vt 0.878822 0.071512
vt 0.840866 0.062422
vt 0.880943 0.048936
vt 0.879143 0.067585
vt 0.878838 0.070742
vt 0.882912 0.036246
vt 0.881126 0.047078
vt 0.840309 0.068176
vt 0.260078 0.355991
vt 0.370378 0.355654
vt 0.166283 0.899675
vt 0.127892 0.900686
vt 0.493057 0.839363
vt 0.592106 0.840118
vt 0.167992 0.922959
vt 0.129799 0.926652
vt 0.492827 0.817558
vt 0.591876 0.818314
vt 0.169655 0.934515
vt 0.131653 0.939538
vt 0.492674 0.806976
vt 0.591722 0.807732
vt 0.291153 0.866109
vt 0.291153 0.976430
vt 0.257584 0.972044
vt 0.257584 0.873119
vt 0.261404 0.391190
vt 0.260923 0.379728
vt 0.371224 0.379391
vt 0.371705 0.390852
vt 0.654427 0.006279
vt 0.687538 0.026070
vt 0.681519 0.036095
vt 0.647713 0.017464
vt 0.670906 0.056946
vt 0.635880 0.040710
vt 0.883736 0.031226
vt 0.884125 0.015998
vt 0.886116 0.018554
vt 0.885048 0.023162
vt 0.474792 0.865192
vt 0.475975 0.868210
vt 0.473091 0.868210
vt 0.873756 0.006278
vt 0.973655 0.337837
vt 0.971717 0.335312
vt 0.978453 0.324028
vt 0.983737 0.330917
vt 0.980774 0.338287
vt 0.985982 0.312256
vt 0.988114 0.315033
vt 0.987981 0.320885
vt 0.988139 0.309090
vt 0.987605 0.334435
vt 0.987402 0.338432
vt 0.259708 0.052017
vt 0.370010 0.051678
s 1
usemtl (null)
f 2/1/1 1/2/2 3/3/2 8/4/1
f 2/5/3 5/6/3 4/7/4 1/8/4
f 3/9/5 1/10/5 4/11/5 6/12/5
f 5/13/6 7/14/6 6/15/7 4/16/7
f 3/17/8 6/18/8 7/19/9 8/20/9
f 8/20/9 7/19/9 9/21/10 10/22/10
f 12/23/11 9/24/11 7/14/6 5/13/6
f 10/22/10 9/21/10 11/25/12 22/26/12
f 14/27/13 11/28/13 9/24/11 12/23/11
f 13/29/14 12/30/14 5/6/3 2/5/3
f 15/31/15 14/32/15 12/30/14 13/29/14
f 19/33/16 16/34/16 14/32/15 15/31/15
f 16/35/17 18/36/17 11/28/13 14/27/13
f 18/36/17 16/35/17 17/37/18 146/38/19 147/39/20 148/40/20 159/41/20 158/42/20
f 20/43/21 17/44/21 16/34/16 19/33/16
f 19/45/22 15/46/23 22/47/23 21/48/22
f 29/49/24 20/50/25 19/45/22 21/48/22 23/51/26 25/52/26 27/53/26 28/54/26
f 22/26/12 11/25/12 18/55/27 21/56/27
f 24/57/28 23/58/28 21/56/27 18/55/27 158/59/28 157/60/28 156/61/28 155/62/28 154/63/28
f 24/64/29 153/65/30 26/66/31 25/67/32 23/68/33
f 25/67/32 26/66/31 27/69/34
f 27/69/34 26/66/31 30/70/35 28/71/36
f 28/72/36 30/73/35 32/74/37 35/75/38 36/76/39 29/77/40
f 31/78/41 30/70/35 26/66/31 153/65/30
f 32/74/37 30/73/35 31/79/41 33/80/42
f 34/81/43 32/74/37 33/80/42 144/82/44
f 34/81/43 38/83/45 35/75/38 32/74/37
f 35/75/38 37/84/46 36/76/39
f 37/84/46 35/75/38 38/83/45 40/85/47 42/86/48
f 40/85/47 38/83/45 39/87/49 41/88/50
f 38/83/45 34/81/43 124/89/51 39/87/49
f 129/90/52 44/91/53 43/92/54 42/93/55 40/94/56 41/95/56 128/96/56
f 42/93/55 43/92/54 20/50/25 29/49/24 36/97/57 37/98/57
f 43/99/58 45/100/58 17/44/21 20/43/21
f 44/101/59 47/102/59 45/100/58 43/99/58
f 146/103/19 17/104/18 45/105/60 46/106/61 143/107/62 145/108/62
f 46/109/61 45/110/60 47/111/63 48/112/64 126/113/65 127/114/65
f 48/115/64 47/116/63 49/117/66 51/118/67 120/119/68 125/120/68
f 52/121/69 49/122/69 47/102/59 44/101/59
f 49/123/66 50/124/70 117/125/71 118/126/72 51/127/67
f 53/128/73 50/129/73 49/122/69 52/121/69
f 54/130/74 52/131/75 44/91/53 129/90/52 55/132/76
f 60/133/77 53/134/78 52/131/75 54/130/74 56/135/79 58/136/79
f 122/137/80 57/138/81 56/139/82 54/140/83 55/141/84
f 56/139/82 57/138/81 59/142/85 58/143/86
f 58/143/86 59/142/85 64/144/87 63/145/88 61/146/89 60/147/90
f 70/148/91 71/149/92 53/134/78 60/133/77 61/150/93 62/151/93
f 63/152/88 62/153/94 61/154/89
f 65/155/95 63/145/88 64/144/87 67/156/96
f 62/153/94 63/152/88 65/157/95 68/158/97 70/159/98
f 65/157/95 66/160/99 69/161/100 68/158/97
f 65/155/95 67/156/96 112/162/101 66/163/99
f 90/164/102 72/165/103 71/149/92 70/148/91 68/166/104 69/167/104 91/168/104
f 71/169/105 73/170/105 50/129/73 53/128/73
f 72/171/106 75/172/106 73/170/105 71/169/105
f 50/173/70 73/174/107 74/175/108 113/176/109 116/177/109 117/178/71
f 75/179/110 76/180/111 108/181/112 110/182/112 74/183/108 73/184/107
f 77/185/113 79/186/113 107/187/114 106/188/114 76/189/111 75/190/110
f 80/191/115 77/192/115 75/172/106 72/171/106
f 78/193/116 131/194/116 79/186/113 77/185/113
f 81/195/117 78/196/117 77/192/115 80/191/115
f 84/197/118 82/198/119 80/199/119 72/165/103 90/164/102 89/200/118 87/201/118 86/202/118
f 81/203/120 80/199/119 82/198/119 83/204/120
f 79/205/121 82/206/121 84/207/122 85/208/122 98/209/122 97/210/122 96/211/122 99/212/122 100/213/122 101/214/122 107/215/122
f 82/206/121 79/205/121 131/216/123 83/217/123
f 85/218/124 84/219/125 86/220/126
f 87/221/127 88/222/128 98/223/129 85/218/124 86/220/126
f 88/222/128 87/221/127 89/224/130
f 92/225/131 88/222/128 89/224/130 90/226/132 91/227/133
f 69/228/100 66/229/99 93/230/134 92/225/131 91/227/133
f 88/222/128 92/225/131 94/231/135 97/232/136 98/223/129
f 94/231/135 92/225/131 93/230/134 95/233/137
f 96/234/138 94/231/135 95/233/137 99/235/139
f 97/232/136 94/231/135 96/234/138
f 99/235/139 95/233/137 102/236/140 100/237/141
f 100/238/141 102/239/140 104/240/142 101/241/143
f 93/230/134 103/242/144 102/236/140 95/233/137
f 103/243/144 105/244/145 104/240/142 102/239/140
f 104/240/142 105/244/145 108/245/146 76/246/147 106/247/148
f 104/240/142 106/247/148 107/248/149 101/241/143
f 105/249/145 109/250/150 110/251/151 108/252/146
f 112/162/101 109/250/150 105/249/145 103/253/144
f 109/250/150 111/254/152 113/255/153 74/256/154 110/251/151
f 67/156/96 111/254/152 109/250/150 112/162/101
f 66/229/99 112/257/101 103/242/144 93/230/134
f 64/144/87 114/258/155 111/254/152 67/156/96
f 111/254/152 114/258/155 116/259/156 113/255/153
f 59/142/85 115/260/157 114/258/155 64/144/87
f 114/258/155 115/260/157 118/261/158 117/262/159 116/259/156
f 115/260/157 119/263/160 120/264/161 51/265/162 118/261/158
f 57/138/81 119/263/160 115/260/157 59/142/85
f 122/137/80 121/266/163 119/263/160 57/138/81
f 119/263/160 121/266/163 123/267/164 125/268/165 120/264/161
f 41/88/50 39/87/49 121/266/163 122/137/80 128/269/166
f 39/87/49 124/89/51 123/267/164 121/266/163
f 123/267/164 124/89/51 127/270/167 126/271/168
f 125/268/165 123/267/164 126/271/168 48/272/169
f 124/89/51 34/81/43 144/82/44 143/273/170 46/274/171 127/270/167
f 122/137/80 55/141/84 129/275/172 128/269/166
f 142/276/173 81/203/120 83/204/120 130/277/173
f 83/217/123 131/216/123 132/278/174 130/279/174
f 133/280/175 132/281/175 131/194/116 78/193/116
f 130/279/174 132/278/174 134/282/176 135/283/176
f 136/284/177 134/285/177 132/281/175 133/280/175
f 135/283/176 134/282/176 137/286/178 139/287/178
f 138/288/179 137/289/179 134/285/177 136/284/177
f 140/290/180 139/291/180 137/292/180 138/293/180
f 140/294/181 141/295/182 135/296/182 139/297/181
f 140/298/183 138/299/183 136/300/184 141/301/184
f 141/295/182 142/276/173 130/277/173 135/296/182
f 141/301/184 136/300/184 133/302/185 142/303/185
f 142/303/185 133/302/185 78/196/117 81/195/117
f 143/273/170 144/82/44 145/304/186
f 144/82/44 33/80/42 149/305/187 147/306/188 146/307/189 145/304/186
f 147/308/188 149/309/187 148/310/190
f 33/80/42 31/79/41 150/311/191 149/305/187
f 148/312/190 149/313/187 150/314/191 151/315/192 159/316/193
f 151/315/192 150/314/191 152/317/194 155/318/195 156/319/196
f 153/65/30 152/317/194 150/314/191 31/78/41
f 154/320/197 152/317/194 153/65/30 24/64/29
f 155/318/195 152/317/194 154/320/197
f 151/315/192 156/319/196 157/321/198
f 158/322/199 159/316/193 151/315/192 157/321/198
f 15/46/23 13/323/200 10/324/200 22/47/23
f 13/323/200 2/1/1 8/4/1 10/324/200
