# Blender 4.0.2
# www.blender.org
mtllib Debris20.mtl
o Debris20
v 1.061127 -0.388657 -1.790522
v 1.137085 -0.360642 -1.803955
v 0.596405 0.559090 -1.533073
v 1.138290 -0.466316 -1.708536
v 1.580261 -0.406059 -1.694103
v 1.754562 -0.415043 -0.002989
v 1.962814 -0.413361 1.378468
v 1.203308 0.709171 0.302397
v 1.355560 0.781849 0.817665
v 1.514114 0.501728 1.627050
v 1.587387 0.690235 1.757309
v 1.793671 0.590405 1.805252
v 1.888229 0.785664 1.949081
v 1.865372 0.542542 2.110882
v 2.266983 -0.374897 1.543034
v 2.315033 -0.374508 1.861771
v 1.987335 -0.420750 1.931416
v 1.719299 -0.453289 1.716648
v 1.587433 0.394825 2.152962
v 1.334534 0.331436 1.929811
v 1.666290 0.575188 2.323271
v 1.394135 0.506970 2.083128
v 1.014374 1.332192 2.325333
v 1.965393 0.734154 2.277987
v 1.277969 1.472279 2.285427
v 1.209961 1.517670 1.995577
v 0.944839 1.433579 1.826578
v 0.774536 1.272076 2.113705
v -1.190262 -0.866539 2.474386
v -1.936386 -0.948429 1.429014
v -0.814789 -0.810852 2.255203
v -2.465485 -0.595276 -0.826097
v -1.897141 -0.929638 0.738783
v -2.251953 -0.692810 -0.773537
v -2.134888 -0.931561 -0.838396
v -2.439072 -0.970028 -1.002954
v -2.487122 -0.970413 -1.321691
v -2.531509 -0.781479 -0.951738
v -2.603226 -0.733620 -1.257372
v -2.766327 -0.690701 -1.017868
v -2.891891 0.216625 -0.619053
v -2.843506 -0.639195 -1.346775
v -2.544403 -0.480229 -1.392059
v -2.959900 0.262016 -0.908899
v -2.696304 0.402107 -0.948805
v -2.456451 0.462219 -0.737181
v -2.272247 -0.412010 -1.151917
v -2.626755 0.300720 -0.450054
v -0.669724 0.439670 -1.394526
v -2.072388 -0.522514 -1.076302
v -0.411041 0.360424 -1.327812
v -2.325287 -0.585903 -1.299446
v -1.891388 -0.891636 -1.176571
v -2.159409 -0.924175 -1.391338
v 1.184631 -0.457604 -1.830294
v 1.373276 -0.425705 -2.142117
v 1.700974 -0.379467 -2.211760
v 1.203079 -0.078625 -2.047834
v 1.499802 0.030815 -2.100311
v 1.670181 -0.218277 -1.849339
v 1.749023 -0.379078 -1.893023
v -0.280060 0.093281 -1.400381
v 0.937225 0.505020 -0.718830
v 0.736115 0.915188 -0.607412
v 1.314209 0.823471 0.773724
v 1.353149 0.846577 0.758959
vn -0.1148 0.6650 0.7379
vn 0.8176 0.4851 -0.3100
vn 0.1357 -0.9906 -0.0192
vn 0.3416 0.3987 -0.8511
vn -0.4277 0.8723 0.2370
vn 0.1148 -0.6651 -0.7379
vn -0.2258 0.1507 -0.9624
vn 0.8753 0.4652 -0.1325
vn 0.9479 -0.1937 -0.2528
vn 0.3917 0.4151 -0.8211
vn 0.9303 -0.2598 -0.2589
vn 0.2258 -0.1507 0.9624
vn -0.5234 -0.4527 0.7218
vn 0.4577 -0.7080 0.5379
vn 0.1039 0.0868 0.9908
vn 0.7299 0.6804 -0.0647
vn -0.6151 -0.4729 -0.6309
vn 0.4459 -0.6699 0.5936
vn -0.4052 -0.9130 -0.0479
vn -0.8752 -0.4652 0.1325
vn -0.3917 -0.4151 0.8211
vn -0.3436 -0.9368 -0.0661
vn -0.9575 -0.2164 0.1908
vn 0.1291 -0.4886 -0.8629
vn -0.3315 0.3773 -0.8647
vn 0.5234 0.4527 -0.7218
vn 0.8708 -0.0486 0.4892
vn 0.5234 0.4528 -0.7218
vn 0.0968 -0.4369 -0.8943
vn -0.8146 -0.2584 -0.5193
vn 0.8753 0.4651 -0.1325
vn 0.7369 0.1846 0.6503
vt 0.253377 0.560825
vt 0.266298 0.549317
vt 0.292365 0.551421
vt 0.292365 0.572780
vt 0.270832 0.585924
vt 0.270832 0.591392
vt 0.261964 0.589294
vt 0.469784 0.648771
vt 0.466891 0.652706
vt 0.458775 0.617506
vt 0.372907 0.617742
vt 0.360233 0.497534
vt 0.365631 0.490192
vt 0.438020 0.489993
vt 0.438182 0.548914
vt 0.469510 0.548828
vt 0.341513 0.022536
vt 0.341416 0.000000
vt 0.362863 0.001175
vt 0.373552 0.015000
vt 0.366614 0.043919
vt 0.486233 0.026547
vt 0.579175 0.031638
vt 0.594037 0.013844
vt 0.615481 0.015018
vt 0.615579 0.037551
vt 0.597933 0.052281
vt 0.598689 0.226525
vt 0.607894 0.254240
vt 0.529579 0.289153
vt 0.485085 0.277170
vt 0.378975 0.271358
vt 0.364114 0.289153
vt 0.342670 0.287978
vt 0.342572 0.265445
vt 0.360218 0.250715
vt 0.359299 0.039209
vt 0.140720 0.786056
vt 0.140720 0.897981
vt 0.109391 0.897981
vt 0.109391 0.801067
vt 0.129796 0.801067
vt 0.069542 0.854579
vt 0.472341 0.650651
vt 0.429702 0.296831
vt 0.457895 0.296754
vt 0.458242 0.423219
vt 0.437837 0.423275
vt 0.364897 0.495610
vt 0.357491 0.495630
vt 0.955399 0.207901
vt 0.955399 0.293770
vt 0.863697 0.293769
vt 0.863697 0.223874
vt 0.920797 0.304145
vt 0.925248 0.307901
vt 0.856135 0.307901
vt 0.707469 0.678582
vt 0.681294 0.700760
vt 0.684177 0.676149
vt 0.707324 0.661365
vt 0.785076 0.755537
vt 0.757614 0.775602
vt 0.726948 0.655044
vt 0.708156 0.654914
vt 0.802925 0.729746
vt 0.802925 0.580608
vt 0.707115 0.631366
vt 0.772033 0.565895
vt 0.680858 0.609116
vt 0.745844 0.544365
vt 0.707157 0.648938
vt 0.683574 0.633780
vt 0.703340 0.655245
vt 0.703371 0.655303
vt 0.703392 0.655208
vt 0.703462 0.655260
vt 0.927088 0.540720
vt 0.902380 0.540720
vt 0.900546 0.519113
vt 0.914734 0.504924
vt 0.928922 0.519113
vt 0.703417 0.655345
vt 0.903292 0.336069
vt 0.886674 0.498837
vt 0.871848 0.504924
vt 0.891830 0.309210
vt 0.216558 0.594793
vt 0.019826 0.594793
vt 0.000000 0.574967
vt 0.000000 0.505855
vt 0.003117 0.506448
vt 0.021793 0.408265
vt 0.111563 0.341416
vt 0.233552 0.341416
vt 0.253377 0.361242
vt 0.253377 0.517356
vt 0.946302 0.504924
vt 0.336870 0.549317
vt 0.336870 0.705431
vt 0.322738 0.697869
vt 0.322738 0.593176
vt 0.304502 0.697869
vt 0.403848 0.879235
vt 0.400035 0.897453
vt 0.376506 0.892841
vt 0.380203 0.878285
vt 0.355370 0.886236
vt 0.360600 0.868567
vt 0.362800 0.903145
vt 0.341416 0.898750
vt 0.386554 0.906005
vt 0.371388 0.966938
vt 0.350350 0.964744
vt 0.392639 0.971511
vt 0.973953 0.503159
vt 0.953256 0.498764
vt 0.946302 0.481942
vt 0.968575 0.486670
vt 0.976691 0.421999
vt 0.996319 0.426166
vt 0.920340 0.946437
vt 0.934528 0.932248
vt 0.948717 0.946437
vt 0.946882 0.968043
vt 0.922174 0.968043
vt 0.414597 0.904116
vt 0.437797 0.895739
vt 0.437797 0.962465
vt 0.417352 0.969846
vt 0.399819 0.897809
vt 0.421378 0.890025
vt 0.472006 0.289153
vt 0.472341 0.411141
vt 0.996319 0.507907
vt 0.990464 0.535486
vt 0.968587 0.528433
vt 0.375620 0.518447
vt 0.349109 0.518520
vt 0.372755 0.539614
vt 0.341416 0.539700
vt 0.886034 0.955253
vt 0.875356 0.961322
vt 0.861697 0.944749
vt 0.888941 0.929264
vt 0.888941 0.972310
vt 0.949500 0.516456
s 0
usemtl (null)
f 5/1/1 60/2/1 59/3/1 58/4/1 2/5/1 1/6/1 4/7/1
f 65/8/2 9/9/2 8/10/2 6/11/2 4/12/2 1/13/2 3/14/2 63/15/2 64/16/2
f 56/17/3 57/18/3 61/19/3 5/20/3 4/21/3 6/22/3 7/23/3 15/24/3 16/25/3 17/26/3 18/27/3 31/28/3 29/29/3 30/30/3 33/31/3 35/32/3 36/33/3 37/34/3 54/35/3 53/36/3 55/37/3
f 49/38/4 64/39/4 63/40/4 62/41/4 51/42/4
f 3/43/5 62/41/5 63/40/5
f 66/44/6 9/9/6 65/8/6
s 1
f 53/45/7 50/46/7 51/47/7 62/48/7 3/14/7 1/13/7 2/49/7 55/50/7
f 6/51/8 8/52/8 10/53/8 7/54/8
f 9/55/9 66/56/9 11/57/9 10/53/9 8/52/9
f 12/58/10 10/59/10 11/60/10 13/61/10
f 12/58/10 15/62/10 7/63/10 10/59/10
f 14/64/11 12/58/11 13/61/11 24/65/11
f 15/62/8 12/58/8 14/64/8 16/66/8
f 16/67/12 14/64/12 19/68/12 17/69/12
f 17/69/13 19/68/13 20/70/13 18/71/13
f 20/70/13 19/68/13 21/72/13 22/73/13
f 19/68/14 14/64/14 24/65/14 21/72/14
f 22/73/13 21/72/13 23/74/13 28/75/13
f 21/72/15 24/65/15 25/76/15 23/74/15
f 24/65/16 13/61/16 26/77/16 25/76/16
f 27/78/5 28/79/5 23/80/5 25/81/5 26/82/5
f 13/61/10 11/60/10 27/83/10 26/77/10
f 11/60/17 22/73/17 28/75/17 27/83/17
f 31/84/18 20/85/18 22/86/18 29/87/18
f 29/88/5 22/89/5 11/90/5 66/91/5 65/92/5 64/93/5 49/94/5 47/95/5 32/96/5 30/97/5
f 18/98/12 20/85/12 31/84/12
f 30/99/19 32/100/19 34/101/19 33/102/19
f 34/101/20 35/103/20 33/102/20
f 35/104/21 34/105/21 38/106/21 36/107/21
f 36/107/20 38/106/20 39/108/20 37/109/20
f 39/108/22 38/106/22 40/110/22 42/111/22
f 38/106/21 34/105/21 32/112/21 40/110/21
f 42/111/23 40/110/23 41/113/23 44/114/23
f 40/110/21 32/112/21 48/115/21 41/113/21
f 52/116/24 39/117/24 42/118/24 43/119/24
f 43/119/25 42/118/25 44/120/25 45/121/25
f 45/122/5 44/123/5 41/124/5 48/125/5 46/126/5
f 47/127/26 43/128/26 45/129/26 46/130/26
f 32/112/27 47/127/27 46/130/27 48/115/27
f 50/131/28 52/132/26 43/128/26 47/127/26
f 51/47/29 50/46/29 47/133/29 49/134/29
f 50/135/28 53/136/28 54/137/28 52/116/26
f 55/50/30 2/49/30 58/138/30 56/139/30
f 58/138/7 59/140/7 57/141/7 56/139/7
f 60/142/31 61/143/31 57/144/31 59/145/31
f 61/143/32 60/142/32 5/146/32
f 52/116/7 54/137/7 37/147/7 39/117/7
