# Blender 4.0.2
# www.blender.org
mtllib Debris6.mtl
o Debris6
v -126.787247 49.437546 -11.679545
v -129.112961 46.781918 -11.679545
v -129.112961 46.781921 -3.689931
v -128.919693 46.794720 -0.475283
v -126.787247 49.437546 -4.330975
v -129.112961 46.781918 -4.330975
v -128.919693 46.794720 -3.400078
v -126.787247 49.437546 -12.087405
v -129.112961 46.781918 -12.087405
v -128.561691 46.818432 -3.923115
v -126.750740 48.886276 -3.923115
v -126.770096 49.178421 -11.297279
v -126.770096 49.178421 -4.713241
v -128.853836 46.799084 -11.297279
v -128.853836 46.799084 -4.713241
v -128.690796 46.985256 -10.704720
v -128.690796 46.985256 -5.305800
v -126.933151 48.992249 -5.305801
v -126.933136 48.992249 -10.704720
v -126.583923 49.015381 -10.704720
v -126.583923 49.015381 -5.305801
v -128.423401 46.980297 -10.355757
v -128.423401 46.980297 -5.654763
v -126.892960 48.727844 -10.355757
v -126.892960 48.727844 -5.654763
v -126.588882 48.747982 -10.355757
v -126.588882 48.747982 -5.654763
v -128.824982 46.902874 -3.055851
v -128.824982 46.902874 -0.819512
v -128.663330 46.906105 -2.973786
v -128.663330 46.906105 -0.901576
v -126.776970 49.282177 -3.755653
v -126.293419 49.005062 -3.689932
v -126.909889 49.297523 -3.689932
v -126.222755 48.761124 -3.400078
v -128.225082 47.587856 -0.475283
v -127.580711 47.282154 -0.475283
v -126.911453 49.087852 -3.400078
v -125.847450 48.273609 -2.973786
v -125.600136 48.215851 -3.055851
v -127.066055 48.911316 -3.055851
v -128.070496 47.764400 -0.819512
v -126.990707 48.815994 -2.973786
v -127.921425 47.753250 -0.901576
v -125.256027 47.577255 -3.923115
v -124.925888 47.807419 -3.689931
v -124.869072 47.757671 -12.087405
v -125.044144 47.728931 -3.400078
v -124.921547 47.803627 -4.330975
v -125.074890 47.693821 -4.713241
v -125.046463 47.730972 -3.055851
v -125.148483 47.661484 -2.973786
v -124.871841 47.760086 -11.679545
v -125.030342 47.654812 -11.297279
v -125.070885 47.690308 -5.305801
v -125.034348 47.658321 -10.704720
v -125.242104 47.568520 -5.654763
v -125.210297 47.540665 -10.355757
v -125.151085 47.663761 -2.588796
v -125.171051 47.650330 -2.557244
v -128.468628 46.736931 -3.923115
v -129.048309 46.725300 -3.689931
v -126.380920 46.714962 -12.087405
v -128.966873 46.653988 -12.087405
v -128.267960 46.771732 -0.475283
v -128.877060 46.757370 -0.475283
v -128.848679 46.732533 -3.400078
v -128.970825 46.657452 -11.679545
v -129.042084 46.719852 -4.330975
v -128.703125 46.667091 -11.297279
v -128.766968 46.723007 -4.713241
v -128.764191 46.720585 -4.998532
v -128.707626 46.671047 -10.831951
v -128.850815 46.734394 -3.180826
v -128.875687 46.756180 -0.615359
v -126.407944 46.798283 -2.459654
v -124.626381 49.532570 -5.782415
v -124.746712 49.491032 -5.682582
v -124.549561 49.402161 -5.869850
v -124.264343 49.488026 -5.755545
v -126.729294 49.220356 -4.836361
v -135.336395 46.611721 -8.356513
v -126.397896 49.694199 -5.805131
v -126.948685 49.526283 -6.027483
v -126.992767 49.553658 -6.166001
v -126.548660 48.847179 -6.482786
v -124.695976 49.404900 -5.740329
v -126.549004 48.800266 -6.671113
v -126.856773 48.707623 -6.794447
v -127.299950 49.460011 -6.290007
v -127.032196 48.601154 -7.080460
v -127.479477 48.619564 -6.644412
v -127.525200 49.438126 -6.519312
v -127.828552 49.212189 -6.247084
v -128.097244 49.263729 -6.750242
v -128.483139 49.083351 -6.720505
v -127.605339 48.428623 -7.310142
v -128.059341 48.363892 -7.202868
v -128.589142 48.204411 -7.415178
v -129.026093 48.152966 -7.268308
v -129.011902 48.922150 -6.933969
v -129.373154 48.742176 -6.873268
v -133.568115 47.463280 -8.566762
v -133.229095 46.887730 -8.952638
v -133.829666 47.453377 -8.878883
v -134.358429 47.292171 -9.092349
v -133.416138 46.751335 -9.349568
v -133.945923 46.591854 -9.561878
v -134.175446 46.450817 -9.943079
v -134.540100 46.341045 -10.089212
v -134.654770 47.264561 -9.397503
v -135.018723 47.153603 -9.544432
vn 0.3377 0.3856 -0.8587
vn -0.3377 -0.3855 -0.8587
vn -0.3856 0.3377 -0.8587
vn -0.0000 -0.0000 -1.0000
vn 0.5957 0.6802 0.4272
vn -0.0000 -0.0000 1.0000
vn -0.6802 0.5957 0.4272
vn -0.5957 -0.6801 0.4272
vn -0.6781 0.5939 0.4330
vn 0.5939 0.6781 -0.4330
vn 0.3730 0.4259 0.8243
vn 0.6588 0.7523 -0.0000
vn -0.6588 -0.7523 -0.0000
vn -0.7523 0.6588 -0.0000
vn -0.5433 0.4758 0.6917
vn 0.4758 0.5433 0.6917
vn -0.4758 -0.5433 0.6917
vn -0.6491 0.5685 0.5055
vn 0.9998 -0.0185 -0.0000
vn 0.0186 0.9998 -0.0000
vn -0.6781 0.5939 -0.4330
vn -0.5939 -0.6781 0.4330
vn 0.5939 0.6781 0.4330
vn -0.5939 -0.6781 -0.4330
vn -0.7523 0.6589 -0.0000
vn -0.6589 -0.7522 -0.0000
vn 0.5685 0.6491 0.5055
vn -0.6491 0.5685 -0.5055
vn 0.5685 0.6491 -0.5055
vn -0.9886 -0.1502 -0.0000
vn -0.6586 -0.7525 -0.0001
vn -0.4259 0.3730 0.8243
vn -0.0200 0.9998 -0.0000
vn -0.4259 0.3730 -0.8243
vn 0.5229 -0.7040 0.4807
vn 0.3584 0.7555 0.5484
vn 0.5677 -0.8232 0.0087
vn 0.0236 -0.9997 0.0087
vn 0.0749 0.8854 0.4587
vn -0.6572 0.1125 -0.7453
vn 0.1327 0.6047 -0.7854
vn 0.1918 -0.9524 0.2369
vn -0.3858 0.8740 0.2955
vn 0.1327 0.6047 -0.7853
vn 0.8074 0.5721 -0.1439
vn 0.4995 0.6658 -0.5542
vn -0.6948 0.0706 -0.7157
vn 0.7103 0.6295 -0.3148
vn -0.2651 0.4244 -0.8658
vn -0.3346 0.3809 -0.8620
vn 0.5635 0.6627 -0.4933
vn 0.5043 0.6658 -0.5500
vn -0.8884 -0.2787 -0.3647
vt 0.884140 0.124490
vt 0.890819 0.014441
vt 0.909859 0.000000
vt 0.915125 0.030691
vt 0.909014 0.131377
vt 0.780246 0.682245
vt 0.755000 0.703922
vt 0.748215 0.702884
vt 0.775531 0.681523
vt 0.755000 0.856448
vt 0.780246 0.867797
vt 0.773130 0.872016
vt 0.748215 0.681523
vt 0.748215 0.877404
vt 0.606728 0.877404
vt 0.631720 0.778607
vt 0.737439 0.681523
vt 0.932162 0.043615
vt 0.926896 0.130391
vt 0.491742 0.884145
vt 0.529817 0.894941
vt 0.529817 0.953443
vt 0.526671 0.953443
vt 0.501770 0.930576
vt 0.975238 0.476104
vt 0.957449 0.468504
vt 0.957449 0.299361
vt 0.975238 0.290551
vt 0.971792 0.479401
vt 0.953664 0.472126
vt 0.906772 0.507738
vt 0.906772 0.311857
vt 0.930304 0.322046
vt 0.930304 0.497548
vt 0.353564 0.002873
vt 0.354270 0.160356
vt 0.324690 0.173322
vt 0.323913 0.000000
vt 0.948446 0.090613
vt 0.957228 0.078688
vt 0.954105 0.130149
vt 0.945972 0.131377
vt 0.953836 0.272863
vt 0.953836 0.131377
vt 0.976468 0.131377
vt 0.976468 0.272660
vt 0.906772 0.301374
vt 0.884140 0.311857
vt 0.884140 0.301082
vt 0.884140 0.507738
vt 0.163860 0.235221
vt 0.156669 0.207623
vt 0.285097 0.146197
vt 0.284475 0.007339
vt 0.160238 0.235732
vt 0.151521 0.205703
vt 0.768498 0.332463
vt 0.620460 0.332463
vt 0.630029 0.310022
vt 0.758930 0.310022
vt 0.266308 0.540914
vt 0.266172 0.841363
vt 0.251405 0.820242
vt 0.251997 0.559582
vt 0.347098 0.478198
vt 0.194968 0.270406
vt 0.215095 0.276301
vt 0.347558 0.457231
vt 0.323381 0.197377
vt 0.168747 0.254573
vt 0.930304 0.301668
vt 0.930304 0.290551
vt 1.000000 0.141566
vt 1.000000 0.269891
vt 0.164302 0.257827
vt 0.354270 0.507977
vt 0.782230 0.681523
vt 0.606728 0.681523
vt 0.620460 0.648642
vt 0.768498 0.648642
vt 0.782230 0.000000
vt 0.782230 0.365344
vt 0.768498 0.032880
vt 0.606728 0.365344
vt 0.280064 0.507977
vt 0.280064 0.873946
vt 0.153143 0.853967
vt 0.156694 0.885349
vt 0.151817 0.540914
vt 0.151521 0.507977
vt 0.172200 0.268911
vt 0.333680 0.495544
vt 0.347859 0.750214
vt 0.347859 0.778197
vt 0.337601 0.773912
vt 0.758929 0.365345
vt 0.758929 0.626201
vt 0.630029 0.626201
vt 0.630029 0.365344
vt 0.859496 0.534260
vt 0.961181 0.534260
vt 0.961181 0.795116
vt 0.861842 0.795116
vt 0.256724 0.563394
vt 0.154866 0.563394
vt 0.153265 0.831490
vt 0.753658 0.313100
vt 0.753658 0.052244
vt 0.945367 0.463226
vt 0.939494 0.957358
vt 0.936348 0.957399
vt 0.939494 0.949585
vt 0.934256 0.795116
vt 0.939494 0.807216
vt 0.938348 0.460527
vt 0.938348 0.312383
vt 0.928125 0.938402
vt 0.926526 0.814319
vt 0.877851 0.958153
vt 0.864584 0.939221
vt 0.975440 0.131251
vt 0.606728 0.884145
vt 0.491742 0.821659
vt 0.606728 0.743270
vt 0.930304 0.454483
vt 0.930304 0.313607
vt 0.919095 0.933964
vt 0.917613 0.818988
vt 0.859496 0.931243
vt 0.921977 0.930438
vt 0.337601 0.709939
vt 0.337601 0.887823
vt 0.302421 0.919741
vt 0.280064 0.770478
vt 0.489018 0.864707
vt 0.449717 0.860051
vt 0.354700 0.709670
vt 0.354270 0.707510
vt 0.406348 0.687954
vt 0.393313 0.680925
vt 0.439877 0.663439
vt 0.451419 0.645438
vt 0.482551 0.644734
vt 0.489018 0.649892
vt 0.481881 0.668416
vt 0.482721 0.691518
vt 0.476077 0.696214
vt 0.481134 0.835286
vt 0.488178 0.841605
vt 0.783180 0.103843
vt 0.805590 0.081210
vt 0.783258 0.068270
vt 0.791133 0.052186
vt 0.791175 0.033084
vt 0.798024 0.028530
vt 0.798071 0.007166
vt 0.799406 0.005415
vt 0.882750 0.000000
vt 0.884140 0.534260
vt 0.782231 0.534260
vt 0.782281 0.511627
vt 0.792838 0.490415
vt 0.792910 0.457532
vt 0.804654 0.438168
vt 0.805229 0.177302
vt 0.793571 0.157938
vt 0.793644 0.125055
vt 0.354270 0.466374
vt 0.386409 0.453350
vt 0.354515 0.430800
vt 0.369726 0.409548
vt 0.369835 0.393716
vt 0.372066 0.070003
vt 0.372244 0.044181
vt 0.357325 0.023007
vt 0.357481 0.000374
vt 0.501014 0.000000
vt 0.501014 0.534262
vt 0.398085 0.644646
vt 0.364277 0.644734
vt 0.364330 0.636961
vt 0.365311 0.494596
vt 0.365395 0.482429
vt 0.348023 0.709939
vt 0.335007 0.685222
vt 0.339426 0.673683
vt 0.280064 0.560953
vt 0.348023 0.507977
vt 0.348615 0.709939
vt 0.349245 0.722279
vt 0.337601 0.728809
vt 0.340925 0.714252
vt 0.349245 0.750214
vt 0.013954 0.024367
vt 0.013786 0.000000
vt 0.151521 0.147710
vt 0.151521 0.885349
vt 0.004420 0.884966
vt 0.004205 0.853814
vt 0.024739 0.824671
vt 0.024427 0.779411
vt 0.047327 0.752817
vt 0.044853 0.393757
vt 0.021585 0.367043
vt 0.021274 0.321783
vt 0.000337 0.292532
vt 0.044235 0.261494
vt 0.000000 0.243569
vt 0.015312 0.221471
vt 0.015131 0.195178
vt 0.028580 0.188945
vt 0.027490 0.030671
vt 0.520954 0.696128
vt 0.511571 0.689835
vt 0.511698 0.663544
vt 0.501014 0.641378
vt 0.531876 0.623648
vt 0.501250 0.592417
vt 0.515857 0.563258
vt 0.516074 0.518000
vt 0.532307 0.491389
vt 0.534034 0.132338
vt 0.518057 0.105644
vt 0.518274 0.060385
vt 0.503948 0.031151
vt 0.504098 0.000000
vt 0.606728 0.000267
vt 0.606728 0.737907
vt 0.520728 0.743270
vt 0.953836 0.289655
vt 0.884324 0.290551
vt 0.884140 0.243409
vt 0.945019 0.131490
vt 0.489943 0.646986
vt 0.501014 0.644734
vt 0.501014 0.714252
vt 0.489943 0.724109
vt 0.458207 0.875812
vt 0.458207 0.952832
vt 0.431917 0.952596
vt 0.431917 0.875473
vt 0.482692 0.864707
vt 0.482692 0.950386
vt 0.727509 0.877404
vt 0.762257 0.885112
vt 0.762257 0.970791
vt 0.727509 0.938070
vt 0.727509 0.962892
vt 0.684375 0.970159
vt 0.684375 0.909494
vt 0.399527 0.938763
vt 0.399527 0.865114
vt 0.431917 0.868924
vt 0.431917 0.954412
vt 0.354270 0.938180
vt 0.354270 0.864707
vt 0.842542 0.565365
vt 0.782231 0.566127
vt 0.786029 0.535188
vt 0.842449 0.924435
vt 0.783536 0.925179
vt 0.787636 0.956018
vt 0.859496 0.955111
vt 0.651985 0.892300
vt 0.651985 0.963990
vt 0.606728 0.963583
vt 0.606728 0.891717
vt 0.684374 0.877404
vt 0.684374 0.960705
vt 0.560967 0.884547
vt 0.560967 0.967726
vt 0.529817 0.967446
vt 0.529817 0.884145
vt 0.995755 0.942218
vt 0.939494 0.856382
vt 0.995755 0.795116
s 0
usemtl (null)
f 45/1/1 11/2/1 32/3/1 33/4/1 46/5/1
f 3/6/2 10/7/2 61/8/2 62/9/2
f 11/10/3 10/7/3 3/6/3 34/11/3 32/12/3
f 9/13/4 8/14/4 47/15/4 63/16/4 64/17/4
f 33/4/5 35/18/5 48/19/5 46/5/5
f 37/20/6 36/21/6 4/22/6 66/23/6 65/24/6
f 3/25/7 7/26/7 38/27/7 34/28/7
f 7/26/8 3/25/8 62/29/8 67/30/8
f 1/31/9 2/32/9 14/33/9 12/34/9
f 50/35/10 13/36/10 5/37/10 49/38/10
f 40/39/11 39/40/11 52/41/11 51/42/11
f 47/43/12 8/44/12 1/45/12 53/46/12
f 68/47/13 2/32/13 9/48/13 64/49/13
f 2/32/14 1/31/14 8/50/14 9/48/14
f 5/37/15 6/51/15 10/52/15 11/53/15
f 11/53/16 45/54/16 49/38/16 5/37/16
f 10/52/17 6/51/17 69/55/17 61/56/17
f 19/57/18 16/58/18 22/59/18 24/60/18
f 20/61/19 21/62/19 27/63/19 26/64/19
f 16/65/20 17/66/20 23/67/20 22/68/20
f 6/51/21 5/37/21 13/69/21 15/70/21
f 14/71/22 2/32/22 68/47/22 70/72/22
f 12/73/23 54/74/23 53/46/23 1/45/23
f 69/55/24 6/51/24 15/70/24 71/75/24
f 14/76/25 15/70/25 17/66/25 16/65/25
f 15/77/14 13/78/14 18/79/14 17/80/14
f 13/81/14 12/82/14 19/57/14 18/83/14
f 12/82/14 14/84/14 16/58/14 19/57/14
f 12/85/12 13/86/12 21/62/12 20/61/12
f 55/87/12 21/62/12 13/86/12 50/88/12
f 20/61/12 56/89/12 54/90/12 12/85/12
f 71/75/26 15/70/26 72/91/26
f 72/91/13 15/70/13 14/76/13 73/92/13
f 73/93/13 14/94/13 70/95/13
f 22/96/14 23/97/14 25/98/14 24/99/14
f 58/100/12 26/101/12 27/102/12 57/103/12
f 26/104/27 58/105/27 56/89/27 20/61/27
f 17/80/28 18/79/28 25/98/28 23/97/28
f 57/106/29 27/63/29 21/62/29 55/87/29
f 18/83/30 19/57/30 24/107/30 25/108/30
f 48/19/12 35/18/12 40/39/12 51/42/12
f 74/109/13 7/26/13 67/30/13
f 66/110/31 4/111/31 75/112/31
f 75/112/13 4/111/13 7/113/13 74/114/13
f 7/26/14 28/115/14 41/116/14 38/27/14
f 7/113/14 4/111/14 29/117/14 28/118/14
f 29/117/14 4/111/14 36/119/14 42/120/14
f 59/121/12 52/41/12 39/40/12
f 30/122/14 31/20/14 44/123/14 43/124/14
f 30/125/32 43/126/32 41/116/32 28/115/32
f 28/118/33 29/117/33 31/127/33 30/128/33
f 44/129/34 31/130/34 29/117/34 42/120/34
f 60/131/35 37/132/35 65/133/35 76/134/35
f 36/135/36 37/136/36 60/137/36 59/138/36 39/139/36 40/140/36 35/141/36 33/142/36 32/143/36 34/144/36 38/145/36 41/146/36 43/147/36 44/148/36 42/149/36
f 49/150/37 45/151/37 46/152/37 48/153/37 51/154/37 52/155/37 59/156/37 60/157/37 76/158/37 63/159/37 47/160/37 53/161/37 54/162/37 56/163/37 58/164/37 57/165/37 55/166/37 50/167/37
f 62/168/38 61/169/38 69/170/38 71/171/38 72/172/38 73/173/38 70/174/38 68/175/38 64/176/38 63/177/38 76/178/38 65/179/38 66/180/38 75/181/38 74/182/38 67/183/38
f 80/184/39 77/185/39 78/186/39 83/187/39 81/188/39
f 78/189/40 77/190/40 79/191/40 87/192/40
f 79/191/41 77/190/41 80/193/41
f 79/194/42 80/195/42 81/196/42 82/197/42 110/198/42 109/199/42 108/200/42 107/201/42 104/202/42 100/203/42 99/204/42 98/205/42 97/206/42 92/207/42 91/208/42 89/209/42 88/210/42 86/211/42 87/212/42
f 84/213/43 85/214/43 90/215/43 93/216/43 94/217/43 95/218/43 96/219/43 101/220/43 102/221/43 103/222/43 105/223/43 106/224/43 111/225/43 112/226/43 82/227/43 81/228/43 83/229/43
f 86/230/44 84/231/44 83/232/44 78/233/44 87/44/44
f 85/234/45 84/235/45 86/236/45 88/237/45
f 89/238/44 90/239/44 85/240/44 88/241/44
f 91/242/46 93/243/46 90/239/46 89/238/46
f 94/244/47 93/245/47 91/246/47 92/247/47
f 97/244/48 95/248/48 94/249/48 92/250/48
f 98/251/49 96/252/49 95/253/49 97/254/49
f 99/255/44 101/256/44 96/252/44 98/251/44
f 100/257/50 102/258/50 101/259/50 99/100/50
f 104/260/44 103/261/44 102/258/44 100/257/44
f 105/262/51 103/261/51 104/260/51 107/263/51
f 108/264/44 106/265/44 105/266/44 107/267/44
f 109/268/52 111/269/52 106/265/52 108/264/52
f 110/270/44 112/271/44 111/272/44 109/273/44
f 82/274/53 112/275/53 110/276/53
