# Blender 4.0.2
# www.blender.org
mtllib Debris13.mtl
o Debris13
v -151.139389 46.867027 -4.587607
v -150.949402 46.410755 -4.605641
v -151.030060 47.416023 -4.613623
v -150.486710 47.117878 -4.058142
v -150.833328 47.012104 -5.033649
v -150.640137 46.557346 -5.056345
v -150.736923 47.554970 -5.040808
v -151.017609 48.215660 -5.007834
v -150.874023 48.734608 -5.020065
v -151.142105 48.156654 -4.826417
v -151.005905 48.672096 -4.827870
v -152.653152 51.785549 -4.682994
v -152.380646 51.973614 -4.697384
v -152.856476 51.802284 -4.440269
v -152.698105 52.044071 -4.252948
v -151.082779 48.164745 -4.406269
v -152.419785 52.198719 -4.322933
v -152.253769 52.452183 -4.126564
v -150.954254 48.679142 -4.462032
v -150.746872 48.758850 -4.293799
v -150.769272 48.285236 -4.151958
v -150.498062 47.620495 -4.182060
v -151.214188 52.640289 -4.963300
v -152.245270 51.962471 -4.858976
v -148.991486 47.250511 -5.225268
v -150.300034 46.660332 -4.078859
v -148.976807 47.072094 -7.818201
v -148.976807 46.577518 -7.818201
v -148.942566 47.535629 -7.505164
v -147.448517 47.072094 -6.591243
v -151.045547 47.072094 -5.241373
v -150.747345 47.535629 -5.257147
v -151.041885 46.577518 -5.245938
v -149.063766 46.577518 -5.377428
v -147.451981 46.577518 -6.594026
v -149.045593 52.304932 -5.328595
v -147.801361 52.002541 -6.271065
v -150.444946 52.045311 -5.237846
v -149.068039 51.294811 -6.952912
v -150.419983 48.677322 -5.268930
v -150.752670 48.254173 -5.250515
v -149.068039 48.677322 -6.952912
v -149.130432 48.254173 -7.271157
v -149.130432 51.083813 -7.271156
v -148.942566 50.981411 -7.505164
v -148.708557 51.150463 -7.317295
v -148.700699 51.352840 -6.993085
v -148.708557 48.254173 -7.317295
v -148.700699 48.677322 -6.993085
v -147.623550 48.254173 -6.446216
v -147.628586 47.535629 -6.450259
v -147.824677 48.677322 -6.289786
v -148.284607 47.134003 -1.685322
v -145.604797 47.134003 -5.023266
v -148.284607 46.639431 -1.685322
v -148.318832 47.597542 -1.998357
v -150.692169 47.134003 -3.618179
v -150.505585 47.597542 -3.753945
v -150.695618 46.639431 -3.620963
v -148.918121 46.639431 -4.962641
v -148.899277 52.578705 -4.912001
v -145.788406 46.639431 -5.170677
v -145.783447 47.134003 -5.166686
v -145.604797 46.639431 -5.023266
v -146.107269 47.597542 -5.141112
v -145.917831 47.597542 -4.989029
v -146.101593 48.161800 -5.136557
v -146.051895 53.106976 -5.096656
v -145.917831 53.203823 -4.989029
v -146.105698 53.306225 -4.755021
v -146.105698 48.316082 -4.755021
v -146.429916 53.237930 -4.747156
v -148.193375 54.199123 -2.550609
v -146.429916 48.739239 -4.747156
v -148.193375 48.739239 -2.550609
v -148.130966 48.316082 -2.232366
v -148.130966 54.410118 -2.232368
v -148.318832 54.512520 -1.998358
v -148.552856 54.343468 -2.186226
v -148.560699 54.141090 -2.510435
v -148.552856 48.316082 -2.186226
v -148.560699 48.739239 -2.510435
v -150.500549 48.316082 -3.749900
v -150.293488 48.739239 -3.901563
v -150.264236 52.910439 -3.878081
v -146.286331 46.639431 -6.895945
v -146.282867 47.134003 -6.893158
v -147.586884 46.639431 -5.914268
v -145.256516 46.639431 -6.069173
v -145.251541 47.134003 -6.065182
v -145.575363 47.597542 -6.039608
v -146.462936 47.597542 -6.752177
v -145.568161 48.316082 -6.033811
v -146.457901 48.316082 -6.748130
v -145.929596 48.739239 -6.006087
v -145.888947 52.781956 -5.973463
v -146.659012 48.739239 -6.591702
v -146.634445 52.243397 -6.571973
v -147.568390 52.470375 -5.864553
vn -0.5465 -0.2590 0.7964
vn -0.7442 -0.2860 -0.6037
vn -0.8371 0.1417 -0.5283
vn -0.6589 0.1660 0.7336
vn -0.1042 0.0054 -0.9945
vn -0.8363 0.2195 -0.5025
vn -0.0621 0.0136 -0.9980
vn -0.5152 0.7097 -0.4805
vn 0.2165 0.0516 0.9749
vn -0.6657 0.2428 0.7056
vn 0.5907 0.2057 0.7802
vn 0.3841 -0.9226 -0.0365
vn 0.6260 -0.0000 -0.7798
vn -0.7798 -0.0000 -0.6260
vn 0.5643 0.4330 -0.7029
vn -0.7029 0.4330 -0.5643
vn 0.0663 -0.0087 0.9978
vn -0.0000 -1.0000 -0.0000
vn 0.6024 -0.0087 0.7981
vn -0.1885 0.8351 -0.5167
vn -0.6728 0.5055 -0.5402
vn -0.9813 -0.0000 0.1924
vn 0.9997 -0.0000 -0.0242
vn 0.5402 0.5055 -0.6728
vn 0.7798 -0.0000 0.6260
vn 0.7029 0.4330 0.5643
vn -0.6260 -0.0000 0.7798
vn -0.5643 0.4330 0.7029
vn -0.6024 0.0087 -0.7981
vn -0.0663 0.0087 -0.9978
vn 0.0243 -0.0000 0.9997
vn 0.6728 0.5055 0.5402
vn 0.9813 -0.0000 -0.1924
vn -0.9997 -0.0000 0.0242
vn -0.5402 0.5055 0.6728
vn -0.1884 0.8351 -0.5167
vt 0.768866 0.789602
vt 0.679684 0.783861
vt 0.682922 0.733573
vt 0.771651 0.739285
vt 0.963522 0.324888
vt 0.906888 0.335731
vt 0.897412 0.286237
vt 0.953460 0.275506
vt 0.909843 0.230509
vt 0.963522 0.220232
vt 0.771651 0.842287
vt 0.698960 0.837607
vt 0.370750 0.594632
vt 0.187714 0.595109
vt 0.187180 0.544715
vt 0.217482 0.497405
vt 0.216705 0.424191
vt 0.250540 0.380986
vt 0.246745 0.023293
vt 0.370750 0.000000
vt 0.926107 0.152852
vt 0.948904 0.148488
vt 0.897412 0.000000
vt 0.878699 0.050997
vt 0.854142 0.052259
vt 0.874232 0.001191
vt 0.776348 0.073213
vt 0.806924 0.000000
vt 0.806924 0.484437
vt 0.776347 0.474003
vt 0.743304 0.116328
vt 0.743304 0.480961
vt 0.415539 0.959810
vt 0.391232 0.934496
vt 0.396231 0.901659
vt 0.370750 0.875123
vt 0.458198 0.769255
vt 0.458198 0.895428
vt 0.440519 0.907678
vt 0.442094 0.941409
vt 0.743304 0.505045
vt 0.712727 0.431832
vt 0.712728 0.003383
vt 0.743304 0.020608
vt 0.679684 0.388717
vt 0.679684 0.000000
vt 0.835286 0.407849
vt 0.806924 0.406471
vt 0.823003 0.000000
vt 0.854142 0.019590
vt 0.854142 0.458792
vt 0.811269 0.456710
vt 0.163400 0.449906
vt 0.163562 0.523121
vt 0.187069 0.570353
vt 0.187180 0.620747
vt 0.000000 0.620747
vt 0.001547 0.026117
vt 0.136355 0.000000
vt 0.137252 0.406788
vt 0.767605 0.915390
vt 0.724770 0.912633
vt 0.287519 0.595109
vt 0.287519 0.782289
vt 0.201321 0.804093
vt 0.187180 0.748191
vt 0.897412 0.415150
vt 0.876727 0.409258
vt 1.000000 0.335957
vt 1.000000 0.435381
vt 0.974853 0.435381
vt 0.974853 0.335731
vt 0.922559 0.335731
vt 0.922559 0.503750
vt 0.897412 0.503750
vt 0.897412 0.336028
vt 0.948706 0.424059
vt 0.948706 0.338382
vt 0.948706 0.345849
vt 0.948706 0.492428
vt 0.385483 0.563058
vt 0.385871 0.526523
vt 0.370750 0.502914
vt 0.371016 0.477767
vt 0.471816 0.478029
vt 0.471816 0.769255
vt 0.400551 0.755868
vt 0.402367 0.584619
vt 0.652190 0.745356
vt 0.652190 0.913078
vt 0.552765 0.913078
vt 0.577945 0.813535
vt 0.655563 0.745089
vt 0.552886 0.745356
vt 0.552765 0.720208
vt 0.564330 0.696608
vt 0.564154 0.660073
vt 0.577052 0.638523
vt 0.576239 0.469445
vt 0.655563 0.453863
vt 0.989553 0.000000
vt 0.991292 0.016028
vt 0.978550 0.031016
vt 0.991292 0.148488
vt 0.927584 0.113857
vt 0.897412 0.038859
vt 0.962329 0.021087
vt 0.972662 0.004624
vt 0.902506 0.869207
vt 0.792704 0.869207
vt 0.790677 0.697960
vt 0.902506 0.736120
vt 0.508351 0.924916
vt 0.508351 0.793162
vt 0.533287 0.804482
vt 0.533287 0.914284
vt 0.950743 0.852563
vt 0.934254 0.831047
vt 0.934254 0.697960
vt 0.950743 0.708688
vt 0.471816 0.940174
vt 0.471816 0.793594
vt 0.966001 0.889098
vt 0.966001 0.713895
vt 0.917764 0.708250
vt 0.917764 0.855514
vt 0.902506 0.892049
vt 0.902506 0.716846
vt 0.934254 0.833998
vt 0.927442 0.962796
vt 0.902506 0.952164
vt 0.902506 0.895043
vt 0.927442 0.892049
vt 0.963976 0.978054
vt 0.963976 0.892377
vt 0.166177 0.789827
vt 0.109059 0.790340
vt 0.107836 0.654308
vt 0.166177 0.620747
vt 0.305689 0.967937
vt 0.305689 0.816691
vt 0.323164 0.816691
vt 0.323164 0.967937
vt 0.287519 0.960070
vt 0.287519 0.824559
vt 0.999166 0.148488
vt 0.999166 0.257734
vt 0.981692 0.257734
vt 0.981692 0.148645
vt 0.963522 0.249866
vt 0.963522 0.150783
vt 0.287557 0.799216
vt 0.295709 0.782837
vt 0.295765 0.757448
vt 0.304833 0.742496
vt 0.305157 0.595109
vt 0.365660 0.606830
vt 0.366206 0.816691
vt 0.287519 0.816691
vt 0.279199 0.804093
vt 0.287519 0.804093
vt 0.287519 0.955338
vt 0.178273 0.955338
vt 0.197569 0.879054
vt 0.779200 0.699718
vt 0.790677 0.716097
vt 0.790511 0.733573
vt 0.679684 0.733573
vt 0.680230 0.523711
vt 0.781048 0.505045
vt 0.779390 0.679780
vt 0.183074 0.753889
vt 0.175182 0.752089
vt 0.179069 0.735052
vt 0.187180 0.736902
vt 0.178812 0.771553
vt 0.187180 0.773462
vt 0.182495 0.792843
vt 0.790677 0.733573
vt 0.790677 0.931659
vt 0.782350 0.911722
vt 0.784602 0.736995
vt 0.000000 0.943451
vt 0.002790 0.932601
vt 0.014743 0.925968
vt 0.040929 0.824118
vt 0.032862 0.815629
vt 0.035652 0.804778
vt 0.042594 0.805422
vt 0.109676 0.882963
vt 0.111081 0.944575
vt 0.022866 0.936395
vt 0.012118 0.944575
vt 0.977460 0.899666
vt 0.977460 0.723349
vt 0.988063 0.697960
vt 0.988063 0.896048
vt 0.966002 0.897253
vt 0.966001 0.738300
vt 0.890205 0.505045
vt 0.890205 0.697960
vt 0.790677 0.539007
vt 0.187180 0.735052
vt 0.169852 0.727663
vt 0.169852 0.628136
vt 0.667022 0.701809
vt 0.667022 0.917132
vt 0.655563 0.902181
vt 0.655563 0.709264
vt 0.677625 0.698191
vt 0.677625 0.942520
vt 0.994107 0.505045
vt 0.994107 0.640556
vt 0.968719 0.629952
vt 0.968719 0.515648
vt 0.667022 0.479252
vt 0.677625 0.453863
vt 0.667022 0.692217
vt 0.655563 0.494203
vt 0.655563 0.685067
vt 0.854142 0.496015
vt 0.854142 0.417500
vt 0.871470 0.415150
vt 0.871470 0.503403
vt 0.966001 0.988147
vt 0.966002 0.899894
vt 0.991390 0.899666
vt 0.991390 0.998750
vt 0.968719 0.695910
vt 0.890205 0.695910
vt 0.967394 0.548528
vt 0.000000 0.766926
vt 0.100821 0.747288
vt 0.107836 0.785111
vt 0.006868 0.804778
vt 0.589916 0.163420
vt 0.570187 0.130456
vt 0.570456 0.074568
vt 0.552765 0.038468
vt 0.552950 0.000000
vt 0.679684 0.000330
vt 0.679684 0.453863
vt 0.588606 0.435972
vt 0.107836 0.620747
vt 0.552765 0.477767
vt 0.371115 0.477767
vt 0.370750 0.439299
vt 0.396012 0.403245
vt 0.395482 0.347356
vt 0.423674 0.314443
vt 0.420689 0.000000
vt 0.551585 0.024235
vt 0.363160 0.816691
vt 0.363160 0.919557
vt 0.323164 0.923614
vt 0.323164 0.835086
vt 0.791397 0.869207
vt 0.879925 0.869207
vt 0.879422 0.925094
vt 0.790677 0.925094
vt 0.884003 0.963237
vt 0.811248 0.963237
vt 0.545627 0.792224
vt 0.472878 0.793162
vt 0.471816 0.520609
vt 0.545627 0.477767
vt 0.119161 0.875655
vt 0.178273 0.804093
vt 0.178273 0.937213
s 0
usemtl (null)
f 4/1/1 1/2/1 2/3/1 26/4/1
f 6/5/2 2/6/2 1/7/2 5/8/2
f 3/9/3 7/10/3 5/8/3 1/7/3
f 22/11/4 3/12/4 1/2/4 4/1/4
f 25/13/5 6/14/5 5/15/5 7/16/5 8/17/5 9/18/5 24/19/5 23/20/5
f 10/21/2 8/22/2 7/10/2 3/9/2
f 10/23/6 11/24/6 9/25/6 8/26/6
f 10/27/2 3/28/2 14/29/2 12/30/2
f 11/31/7 10/27/7 12/30/7 13/32/7
f 14/33/8 15/34/8 17/35/8 18/36/8 23/37/8 24/38/8 13/39/8 12/40/8
f 3/41/1 16/42/1 15/43/1 14/44/1
f 15/43/9 16/42/9 19/45/9 17/46/9
f 19/47/1 20/48/1 18/49/1 17/50/1
f 20/48/10 19/47/10 16/51/10 21/52/10
f 21/53/11 22/54/11 4/55/11 26/56/11 25/57/11 23/58/11 18/59/11 20/60/11
f 21/61/1 16/62/1 3/12/1 22/11/1
f 25/63/12 26/64/12 2/65/12 6/66/12
f 9/25/2 11/24/2 13/67/2 24/68/2
f 35/69/13 28/70/13 27/71/13 30/72/13
f 31/73/14 27/74/14 28/75/14 33/76/14
f 27/71/15 29/77/15 51/78/15 30/72/15
f 27/74/16 31/73/16 32/79/16 29/80/16
f 41/81/17 32/82/17 31/83/17 33/84/17 34/85/17 36/86/17 38/87/17 40/88/17
f 33/89/18 28/90/18 35/91/18 34/92/18
f 34/93/19 35/94/19 30/95/19 51/96/19 50/97/19 52/98/19 37/99/19 36/100/19
f 45/101/20 44/102/20 39/103/20 38/104/20 36/105/20 37/106/20 47/107/20 46/108/20
f 42/109/14 40/110/14 38/111/14 39/112/14
f 43/113/21 41/114/21 40/115/21 42/116/21
f 43/117/22 42/118/22 39/119/22 44/120/22
f 41/114/14 43/113/14 29/121/14 32/122/14
f 29/123/14 43/117/14 44/120/14 45/124/14
f 46/125/13 48/126/13 29/127/13 45/128/13
f 47/119/23 49/129/23 48/126/23 46/125/23
f 48/130/24 49/131/24 52/132/24 50/133/24
f 29/134/13 48/130/13 50/133/13 51/135/13
f 52/136/13 49/137/13 47/138/13 37/139/13
f 54/140/25 53/141/25 55/142/25 64/143/25
f 53/141/26 54/140/26 66/144/26 56/145/26
f 59/146/27 55/147/27 53/148/27 57/149/27
f 56/150/28 58/151/28 57/149/28 53/148/28
f 57/152/29 58/153/29 83/154/29 84/155/29 85/156/29 61/157/29 60/158/29 59/159/29
f 62/160/18 64/161/18 55/162/18 59/163/18 60/164/18
f 65/165/30 63/166/30 62/167/30 60/168/30 61/169/30 68/170/30 67/171/30
f 63/172/13 54/173/13 64/174/13 62/175/13
f 66/176/15 54/173/15 63/172/15 65/177/15
f 67/178/13 66/176/13 65/177/13
f 69/179/13 66/180/13 67/181/13 68/182/13
f 78/183/20 77/184/20 73/185/20 72/186/20 70/187/20 69/188/20 68/189/20 61/190/20 85/191/20 80/192/20 79/193/20
f 70/194/25 71/195/25 66/196/25 69/197/25
f 72/198/31 74/199/31 71/195/31 70/194/31
f 73/200/25 75/201/25 74/111/25 72/202/25
f 76/56/32 71/203/32 74/204/32 75/205/32
f 77/206/33 76/207/33 75/208/33 73/209/33
f 78/210/25 56/211/25 76/207/25 77/206/25
f 56/212/25 66/213/25 71/214/25 76/215/25
f 81/216/27 56/217/27 78/210/27 79/218/27
f 82/219/34 81/216/34 79/218/34 80/220/34
f 82/221/35 84/222/35 83/223/35 81/224/35
f 81/225/27 83/226/27 58/227/27 56/228/27
f 84/229/27 82/230/27 80/200/27 85/231/27
f 89/232/13 86/233/13 87/234/13 90/235/13
f 97/236/29 94/237/29 92/238/29 87/239/29 86/240/29 88/241/29 99/242/29 98/243/29
f 86/233/18 89/232/18 88/244/18
f 88/245/17 89/246/17 90/247/17 91/248/17 93/249/17 95/250/17 96/251/17 99/252/17
f 90/253/15 87/254/15 92/255/15 91/256/15
f 91/257/13 92/258/13 94/259/13 93/260/13
f 94/259/24 97/261/24 95/262/24 93/260/24
f 95/263/13 97/264/13 98/265/13 96/266/13
f 98/267/36 99/268/36 96/269/36
