# Blender 4.0.2
# www.blender.org
mtllib Debris20.mtl
o Debris20
v -161.207809 46.736542 -23.577110
v -161.131851 46.764557 -23.590544
v -161.672531 47.684288 -23.319662
v -161.130646 46.658882 -23.495125
v -160.688675 46.719139 -23.480692
v -160.514374 46.710155 -21.789577
v -160.306122 46.711838 -20.408121
v -161.065628 47.834370 -21.484192
v -160.913376 47.907047 -20.968924
v -160.754822 47.626926 -20.159538
v -160.681549 47.815434 -20.029280
v -160.475266 47.715603 -19.981337
v -160.380707 47.910862 -19.837507
v -160.403564 47.667740 -19.675707
v -160.001953 46.750301 -20.243555
v -159.953903 46.750690 -19.924818
v -160.281601 46.704449 -19.855173
v -160.549637 46.671909 -20.069941
v -160.681503 47.520023 -19.633627
v -160.934402 47.456635 -19.856777
v -160.602646 47.700386 -19.463318
v -160.874802 47.632168 -19.703461
v -161.254562 48.457390 -19.461256
v -160.303543 47.859352 -19.508602
v -160.990967 48.597477 -19.501162
v -161.058975 48.642868 -19.791012
v -161.324097 48.558777 -19.960011
v -161.494400 48.397274 -19.672884
v -163.459198 46.258659 -19.312202
v -164.205322 46.176769 -20.357574
v -163.083725 46.314346 -19.531385
v -164.734421 46.529922 -22.612686
v -164.166077 46.195560 -21.047806
v -164.520889 46.432388 -22.560125
v -164.403824 46.193638 -22.624985
v -164.708008 46.155170 -22.789543
v -164.756058 46.154785 -23.108280
v -164.800446 46.343719 -22.738327
v -164.872162 46.391579 -23.043961
v -165.035263 46.434498 -22.804457
v -165.160828 47.341824 -22.405642
v -165.112442 46.486004 -23.133364
v -164.813339 46.644970 -23.178648
v -165.228836 47.387215 -22.695488
v -164.965240 47.527306 -22.735394
v -164.725388 47.587418 -22.523769
v -164.541183 46.713188 -22.938505
v -164.895691 47.425919 -22.236643
v -162.938660 47.564869 -23.181114
v -164.341324 46.602684 -22.862890
v -162.679977 47.485622 -23.114401
v -164.594223 46.539295 -23.086035
v -164.160324 46.233562 -22.963160
v -164.428345 46.201023 -23.177927
v -161.084305 46.667595 -23.616882
v -160.895660 46.699493 -23.928705
v -160.567963 46.745731 -23.998348
v -161.065857 47.046574 -23.834423
v -160.769135 47.156013 -23.886900
v -160.598755 46.906921 -23.635927
v -160.519913 46.746120 -23.679611
v -162.548996 47.218479 -23.186970
v -161.331711 47.630219 -22.505419
v -161.532822 48.040386 -22.394001
v -160.954727 47.948669 -21.012865
v -160.915787 47.971775 -21.027630
vn -0.1148 0.6650 0.7380
vn 0.8176 0.4851 -0.3100
vn 0.1357 -0.9906 -0.0192
vn 0.3416 0.3987 -0.8511
vn -0.4277 0.8723 0.2370
vn 0.1149 -0.6646 -0.7383
vn -0.2258 0.1507 -0.9624
vn 0.8752 0.4652 -0.1325
vn 0.9479 -0.1938 -0.2528
vn 0.3917 0.4151 -0.8211
vn 0.9303 -0.2599 -0.2589
vn 0.8753 0.4652 -0.1325
vn 0.2258 -0.1507 0.9624
vn -0.5234 -0.4527 0.7218
vn 0.4577 -0.7080 0.5378
vn 0.1039 0.0868 0.9908
vn 0.7299 0.6805 -0.0647
vn -0.6151 -0.4729 -0.6309
vn 0.4459 -0.6699 0.5936
vn -0.4052 -0.9130 -0.0479
vn -0.8752 -0.4652 0.1325
vn -0.3917 -0.4151 0.8211
vn -0.8753 -0.4651 0.1325
vn -0.3435 -0.9368 -0.0661
vn -0.9575 -0.2163 0.1908
vn -0.3917 -0.4152 0.8211
vn 0.1291 -0.4886 -0.8629
vn -0.3315 0.3774 -0.8647
vn 0.5234 0.4527 -0.7218
vn 0.8708 -0.0485 0.4892
vn 0.5234 0.4528 -0.7218
vn 0.0968 -0.4369 -0.8943
vn -0.8146 -0.2584 -0.5193
vn 0.8753 0.4651 -0.1325
vn 0.7369 0.1847 0.6502
vt 0.253377 0.560825
vt 0.266298 0.549317
vt 0.292365 0.551421
vt 0.292365 0.572780
vt 0.270832 0.585924
vt 0.270832 0.591392
vt 0.261964 0.589294
vt 0.469784 0.648771
vt 0.466891 0.652706
vt 0.458775 0.617506
vt 0.372907 0.617742
vt 0.360233 0.497534
vt 0.365631 0.490192
vt 0.438020 0.489993
vt 0.438182 0.548914
vt 0.469510 0.548828
vt 0.341513 0.022536
vt 0.341416 0.000000
vt 0.362863 0.001175
vt 0.373552 0.015000
vt 0.366614 0.043919
vt 0.486233 0.026547
vt 0.579175 0.031638
vt 0.594037 0.013844
vt 0.615481 0.015018
vt 0.615579 0.037551
vt 0.597933 0.052281
vt 0.598689 0.226525
vt 0.607894 0.254240
vt 0.529579 0.289153
vt 0.485085 0.277170
vt 0.378975 0.271358
vt 0.364114 0.289153
vt 0.342670 0.287978
vt 0.342572 0.265445
vt 0.360218 0.250715
vt 0.359299 0.039209
vt 0.140720 0.786056
vt 0.140720 0.897981
vt 0.109391 0.897981
vt 0.109391 0.801067
vt 0.129796 0.801067
vt 0.069542 0.854579
vt 0.472341 0.650651
vt 0.429702 0.296831
vt 0.457895 0.296754
vt 0.458242 0.423219
vt 0.437837 0.423275
vt 0.364897 0.495610
vt 0.357491 0.495630
vt 0.955399 0.207901
vt 0.955399 0.293770
vt 0.863697 0.293769
vt 0.863697 0.223874
vt 0.920797 0.304145
vt 0.925248 0.307901
vt 0.856135 0.307901
vt 0.707469 0.678582
vt 0.681294 0.700760
vt 0.684177 0.676149
vt 0.707324 0.661365
vt 0.785076 0.755537
vt 0.757614 0.775602
vt 0.726948 0.655044
vt 0.708156 0.654914
vt 0.802925 0.729746
vt 0.802925 0.580608
vt 0.707115 0.631366
vt 0.772033 0.565895
vt 0.680858 0.609116
vt 0.745844 0.544365
vt 0.707157 0.648938
vt 0.683574 0.633780
vt 0.703340 0.655245
vt 0.703371 0.655303
vt 0.703392 0.655208
vt 0.703462 0.655260
vt 0.927088 0.540720
vt 0.902380 0.540720
vt 0.900546 0.519113
vt 0.914734 0.504924
vt 0.928922 0.519113
vt 0.703417 0.655345
vt 0.903292 0.336069
vt 0.886674 0.498837
vt 0.871848 0.504924
vt 0.891830 0.309210
vt 0.216558 0.594793
vt 0.019826 0.594793
vt 0.000000 0.574967
vt 0.000000 0.505855
vt 0.003117 0.506448
vt 0.021793 0.408265
vt 0.111563 0.341416
vt 0.233552 0.341416
vt 0.253377 0.361242
vt 0.253377 0.517356
vt 0.946302 0.504924
vt 0.336870 0.549317
vt 0.336870 0.705431
vt 0.322738 0.697869
vt 0.322738 0.593176
vt 0.304502 0.697869
vt 0.403848 0.879235
vt 0.400035 0.897453
vt 0.376506 0.892841
vt 0.380203 0.878285
vt 0.355370 0.886236
vt 0.360600 0.868567
vt 0.362800 0.903145
vt 0.341416 0.898750
vt 0.386554 0.906005
vt 0.371388 0.966938
vt 0.350350 0.964744
vt 0.392639 0.971511
vt 0.973953 0.503159
vt 0.953256 0.498764
vt 0.946302 0.481942
vt 0.968575 0.486670
vt 0.976691 0.421999
vt 0.996319 0.426166
vt 0.920340 0.946437
vt 0.934528 0.932248
vt 0.948717 0.946437
vt 0.946882 0.968043
vt 0.922174 0.968043
vt 0.414597 0.904116
vt 0.437797 0.895739
vt 0.437797 0.962465
vt 0.417352 0.969846
vt 0.399819 0.897809
vt 0.421378 0.890025
vt 0.472006 0.289153
vt 0.472341 0.411141
vt 0.996319 0.507907
vt 0.990464 0.535486
vt 0.968587 0.528433
vt 0.375620 0.518447
vt 0.349109 0.518520
vt 0.372755 0.539614
vt 0.341416 0.539700
vt 0.886034 0.955253
vt 0.875356 0.961322
vt 0.861697 0.944749
vt 0.888941 0.929264
vt 0.888941 0.972310
vt 0.949500 0.516456
s 0
usemtl (null)
f 5/1/1 60/2/1 59/3/1 58/4/1 2/5/1 1/6/1 4/7/1
f 65/8/2 9/9/2 8/10/2 6/11/2 4/12/2 1/13/2 3/14/2 63/15/2 64/16/2
f 56/17/3 57/18/3 61/19/3 5/20/3 4/21/3 6/22/3 7/23/3 15/24/3 16/25/3 17/26/3 18/27/3 31/28/3 29/29/3 30/30/3 33/31/3 35/32/3 36/33/3 37/34/3 54/35/3 53/36/3 55/37/3
f 49/38/4 64/39/4 63/40/4 62/41/4 51/42/4
f 3/43/5 62/41/5 63/40/5
f 66/44/6 9/9/6 65/8/6
s 1
f 53/45/7 50/46/7 51/47/7 62/48/7 3/14/7 1/13/7 2/49/7 55/50/7
f 6/51/8 8/52/8 10/53/8 7/54/8
f 9/55/9 66/56/9 11/57/9 10/53/9 8/52/9
f 12/58/10 10/59/10 11/60/10 13/61/10
f 12/58/10 15/62/10 7/63/10 10/59/10
f 14/64/11 12/58/11 13/61/11 24/65/11
f 15/62/12 12/58/12 14/64/12 16/66/12
f 16/67/13 14/64/13 19/68/13 17/69/13
f 17/69/14 19/68/14 20/70/14 18/71/14
f 20/70/14 19/68/14 21/72/14 22/73/14
f 19/68/15 14/64/15 24/65/15 21/72/15
f 22/73/14 21/72/14 23/74/14 28/75/14
f 21/72/16 24/65/16 25/76/16 23/74/16
f 24/65/17 13/61/17 26/77/17 25/76/17
f 27/78/5 28/79/5 23/80/5 25/81/5 26/82/5
f 13/61/10 11/60/10 27/83/10 26/77/10
f 11/60/18 22/73/18 28/75/18 27/83/18
f 31/84/19 20/85/19 22/86/19 29/87/19
f 29/88/5 22/89/5 11/90/5 66/91/5 65/92/5 64/93/5 49/94/5 47/95/5 32/96/5 30/97/5
f 18/98/13 20/85/13 31/84/13
f 30/99/20 32/100/20 34/101/20 33/102/20
f 34/101/21 35/103/21 33/102/21
f 35/104/22 34/105/22 38/106/22 36/107/22
f 36/107/23 38/106/23 39/108/23 37/109/23
f 39/108/24 38/106/24 40/110/24 42/111/24
f 38/106/22 34/105/22 32/112/22 40/110/22
f 42/111/25 40/110/25 41/113/25 44/114/25
f 40/110/22 32/112/22 48/115/26 41/113/26
f 52/116/27 39/117/27 42/118/27 43/119/27
f 43/119/28 42/118/28 44/120/28 45/121/28
f 45/122/5 44/123/5 41/124/5 48/125/5 46/126/5
f 47/127/29 43/128/29 45/129/29 46/130/29
f 32/112/30 47/127/30 46/130/30 48/115/30
f 50/131/31 52/132/31 43/128/29 47/127/29
f 51/47/32 50/46/32 47/133/32 49/134/32
f 50/135/31 53/136/31 54/137/31 52/116/31
f 55/50/33 2/49/33 58/138/33 56/139/33
f 58/138/7 59/140/7 57/141/7 56/139/7
f 60/142/34 61/143/34 57/144/34 59/145/34
f 61/143/35 60/142/35 5/146/35
f 52/116/7 54/137/7 37/147/7 39/117/7
