# Blender 4.0.2
# www.blender.org
mtllib Debris15.mtl
o Debris15
v 0.076843 -1.776959 -1.334894
v 0.076843 -2.271534 -1.334894
v 0.111099 -1.313423 -1.021856
v 1.605148 -1.776958 -0.107937
v -1.991898 -1.776958 1.241934
v -1.693680 -1.313423 1.226160
v -1.988235 -2.271534 1.237370
v -0.010117 -2.271534 1.105879
v 1.601669 -2.271534 -0.110721
v 0.008057 3.455879 1.154711
v 1.252319 3.153488 0.212240
v -1.391296 3.196259 1.245460
v -0.014389 2.445759 -0.469605
v -1.366333 -0.171726 1.214376
v -1.699005 -0.594879 1.232792
v -0.014389 -0.171726 -0.469604
v -0.076782 -0.594879 -0.787851
v -0.076782 2.234760 -0.787850
v 0.111099 2.132362 -1.021856
v 0.345093 2.301411 -0.833988
v 0.352966 2.503788 -0.509779
v 0.345093 -0.594879 -0.833988
v 0.352966 -0.171726 -0.509779
v 1.430115 -0.594879 0.037090
v 1.425064 -1.313423 0.033047
v 1.229004 -0.171726 0.193522
vn -0.7798 -0.0000 -0.6260
vn 0.6260 -0.0000 -0.7798
vn -0.7029 0.4330 -0.5643
vn 0.5643 0.4330 -0.7029
vn 0.0663 -0.0087 0.9978
vn -0.0000 -1.0000 -0.0000
vn 0.6024 -0.0087 0.7981
vn -0.1885 0.8351 -0.5168
vn -0.6728 0.5055 -0.5402
vn -0.9813 -0.0000 0.1924
vn -0.7798 -0.0000 -0.6261
vn 0.6261 -0.0000 -0.7798
vn 0.9997 -0.0000 -0.0243
vn 0.5402 0.5055 -0.6728
vt 0.922559 0.335731
vt 0.922559 0.503750
vt 0.897412 0.503750
vt 0.897412 0.336028
vt 1.000000 0.335957
vt 1.000000 0.435381
vt 0.974853 0.435381
vt 0.974853 0.335731
vt 0.948706 0.345849
vt 0.948706 0.492428
vt 0.948706 0.424059
vt 0.948706 0.338382
vt 0.385483 0.563058
vt 0.385871 0.526523
vt 0.370750 0.502914
vt 0.371016 0.477767
vt 0.471816 0.478029
vt 0.471816 0.769255
vt 0.400551 0.755868
vt 0.402367 0.584619
vt 0.652190 0.745356
vt 0.652190 0.913078
vt 0.552765 0.913078
vt 0.577945 0.813535
vt 0.655563 0.745089
vt 0.552886 0.745356
vt 0.552765 0.720208
vt 0.564330 0.696608
vt 0.564154 0.660073
vt 0.577052 0.638523
vt 0.576239 0.469445
vt 0.655563 0.453863
vt 0.989553 0.000000
vt 0.991292 0.016028
vt 0.978550 0.031016
vt 0.991292 0.148488
vt 0.927584 0.113857
vt 0.897412 0.038859
vt 0.962329 0.021087
vt 0.972662 0.004624
vt 0.902506 0.869207
vt 0.792704 0.869207
vt 0.790677 0.697960
vt 0.902506 0.736120
vt 0.508351 0.924916
vt 0.508351 0.793162
vt 0.533287 0.804482
vt 0.533287 0.914284
vt 0.950743 0.852563
vt 0.934254 0.831047
vt 0.934254 0.697960
vt 0.950743 0.708688
vt 0.471816 0.940174
vt 0.471816 0.793594
vt 0.966001 0.889098
vt 0.966001 0.713895
vt 0.917764 0.708250
vt 0.917764 0.855514
vt 0.902506 0.892049
vt 0.902506 0.716846
vt 0.934254 0.833998
vt 0.927442 0.962796
vt 0.902506 0.952164
vt 0.902506 0.895043
vt 0.927442 0.892049
vt 0.963976 0.978054
vt 0.963976 0.892377
vt 0.166177 0.789827
vt 0.109059 0.790340
vt 0.107836 0.654308
vt 0.166177 0.620747
s 0
usemtl (null)
f 5/1/1 1/2/1 2/3/1 7/4/1
f 9/5/2 2/6/2 1/7/2 4/8/2
f 1/2/3 5/1/3 6/9/3 3/10/3
f 1/7/4 3/11/4 25/12/4 4/8/4
f 15/13/5 6/14/5 5/15/5 7/16/5 8/17/5 10/18/5 12/19/5 14/20/5
f 7/21/6 2/22/6 9/23/6 8/24/6
f 8/25/7 9/26/7 4/27/7 25/28/7 24/29/7 26/30/7 11/31/7 10/32/7
f 19/33/8 18/34/8 13/35/8 12/36/8 10/37/8 11/38/8 21/39/8 20/40/8
f 16/41/1 14/42/1 12/43/1 13/44/1
f 17/45/9 15/46/9 14/47/9 16/48/9
f 17/49/10 16/50/10 13/51/10 18/52/10
f 15/46/1 17/45/1 3/53/1 6/54/1
f 3/55/11 17/49/11 18/52/11 19/56/11
f 20/57/12 22/58/12 3/59/12 19/60/12
f 21/51/13 23/61/13 22/58/13 20/57/13
f 22/62/14 23/63/14 26/64/14 24/65/14
f 3/66/2 22/62/2 24/65/2 25/67/2
f 26/68/2 23/69/2 21/70/2 11/71/2
