# Blender 4.0.2
# www.blender.org
mtllib Debris10.mtl
o Debris10
v -2.546036 0.584801 0.693170
v -2.668472 -0.175564 0.986176
v -1.760468 0.584801 -1.186832
v -2.422165 0.754261 0.654181
v -2.546036 0.755333 0.693170
v -2.668472 0.730816 0.986175
v -2.375473 0.706719 1.108610
v -2.291702 0.707672 1.065605
v -2.375473 0.584801 1.108610
v -0.893021 0.584801 1.728058
v 0.838058 0.442440 2.451397
v 1.076202 -0.175564 2.550909
v 1.076202 0.422856 2.550909
v 1.175766 0.442791 2.312623
v 1.884995 0.584801 0.615317
v 2.445435 0.584801 -0.725894
v 2.397720 0.705963 -0.795786
v 1.539673 0.787567 -1.264172
v 1.612823 0.806568 -1.482572
v 1.939468 -1.189442 -0.316998
v 2.393906 -1.189442 -1.552372
v 2.426193 -1.189442 -0.068704
v 2.493973 -0.666080 -0.230885
v 1.202774 -1.189441 2.859168
v 1.202774 -0.666080 2.859168
v -2.976746 -1.189442 1.112742
v -2.976746 -0.666080 1.112741
v -2.200729 -1.189442 -0.744414
v 0.011154 -1.189442 0.383928
v -2.132950 -0.666081 -0.906593
v -1.858932 -0.175564 -0.951210
v 0.945999 -1.189442 -2.157390
v -0.390182 0.795177 -0.566891
v -1.551071 0.905582 -1.200599
v 0.102982 0.923290 -2.039355
v 0.282547 0.584801 -2.179235
v 1.730469 0.584801 -1.574216
v 0.531982 -0.175564 -2.075011
v 1.979904 -0.175564 -1.469993
v 0.774307 -0.666081 -2.229126
v 2.222229 -0.666081 -1.624108
v 2.346970 -0.175564 -0.490270
vn -0.9227 -0.0000 -0.3856
vn -0.8940 0.2475 -0.3736
vn -0.9227 -0.0000 -0.3855
vn -0.9074 0.1812 -0.3792
vn -0.7962 0.5054 -0.3327
vn -0.3002 -0.0000 -0.9539
vn 0.0400 0.9942 0.0999
vn -0.3856 -0.0000 0.9227
vn -0.3736 0.2475 0.8940
vn 0.4567 -0.0000 0.8896
vn -0.3327 0.5054 0.7962
vn 0.9227 -0.0000 0.3855
vn 0.8940 0.2475 0.3736
vn 0.9083 0.1761 0.3795
vn 0.9227 -0.0000 0.3856
vn 0.7962 0.5054 0.3327
vn 0.4309 -0.3175 -0.8447
vn 0.8844 0.3347 0.3253
vn -0.0000 -1.0000 -0.0000
vn 0.8890 0.2675 0.3715
vn 0.9061 0.1887 0.3786
vn -0.3786 0.1887 0.9061
vn -0.3855 -0.0000 0.9227
vn -0.9061 0.1887 -0.3786
vn -0.8899 0.2641 -0.3719
vn 0.4309 -0.3176 -0.8447
vn -0.8844 -0.3347 -0.3253
vn 0.3327 0.5055 -0.7961
vn 0.3855 -0.0000 -0.9227
vn 0.3715 0.2673 -0.8891
vn 0.3794 0.1777 -0.9080
vn 0.3856 -0.0000 -0.9227
vt 0.840697 0.945177
vt 0.843412 0.996481
vt 0.818909 0.945559
vt 0.836087 0.935597
vt 0.926590 0.132860
vt 0.926590 0.005826
vt 0.973997 0.021747
vt 0.973997 0.152659
vt 0.903411 0.000000
vt 0.914345 0.127639
vt 0.843412 0.932146
vt 0.245658 0.548329
vt 0.245658 0.564467
vt 0.229509 0.564373
vt 0.114481 0.563703
vt 0.020703 0.558719
vt 0.014365 0.497889
vt 0.000000 0.496760
vt 0.004276 0.396256
vt 0.101123 0.403865
vt 0.092547 0.321564
vt 0.220565 0.316767
vt 0.225801 0.310591
vt 0.245658 0.310706
vt 0.245658 0.330562
vt 0.241157 0.334332
vt 0.245658 0.431021
vt 0.884375 0.992969
vt 0.887547 0.936548
vt 0.904653 0.984992
vt 0.904227 0.992581
vt 0.910085 0.992969
vt 0.530788 0.601420
vt 0.578195 0.581621
vt 0.578195 0.834654
vt 0.539664 0.818562
vt 0.530788 0.701590
vt 0.875439 0.159428
vt 0.884317 0.155642
vt 0.884317 0.255813
vt 0.540885 0.834654
vt 0.304538 0.535673
vt 0.267360 0.538798
vt 0.304428 0.519524
vt 0.250148 0.334024
vt 0.296055 0.314187
vt 0.303645 0.404496
vt 0.304538 0.310591
vt 0.763800 0.972966
vt 0.762280 0.963877
vt 0.778797 0.916675
vt 0.775667 0.881024
vt 0.787035 0.848534
vt 0.818909 0.860558
vt 0.818909 0.999490
vt 0.402824 0.877962
vt 0.402094 0.827653
vt 0.409989 0.812980
vt 0.424342 0.814238
vt 0.471160 0.945043
vt 0.389092 0.945043
vt 0.388590 0.910416
vt 0.586954 0.446261
vt 0.586954 0.544099
vt 0.504962 0.547652
vt 0.502379 0.581621
vt 0.304538 0.581621
vt 0.304538 0.299205
vt 0.430029 0.299205
vt 0.418287 0.453571
vt 0.879439 0.925160
vt 0.879439 0.716361
vt 0.912070 0.716361
vt 0.912070 0.914201
vt 0.921888 0.186117
vt 0.921888 0.468532
vt 0.889258 0.468532
vt 0.889258 0.186117
vt 0.945998 0.861963
vt 0.945998 0.725514
vt 0.978628 0.736473
vt 0.978628 0.861963
vt 0.869000 0.155642
vt 0.836748 0.141688
vt 0.786754 0.142896
vt 0.765662 0.131655
vt 0.772921 0.049227
vt 0.903411 0.154811
vt 0.912070 0.847272
vt 0.749473 0.324759
vt 0.771868 0.312709
vt 0.822176 0.313439
vt 0.854631 0.299205
vt 0.889258 0.299707
vt 0.757949 0.421534
vt 0.530788 0.851508
vt 0.530788 0.949346
vt 0.506329 0.956313
vt 0.514763 0.856073
vt 0.578195 0.932492
vt 0.978628 0.959801
vt 0.944700 0.970037
vt 0.944700 0.872199
vt 0.912070 0.981638
vt 0.912070 0.883800
vt 0.955816 0.200808
vt 0.955816 0.453841
vt 0.845511 0.936548
vt 0.845511 0.731051
s 1
usemtl (null)
f 1/1/1 2/2/2 6/3/1 5/4/1
f 1/5/1 3/6/3 31/7/4 2/8/2
f 34/9/5 3/6/5 1/5/5 4/10/5
f 5/4/6 4/11/6 1/1/6
f 11/12/7 13/13/7 14/14/7 15/15/7 17/16/7 18/17/7 19/18/7 35/19/7 33/20/7 34/21/7 4/22/7 5/23/7 6/24/7 7/25/7 8/26/7 10/27/7
f 6/28/8 2/29/9 9/30/8 7/31/8
f 7/31/10 9/30/10 8/32/10
f 9/33/8 2/34/9 12/35/9 11/36/8 10/37/8
f 8/38/11 9/39/11 10/40/11
f 11/36/8 12/35/9 13/41/8
f 13/42/12 12/43/13 14/44/12
f 14/44/12 12/43/13 42/45/14 16/46/15 15/47/15
f 15/47/16 16/46/16 17/48/16
f 17/49/17 16/50/17 42/51/17 23/52/17 22/53/17 20/54/17 18/55/17
f 39/56/18 37/57/18 19/58/18 18/59/18 20/60/18 21/61/18 41/62/18
f 32/63/19 21/64/19 20/65/19 22/66/19 24/67/19 26/68/19 28/69/19 29/70/19
f 23/71/20 25/72/21 24/73/12 22/74/12
f 25/75/22 27/76/22 26/77/23 24/78/23
f 27/79/24 30/80/25 28/81/1 26/82/1
f 30/83/26 31/84/26 3/85/26 34/86/26 33/87/26 29/9/26 28/88/26
f 2/89/2 31/73/4 30/80/25 27/79/24
f 35/90/27 36/91/27 38/92/27 40/93/27 32/94/27 29/77/27 33/95/27
f 37/96/28 36/97/28 35/98/28 19/99/28
f 36/97/29 37/96/29 39/35/30 38/100/31
f 38/82/31 39/101/30 41/102/31 40/103/30
f 40/103/30 41/102/31 21/104/32 32/105/32
f 27/76/22 25/75/22 12/106/9 2/107/9
f 42/108/14 12/109/13 25/72/21 23/71/20
