# Blender 4.0.2
# www.blender.org
mtllib Debris25.mtl
o Debris25
v -211.106567 47.435463 -16.141659
v -211.095184 47.424232 -16.061176
v -211.106567 48.521957 -16.141659
v -211.910797 46.807144 -15.867453
v -211.817657 46.827507 -15.679634
v -212.498749 46.769798 -15.666990
v -212.829346 47.242153 -15.554269
v -212.476852 46.776985 -15.586325
v -212.748581 46.756161 -15.547858
v -212.826675 47.246353 -15.536803
v -212.970413 46.655617 -16.786129
v -213.139099 46.643269 -16.753386
v -213.330872 48.992165 -16.672585
v -214.844788 48.992165 -16.376709
v -213.098068 48.992165 -15.462646
v -211.943604 48.992165 -15.856267
v -213.078796 48.866695 -15.469216
v -212.918823 48.828213 -15.523761
v -213.078644 48.828213 -15.501135
v -212.918823 47.824825 -15.523761
v -211.139023 48.992165 -17.330933
v -211.943604 48.521957 -15.856267
v -211.246918 48.521957 -17.133160
v -211.246918 48.828213 -17.133160
v -211.512955 48.828213 -19.012543
v -211.284241 48.828213 -19.268396
v -211.395645 48.992165 -19.143787
v -211.512955 46.634384 -19.012543
v -211.284241 46.637207 -19.268396
v -211.095184 46.864502 -16.061176
v -210.804428 46.901489 -15.878855
v -210.804428 47.584217 -15.878855
v -210.759918 46.926003 -15.564429
v -210.759918 47.540337 -15.564429
v -211.074356 46.901905 -15.519921
v -211.074356 47.309647 -15.519921
v -211.330200 46.864868 -15.748640
v -211.330200 47.185154 -15.748640
v -211.328751 46.612690 -19.582821
v -211.643173 46.588596 -19.538313
v -211.328751 48.828213 -19.582821
v -211.197403 48.992165 -19.757490
v -211.643173 48.828213 -19.538313
v -211.535782 48.992165 -19.709593
v -211.825500 48.828213 -19.247570
v -214.776871 48.828213 -18.829781
v -211.825500 46.592056 -19.247570
v -211.731979 48.992165 -19.396708
v -211.888916 49.931828 -19.146444
v -214.908112 48.992165 -18.947102
v -214.740326 49.708073 -18.797110
v -215.183456 48.992165 -19.193241
v -215.161026 48.992165 -18.610771
v -215.011902 48.828213 -18.517250
v -215.036636 49.459206 -18.532770
v -215.473923 48.992165 -18.806974
v -215.302643 48.828213 -18.699564
v -215.521820 48.992165 -19.145340
v -215.282349 49.618488 -18.686838
v -215.249329 49.865761 -18.940422
v -214.941498 49.891075 -18.976942
v -215.347153 48.828213 -19.013990
v -215.032730 48.828213 -19.058498
v -215.347153 46.304733 -19.013990
v -215.302643 46.329243 -18.699566
v -215.032730 46.328827 -19.058498
v -214.776871 46.365868 -18.829781
v -215.011902 46.366234 -18.517250
v -214.909836 46.422443 -17.796272
v -214.848358 47.728271 -17.362043
v -213.377121 46.550480 -17.852619
v -213.142105 47.111832 -17.679468
v -213.082611 46.803772 -16.761467
v -214.716629 47.386051 -16.431383
v -214.712952 48.828213 -16.405495
v -211.716003 49.931828 -19.422174
v -211.592514 49.931828 -18.923561
v -211.375610 49.931831 -19.166199
v -211.417816 49.931828 -19.464386
v -211.149506 48.992165 -19.419127
vn -0.5628 0.8040 0.1919
vn 0.3227 -0.0000 0.9465
vn 0.0855 -0.9942 0.0654
vn 0.7610 0.5945 -0.2595
vn -0.9696 -0.1586 0.1866
vn 0.1918 -0.0181 0.9813
vn 0.8778 -0.0000 0.4790
vn -0.0000 1.0000 -0.0000
vn 0.0243 0.7142 0.6996
vn 0.0613 -0.3175 0.9463
vn -0.9264 0.3347 0.1723
vn -0.3714 -0.8872 -0.2737
vn 0.9901 -0.0000 -0.1402
vn 0.9150 -0.3820 -0.1295
vn 0.9617 -0.2380 -0.1361
vn 0.1402 -0.0000 0.9901
vn 0.1394 -0.1023 0.9849
vn 0.1084 -0.6344 0.7654
vn 0.1305 -0.3643 0.9221
vn 0.7654 -0.6344 -0.1083
vn 0.7455 -0.0000 0.6665
vn 0.5313 -0.0000 -0.8472
vn -0.6665 -0.0000 0.7455
vn 0.8951 -0.4274 -0.1267
vn 0.9463 -0.2941 -0.1340
vn -0.1402 -0.0000 -0.9901
vn -0.1340 -0.2941 -0.9463
vn -0.1267 -0.4274 -0.8951
vn 0.7205 -0.6859 -0.1020
vn -0.1020 -0.6859 -0.7205
vn -0.8472 -0.0000 -0.5313
vn -0.1295 -0.3820 -0.9150
vn -0.1083 -0.6344 -0.7654
vn -0.5735 -0.2989 0.7627
vn 0.6665 -0.0000 -0.7455
vn 0.7627 -0.2989 0.5735
vn -0.5313 -0.0000 0.8472
vn -0.7653 -0.6344 0.1083
vn -0.9150 -0.3820 0.1295
vn -0.9298 -0.3439 0.1316
vn -0.8951 -0.4274 0.1267
vn -0.9463 -0.2941 0.1340
vn -0.7205 -0.6859 0.1020
vn -0.9545 0.2660 0.1351
vn -0.1351 0.2660 -0.9544
vn -0.1267 -0.4274 -0.8952
vn -0.9901 -0.0000 0.1402
vn 0.9545 0.2660 -0.1351
vn -0.1351 0.2660 -0.9545
vt 0.382713 0.608204
vt 0.402340 0.599694
vt 0.423933 0.605115
vt 0.415690 0.618242
vt 0.401209 0.630618
vt 0.400543 0.635342
vt 0.338944 0.612769
vt 0.344755 0.602050
vt 0.909825 0.357739
vt 0.919130 0.415093
vt 0.919130 0.449276
vt 0.903544 0.479515
vt 0.867691 0.483141
vt 0.813295 0.455105
vt 0.803220 0.393000
vt 0.853770 0.384799
vt 0.849409 0.357921
vt 0.919130 0.346610
vt 0.919130 0.353971
vt 0.235690 0.547454
vt 0.217248 0.547347
vt 0.204398 0.532036
vt 0.175807 0.531870
vt 0.171980 0.520289
vt 0.136542 0.526824
vt 0.137144 0.531645
vt 0.121205 0.531552
vt 0.118530 0.458521
vt 0.108563 0.458972
vt 0.103824 0.393793
vt 0.015234 0.384041
vt 0.015234 0.341748
vt 0.000000 0.328808
vt 0.000000 0.310364
vt 0.018442 0.310472
vt 0.031292 0.325782
vt 0.204398 0.326790
vt 0.217248 0.311630
vt 0.235690 0.311737
vt 0.235690 0.330181
vt 0.220456 0.342944
vt 0.220456 0.516070
vt 0.235690 0.529010
vt 0.899000 0.847797
vt 0.897982 0.847532
vt 0.912280 0.816662
vt 0.916676 0.818729
vt 0.898612 0.745133
vt 0.969951 0.746441
vt 0.969951 0.883505
vt 0.897229 0.876273
vt 0.898871 0.813615
vt 0.900411 0.754783
vt 0.898640 0.752493
vt 0.713533 0.981624
vt 0.723765 0.844942
vt 0.812772 0.837391
vt 0.805791 0.847514
vt 0.812772 0.930748
vt 0.719436 0.972511
vt 0.723510 0.981495
vt 0.787467 0.308585
vt 0.868735 0.362051
vt 0.783401 0.338503
vt 0.793148 0.323688
vt 0.745991 0.281848
vt 0.718886 0.280525
vt 0.715653 0.261924
vt 0.729475 0.250377
vt 0.745991 0.262688
vt 0.226854 0.882419
vt 0.133540 0.857021
vt 0.199378 0.782556
vt 0.250974 0.862029
vt 0.252643 0.928158
vt 0.241200 0.928412
vt 0.130543 0.928412
vt 0.337225 0.693387
vt 0.337381 0.635173
vt 0.433748 0.630705
vt 0.446662 0.804026
vt 0.319126 0.803685
vt 0.319422 0.693340
vt 0.896488 0.818819
vt 0.582121 0.366686
vt 0.660143 0.308585
vt 0.766169 0.308585
vt 0.783401 0.325816
vt 0.783401 0.511575
vt 0.766169 0.528806
vt 0.635509 0.528806
vt 0.640186 0.439602
vt 0.568922 0.436074
vt 0.893579 0.761163
vt 0.933236 0.803631
vt 0.306778 0.810250
vt 0.307063 0.703811
vt 0.446445 0.823976
vt 0.319073 0.823635
vt 0.372516 0.893835
vt 0.375950 0.914334
vt 0.368100 0.926439
vt 0.364484 0.905991
vt 0.422019 0.656546
vt 0.436541 0.642073
vt 0.447821 0.628781
vt 0.407706 0.572513
vt 0.390065 0.581037
vt 0.372076 0.590606
vt 0.447821 0.842440
vt 0.319024 0.842096
vt 0.627867 0.230748
vt 0.757560 0.230748
vt 0.757560 0.249137
vt 0.629263 0.249137
vt 0.383624 0.931552
vt 0.373597 0.944879
vt 0.383624 0.855768
vt 0.375950 0.872986
vt 0.368100 0.860881
vt 0.373598 0.842441
vt 0.628068 0.210875
vt 0.757560 0.210875
vt 0.372516 0.893485
vt 0.364484 0.881329
vt 0.757560 0.038262
vt 0.769842 0.031690
vt 0.769842 0.217448
vt 0.614970 0.038262
vt 0.306778 0.904526
vt 0.306778 0.882794
vt 0.312035 0.864459
vt 0.629249 0.893103
vt 0.640932 0.889389
vt 0.633939 0.946237
vt 0.614153 0.933732
vt 0.592896 0.899664
vt 0.621368 0.886742
vt 0.628078 0.888321
vt 0.633197 0.888104
vt 0.627946 0.882073
vt 0.627255 0.887402
vt 0.627053 0.874933
vt 0.130543 0.782556
vt 0.124497 0.795106
vt 0.001101 0.800344
vt 0.000000 0.788097
vt 0.580372 0.870802
vt 0.635461 0.880432
vt 0.658029 0.856978
vt 0.568922 0.838212
vt 0.658029 0.940917
vt 0.286636 0.842181
vt 0.286635 0.697470
vt 0.305025 0.697470
vt 0.305025 0.843601
vt 0.611429 0.000000
vt 0.757560 0.000000
vt 0.757560 0.018389
vt 0.612824 0.018389
vt 0.266763 0.840039
vt 0.266763 0.697470
vt 0.059696 0.861609
vt 0.006155 0.883717
vt 0.130543 0.937547
vt 0.088276 0.936083
vt 0.543416 0.732299
vt 0.555748 0.719967
vt 0.568079 0.732299
vt 0.566485 0.751078
vt 0.545010 0.751078
vt 0.312035 0.922861
vt 0.315220 0.941124
vt 0.315220 0.846196
s 0
usemtl (null)
f 38/1/1 36/2/1 34/3/1 32/4/1 2/5/1 1/6/1 4/7/1 5/8/1
f 18/9/2 20/10/2 7/11/2 6/12/2 4/13/2 1/14/2 3/15/2 22/16/2 16/17/2 15/18/2 17/19/2
f 33/20/3 35/21/3 37/22/3 5/23/3 4/24/3 6/25/3 8/26/3 9/27/3 11/28/3 12/29/3 71/30/3 69/31/3 68/32/3 65/33/3 64/34/3 66/35/3 67/36/3 47/37/3 40/38/3 39/39/3 29/40/3 28/41/3 30/42/3 31/43/3
f 7/44/4 10/45/4 8/46/4 6/47/4
f 15/48/5 13/49/5 11/50/5 9/51/5 10/45/5 7/44/5 20/52/5 19/53/5 17/54/5
f 11/55/6 13/56/6 14/57/6 75/58/6 74/59/6 73/60/6 12/61/6
f 21/62/7 16/63/7 22/16/7 23/64/7 24/65/7
f 3/15/8 23/64/8 22/16/8
f 55/66/9 51/67/9 61/68/9 60/69/9 59/70/9
f 72/71/10 70/72/10 69/73/10 71/74/10
f 12/75/11 73/76/11 72/71/11 71/74/11
f 74/77/12 70/72/12 72/71/12 73/76/12
s 1
f 23/78/13 3/79/13 1/6/13 2/5/13 30/80/13 28/81/13 25/82/14 24/83/15
f 8/46/16 10/45/16 9/84/16
f 16/85/8 21/86/8 27/87/8 48/88/8 50/89/8 53/90/8 14/91/8 13/92/8 15/93/8
f 18/94/17 17/54/18 19/53/19
f 18/94/17 19/53/19 20/95/16
f 24/83/15 25/82/14 27/96/20 21/97/20
f 29/98/21 26/99/21 25/82/21 28/81/21
f 25/100/21 26/101/21 80/102/21 27/103/21
f 30/104/22 2/5/22 32/4/22 31/105/22
f 32/4/13 34/3/13 33/106/13 31/105/13
f 33/107/16 34/3/16 36/2/16 35/108/16
f 35/108/23 36/2/23 38/1/23 37/109/23
f 38/1/16 5/8/16 37/109/16
f 39/110/13 41/111/24 26/99/25 29/98/13
f 40/112/26 43/113/27 41/114/28 39/115/26
f 26/101/25 41/116/24 42/117/29 80/102/29
f 41/118/28 43/119/27 44/120/30 42/121/30
f 47/122/31 45/123/31 43/113/31 40/112/31
f 43/119/31 45/124/31 48/125/31 44/120/31
f 45/123/32 46/126/32 50/127/33 48/128/33
f 67/129/26 46/126/32 45/123/32 47/122/26
f 48/125/34 27/103/34 77/130/34 49/131/34
f 44/120/31 48/125/31 49/131/31 76/132/31
f 50/133/35 52/134/35 61/135/35 51/136/35
f 55/137/36 53/138/36 50/133/36 51/136/36
f 46/139/35 63/140/35 52/134/35 50/133/35
f 57/141/37 54/142/37 53/138/37 56/143/37
f 53/144/38 54/145/39 75/146/40 14/147/38
f 59/148/37 56/143/37 53/138/37 55/137/37
f 62/149/41 57/141/42 56/143/43 58/150/43
f 60/151/44 58/150/44 56/143/44 59/148/44
f 52/134/45 58/150/45 60/152/45 61/135/45
f 63/140/27 62/149/46 58/150/30 52/134/30
f 65/153/47 57/154/42 62/155/41 64/156/47
f 64/157/26 62/158/46 63/159/27 66/160/26
f 66/160/35 63/159/35 46/126/35 67/129/35
f 68/161/37 54/162/37 57/154/37 65/153/37
f 70/163/47 74/164/47 75/146/40 54/145/39 68/165/47 69/166/47
f 78/167/8 79/168/8 76/169/8 49/170/8 77/171/8
f 27/103/21 80/102/21 78/172/21 77/130/21
f 80/102/48 42/117/48 79/173/48 78/172/48
f 42/121/49 44/120/49 76/132/49 79/174/49
