# Blender 4.0.2
# www.blender.org
mtllib Debris25.mtl
o Debris25
v 1.740601 -0.644062 1.491606
v 1.751984 -0.655292 1.572088
v 1.740601 0.442433 1.491606
v 0.936371 -1.272381 1.765812
v 1.029510 -1.252018 1.953631
v 0.348419 -1.309727 1.966274
v 0.017822 -0.837372 2.078996
v 0.370316 -1.302540 2.046940
v 0.098587 -1.323364 2.085406
v 0.020493 -0.833172 2.096461
v -0.123245 -1.423908 0.847136
v -0.291931 -1.436256 0.879879
v -0.483704 0.912640 0.960680
v -1.997620 0.912640 1.256555
v -0.250900 0.912640 2.170618
v 0.903564 0.912640 1.776997
v -0.231628 0.787171 2.164048
v -0.071655 0.748688 2.109504
v -0.231476 0.748688 2.132130
v -0.071655 -0.254700 2.109504
v 1.708145 0.912640 0.302332
v 0.903564 0.442433 1.776998
v 1.600250 0.442432 0.500105
v 1.600250 0.748688 0.500105
v 1.334213 0.748688 -1.379278
v 1.562927 0.748688 -1.635132
v 1.451523 0.912639 -1.510523
v 1.334213 -1.445141 -1.379278
v 1.562927 -1.442318 -1.635132
v 1.751984 -1.215023 1.572088
v 2.042740 -1.178036 1.754410
v 2.042740 -0.495308 1.754410
v 2.087250 -1.153522 2.068835
v 2.087250 -0.539188 2.068835
v 1.772812 -1.177620 2.113343
v 1.772812 -0.769878 2.113343
v 1.516968 -1.214657 1.884625
v 1.516968 -0.894371 1.884625
v 1.518417 -1.466835 -1.949556
v 1.203995 -1.490929 -1.905048
v 1.518417 0.748688 -1.949556
v 1.649765 0.912639 -2.124226
v 1.203995 0.748688 -1.905048
v 1.311386 0.912639 -2.076328
v 1.021667 0.748688 -1.614305
v -1.929703 0.748688 -1.196516
v 1.021667 -1.487469 -1.614305
v 1.115189 0.912639 -1.763443
v 0.958252 1.852302 -1.513180
v -2.060944 0.912639 -1.313837
v -1.893158 1.628548 -1.163845
v -2.336288 0.912639 -1.559977
v -2.313858 0.912640 -0.977507
v -2.164734 0.748688 -0.883986
v -2.189468 1.379681 -0.899506
v -2.626755 0.912640 -1.173710
v -2.455475 0.748688 -1.066299
v -2.674652 0.912639 -1.512076
v -2.435181 1.538963 -1.053574
v -2.402161 1.786236 -1.307158
v -2.094330 1.811550 -1.343678
v -2.499985 0.748688 -1.380726
v -2.185562 0.748688 -1.425234
v -2.499985 -1.774792 -1.380726
v -2.455475 -1.750282 -1.066301
v -2.185562 -1.750698 -1.425234
v -1.929703 -1.713657 -1.196516
v -2.164734 -1.713291 -0.883985
v -2.062668 -1.657082 -0.163008
v -2.001190 -0.351253 0.271221
v -0.529953 -1.529045 -0.219355
v -0.294937 -0.967693 -0.046204
v -0.235443 -1.275753 0.871798
v -1.869461 -0.693474 1.201881
v -1.865784 0.748688 1.227770
v 1.131165 1.852302 -1.788910
v 1.254654 1.852302 -1.290297
v 1.471558 1.852306 -1.532934
v 1.429352 1.852302 -1.831122
v 1.697662 0.912639 -1.785862
vn -0.5628 0.8040 0.1919
vn 0.3227 -0.0000 0.9465
vn 0.0855 -0.9942 0.0654
vn 0.7610 0.5946 -0.2595
vn -0.9695 -0.1587 0.1866
vn 0.1918 -0.0181 0.9813
vn 0.8778 -0.0000 0.4790
vn -0.0000 1.0000 -0.0000
vn 0.0243 0.7141 0.6996
vn 0.0613 -0.3175 0.9463
vn -0.9264 0.3347 0.1724
vn -0.3714 -0.8872 -0.2737
vn 0.9901 -0.0000 -0.1402
vn 0.9150 -0.3821 -0.1295
vn 0.9617 -0.2381 -0.1361
vn 0.1402 -0.0000 0.9901
vn 0.1394 -0.1023 0.9849
vn 0.1083 -0.6343 0.7654
vn 0.1305 -0.3643 0.9221
vn 0.7653 -0.6345 -0.1083
vn 0.7455 -0.0000 0.6665
vn 0.7455 0.0001 0.6665
vn 0.5313 -0.0000 -0.8472
vn -0.6665 -0.0000 0.7455
vn 0.8951 -0.4274 -0.1267
vn 0.9463 -0.2941 -0.1340
vn -0.1402 -0.0000 -0.9901
vn -0.1340 -0.2941 -0.9463
vn -0.1267 -0.4274 -0.8951
vn 0.7205 -0.6859 -0.1020
vn -0.1020 -0.6859 -0.7205
vn -0.8472 -0.0000 -0.5313
vn -0.8472 0.0001 -0.5313
vn -0.1295 -0.3820 -0.9150
vn -0.1083 -0.6344 -0.7654
vn -0.5735 -0.2989 0.7627
vn 0.6665 -0.0000 -0.7455
vn 0.7627 -0.2989 0.5735
vn -0.5313 -0.0000 0.8472
vn -0.5312 -0.0000 0.8472
vn -0.7654 -0.6344 0.1083
vn -0.9150 -0.3820 0.1295
vn -0.9298 -0.3438 0.1316
vn -0.8951 -0.4274 0.1267
vn -0.9463 -0.2941 0.1340
vn -0.7205 -0.6859 0.1020
vn -0.9545 0.2660 0.1351
vn -0.1351 0.2660 -0.9545
vn -0.9901 -0.0000 0.1402
vn 0.9545 0.2660 -0.1351
vt 0.382713 0.608204
vt 0.402340 0.599694
vt 0.423933 0.605115
vt 0.415690 0.618242
vt 0.401209 0.630618
vt 0.400543 0.635342
vt 0.338944 0.612769
vt 0.344755 0.602050
vt 0.909825 0.357739
vt 0.919130 0.415093
vt 0.919130 0.449276
vt 0.903544 0.479515
vt 0.867691 0.483141
vt 0.813295 0.455105
vt 0.803220 0.393000
vt 0.853770 0.384799
vt 0.849409 0.357921
vt 0.919130 0.346610
vt 0.919130 0.353971
vt 0.235690 0.547454
vt 0.217248 0.547347
vt 0.204398 0.532036
vt 0.175807 0.531870
vt 0.171980 0.520289
vt 0.136542 0.526824
vt 0.137144 0.531645
vt 0.121205 0.531552
vt 0.118530 0.458521
vt 0.108563 0.458972
vt 0.103824 0.393793
vt 0.015234 0.384041
vt 0.015234 0.341748
vt 0.000000 0.328808
vt 0.000000 0.310364
vt 0.018442 0.310472
vt 0.031292 0.325782
vt 0.204398 0.326790
vt 0.217248 0.311630
vt 0.235690 0.311737
vt 0.235690 0.330181
vt 0.220456 0.342944
vt 0.220456 0.516070
vt 0.235690 0.529010
vt 0.899000 0.847797
vt 0.897982 0.847532
vt 0.912280 0.816662
vt 0.916676 0.818729
vt 0.898612 0.745133
vt 0.969951 0.746441
vt 0.969951 0.883505
vt 0.897229 0.876273
vt 0.898871 0.813615
vt 0.900411 0.754783
vt 0.898640 0.752493
vt 0.713533 0.981624
vt 0.723765 0.844942
vt 0.812772 0.837391
vt 0.805791 0.847514
vt 0.812772 0.930748
vt 0.719436 0.972511
vt 0.723510 0.981495
vt 0.787467 0.308585
vt 0.868735 0.362051
vt 0.783401 0.338503
vt 0.793148 0.323688
vt 0.745991 0.281848
vt 0.718886 0.280525
vt 0.715653 0.261924
vt 0.729475 0.250377
vt 0.745991 0.262688
vt 0.226854 0.882419
vt 0.133540 0.857021
vt 0.199378 0.782556
vt 0.250974 0.862029
vt 0.252643 0.928158
vt 0.241200 0.928412
vt 0.130543 0.928412
vt 0.337225 0.693387
vt 0.337381 0.635173
vt 0.433748 0.630705
vt 0.446662 0.804026
vt 0.319126 0.803685
vt 0.319422 0.693340
vt 0.896488 0.818819
vt 0.582121 0.366686
vt 0.660143 0.308585
vt 0.766169 0.308585
vt 0.783401 0.325816
vt 0.783401 0.511575
vt 0.766169 0.528806
vt 0.635509 0.528806
vt 0.640186 0.439602
vt 0.568922 0.436074
vt 0.893579 0.761163
vt 0.933236 0.803631
vt 0.306778 0.810250
vt 0.307063 0.703811
vt 0.446445 0.823976
vt 0.319073 0.823635
vt 0.372516 0.893835
vt 0.375950 0.914334
vt 0.368100 0.926439
vt 0.364484 0.905991
vt 0.422019 0.656546
vt 0.436541 0.642073
vt 0.447821 0.628781
vt 0.407706 0.572513
vt 0.390065 0.581037
vt 0.372076 0.590606
vt 0.447821 0.842440
vt 0.319024 0.842096
vt 0.627867 0.230748
vt 0.757560 0.230748
vt 0.757560 0.249137
vt 0.629263 0.249137
vt 0.383624 0.931552
vt 0.373597 0.944879
vt 0.383624 0.855768
vt 0.375950 0.872986
vt 0.368100 0.860881
vt 0.373598 0.842441
vt 0.628068 0.210875
vt 0.757560 0.210875
vt 0.372516 0.893485
vt 0.364484 0.881329
vt 0.757560 0.038262
vt 0.769842 0.031690
vt 0.769842 0.217448
vt 0.614970 0.038262
vt 0.306778 0.904526
vt 0.306778 0.882794
vt 0.312035 0.864459
vt 0.629249 0.893103
vt 0.640932 0.889389
vt 0.633939 0.946237
vt 0.614153 0.933732
vt 0.592896 0.899664
vt 0.621368 0.886742
vt 0.628078 0.888321
vt 0.633197 0.888104
vt 0.627946 0.882073
vt 0.627255 0.887402
vt 0.627053 0.874933
vt 0.130543 0.782556
vt 0.124497 0.795106
vt 0.001101 0.800344
vt 0.000000 0.788097
vt 0.580372 0.870802
vt 0.635461 0.880432
vt 0.658029 0.856978
vt 0.568922 0.838212
vt 0.658029 0.940917
vt 0.286636 0.842181
vt 0.286635 0.697470
vt 0.305025 0.697470
vt 0.305025 0.843601
vt 0.611429 0.000000
vt 0.757560 0.000000
vt 0.757560 0.018389
vt 0.612824 0.018389
vt 0.266763 0.840039
vt 0.266763 0.697470
vt 0.059696 0.861609
vt 0.006155 0.883717
vt 0.130543 0.937547
vt 0.088276 0.936083
vt 0.543416 0.732299
vt 0.555748 0.719967
vt 0.568079 0.732299
vt 0.566485 0.751078
vt 0.545010 0.751078
vt 0.312035 0.922861
vt 0.315220 0.941124
vt 0.315220 0.846196
s 0
usemtl (null)
f 38/1/1 36/2/1 34/3/1 32/4/1 2/5/1 1/6/1 4/7/1 5/8/1
f 18/9/2 20/10/2 7/11/2 6/12/2 4/13/2 1/14/2 3/15/2 22/16/2 16/17/2 15/18/2 17/19/2
f 33/20/3 35/21/3 37/22/3 5/23/3 4/24/3 6/25/3 8/26/3 9/27/3 11/28/3 12/29/3 71/30/3 69/31/3 68/32/3 65/33/3 64/34/3 66/35/3 67/36/3 47/37/3 40/38/3 39/39/3 29/40/3 28/41/3 30/42/3 31/43/3
f 7/44/4 10/45/4 8/46/4 6/47/4
f 15/48/5 13/49/5 11/50/5 9/51/5 10/45/5 7/44/5 20/52/5 19/53/5 17/54/5
f 11/55/6 13/56/6 14/57/6 75/58/6 74/59/6 73/60/6 12/61/6
f 21/62/7 16/63/7 22/16/7 23/64/7 24/65/7
f 3/15/8 23/64/8 22/16/8
f 55/66/9 51/67/9 61/68/9 60/69/9 59/70/9
f 72/71/10 70/72/10 69/73/10 71/74/10
f 12/75/11 73/76/11 72/71/11 71/74/11
f 74/77/12 70/72/12 72/71/12 73/76/12
s 1
f 23/78/13 3/79/13 1/6/13 2/5/13 30/80/13 28/81/13 25/82/14 24/83/15
f 8/46/16 10/45/16 9/84/16
f 16/85/8 21/86/8 27/87/8 48/88/8 50/89/8 53/90/8 14/91/8 13/92/8 15/93/8
f 18/94/17 17/54/18 19/53/19
f 18/94/17 19/53/19 20/95/16
f 24/83/15 25/82/14 27/96/20 21/97/20
f 29/98/21 26/99/22 25/82/21 28/81/21
f 25/100/21 26/101/22 80/102/21 27/103/22
f 30/104/23 2/5/23 32/4/23 31/105/23
f 32/4/13 34/3/13 33/106/13 31/105/13
f 33/107/16 34/3/16 36/2/16 35/108/16
f 35/108/24 36/2/24 38/1/24 37/109/24
f 38/1/16 5/8/16 37/109/16
f 39/110/13 41/111/25 26/99/26 29/98/13
f 40/112/27 43/113/28 41/114/29 39/115/27
f 26/101/26 41/116/25 42/117/30 80/102/30
f 41/118/29 43/119/28 44/120/31 42/121/31
f 47/122/32 45/123/32 43/113/33 40/112/32
f 43/119/33 45/124/32 48/125/33 44/120/33
f 45/123/34 46/126/34 50/127/35 48/128/35
f 67/129/27 46/126/34 45/123/34 47/122/27
f 48/125/36 27/103/36 77/130/36 49/131/36
f 44/120/33 48/125/33 49/131/32 76/132/32
f 50/133/37 52/134/37 61/135/37 51/136/37
f 55/137/38 53/138/38 50/133/38 51/136/38
f 46/139/37 63/140/37 52/134/37 50/133/37
f 57/141/39 54/142/39 53/138/39 56/143/40
f 53/144/41 54/145/42 75/146/43 14/147/41
f 59/148/40 56/143/40 53/138/39 55/137/40
f 62/149/44 57/141/45 56/143/46 58/150/46
f 60/151/47 58/150/47 56/143/47 59/148/47
f 52/134/48 58/150/48 60/152/48 61/135/48
f 63/140/28 62/149/29 58/150/31 52/134/31
f 65/153/49 57/154/45 62/155/44 64/156/49
f 64/157/27 62/158/29 63/159/28 66/160/27
f 66/160/37 63/159/37 46/126/37 67/129/37
f 68/161/39 54/162/39 57/154/39 65/153/39
f 70/163/49 74/164/49 75/146/43 54/145/42 68/165/49 69/166/49
f 78/167/8 79/168/8 76/169/8 49/170/8 77/171/8
f 27/103/22 80/102/21 78/172/21 77/130/21
f 80/102/50 42/117/50 79/173/50 78/172/50
f 42/121/48 44/120/48 76/132/48 79/174/48
