# Blender 4.0.2
# www.blender.org
mtllib Debris11.mtl
o Debris11
v -135.701538 48.757652 -22.048212
v -135.138733 48.342903 -23.151457
v -135.276855 48.918377 -21.891991
v -135.826385 49.375038 -22.343996
v -135.360641 49.019379 -23.244184
v -135.201859 49.497616 -22.071486
v -135.715546 49.985714 -20.842119
v -136.064117 47.293663 -20.007904
v -137.080215 49.717869 -21.437586
v -136.544800 47.070190 -20.169098
v -137.635284 50.141739 -20.364740
v -136.654144 47.150768 -19.954767
v -139.176208 49.850845 -21.008625
v -139.481506 49.908401 -20.851894
v -139.176208 46.930004 -21.008625
v -136.425873 46.930004 -19.859383
v -139.219635 46.866314 -20.986328
v -136.353287 46.614521 -19.628752
v -139.481506 46.863346 -20.851894
v -139.774506 46.887444 -20.974329
v -139.652069 46.911957 -21.267334
v -139.774506 49.853088 -20.974329
v -139.652069 49.736759 -21.267334
v -139.324722 49.701389 -21.370359
v -138.336884 48.762753 -23.734488
v -139.324722 46.930004 -21.370359
v -139.220505 46.930004 -21.619787
v -139.339890 46.909267 -21.365591
v -138.556976 47.062866 -23.207724
v -137.551758 46.967262 -22.658987
v -137.110825 47.081810 -23.975504
v -137.930939 48.842426 -23.557364
v -137.730286 48.689190 -23.945208
v -136.333344 48.835751 -23.650629
v -137.604797 48.331905 -23.918749
v -136.965012 47.848392 -23.783834
v -137.509430 48.296974 -24.142067
v -136.939682 47.848392 -23.903992
v -136.333344 48.721397 -23.650629
v -135.599121 46.957489 -23.343834
v -135.063400 47.088978 -23.119984
v -134.668457 46.868977 -22.835802
v -134.587540 47.046543 -22.861271
v -134.871552 46.870728 -22.771885
v -134.914886 46.930004 -22.758245
v -135.953857 46.614964 -19.793106
v -135.907394 46.603996 -19.702604
v -136.064117 46.930004 -20.007904
v -136.029831 46.579483 -19.409595
v -135.907394 47.422581 -19.702604
v -136.029831 47.538200 -19.409595
v -136.054245 47.255848 -19.988644
v -136.322830 47.420292 -19.532030
v -136.425873 47.242626 -19.859383
v -136.322830 46.603577 -19.532030
v -134.914886 48.576557 -22.758245
v -134.587540 48.593391 -22.861271
v -134.465103 48.477776 -23.154278
v -134.465103 47.992088 -23.154278
v -134.758102 48.359867 -23.276712
v -134.758102 47.920166 -23.276712
v -135.063400 48.373219 -23.119984
vn 0.8844 0.3347 0.3253
vn -0.1794 0.8872 -0.4251
vn 0.4309 -0.3175 -0.8447
vn -0.0180 0.9267 -0.3755
vn -0.4309 0.3175 0.8447
vn -0.0400 -0.9942 -0.0999
vn -0.8844 -0.3347 -0.3253
vn 0.2063 -0.0000 -0.9785
vn 0.5818 0.8040 0.1227
vn -0.7867 0.5946 -0.1658
vn 0.9227 -0.0000 0.3855
vn -0.3855 -0.0000 0.9227
vn 0.4567 -0.0000 0.8896
vn -0.3327 0.5055 0.7961
vn -0.3856 -0.0000 0.9227
vn -0.9227 -0.0000 -0.3856
vn -0.3002 -0.0000 -0.9539
vn -0.9227 -0.0000 -0.3855
vn -0.7958 0.5062 -0.3324
vn 0.3855 -0.0000 -0.9227
vn 0.3002 -0.0000 0.9539
vn 0.7961 0.5055 0.3327
vn 0.8896 -0.0000 -0.4567
vn -0.9539 -0.0000 0.3002
vn 0.9227 -0.0000 0.3856
vn 0.3856 -0.0000 -0.9227
vn -0.4567 -0.0000 -0.8896
vt 0.738736 0.967806
vt 0.697806 0.967806
vt 0.697806 0.890983
vt 0.737767 0.904635
vt 0.972163 0.394332
vt 0.956774 0.381231
vt 0.958288 0.361411
vt 0.978194 0.360552
vt 0.990813 0.376326
vt 0.995931 0.376105
vt 0.995931 0.452928
vt 0.967687 0.452928
vt 0.995931 0.493858
vt 0.955816 0.486851
vt 0.304538 0.602632
vt 0.304538 0.582740
vt 0.323465 0.581621
vt 0.336652 0.597273
vt 0.436187 0.591387
vt 0.442059 0.666454
vt 0.530788 0.659749
vt 0.530788 0.743211
vt 0.490181 0.746279
vt 0.495108 0.809265
vt 0.432278 0.812980
vt 0.348688 0.801211
vt 0.346565 0.774074
vt 0.320172 0.776068
vt 0.320173 0.615568
vt 0.699686 0.346627
vt 0.731493 0.353891
vt 0.730789 0.356355
vt 0.749473 0.522341
vt 0.660609 0.517753
vt 0.586954 0.502118
vt 0.685135 0.343305
vt 0.223944 0.803865
vt 0.205210 0.803974
vt 0.192761 0.789290
vt 0.176209 0.788670
vt 0.074684 0.789261
vt 0.081689 0.722029
vt 0.000000 0.728447
vt 0.000000 0.631804
vt 0.006486 0.569559
vt 0.014584 0.579112
vt 0.201340 0.569185
vt 0.205210 0.564576
vt 0.223944 0.564467
vt 0.223943 0.583199
vt 0.219371 0.587082
vt 0.210670 0.774015
vt 0.223944 0.785133
vt 0.765662 0.000000
vt 0.744379 0.064158
vt 0.641186 0.042345
vt 0.642368 0.015903
vt 0.262632 0.936931
vt 0.248467 0.939685
vt 0.223944 0.867902
vt 0.298388 0.833663
vt 0.298388 0.957979
vt 0.271171 0.957562
vt 0.639495 0.976236
vt 0.592292 0.933219
vt 0.624510 0.897866
vt 0.646186 0.892508
vt 0.646186 0.976923
vt 0.586954 0.928354
vt 0.611828 0.890983
vt 0.587427 0.938558
vt 0.713704 0.285313
vt 0.720942 0.232918
vt 0.739104 0.226840
vt 0.745660 0.285141
vt 0.743081 0.296425
vt 0.680499 0.296425
vt 0.767303 0.503558
vt 0.750332 0.488437
vt 0.749473 0.468532
vt 0.769293 0.470046
vt 0.782897 0.486440
vt 0.782897 0.519066
vt 0.767972 0.519066
vt 0.709101 0.711250
vt 0.762280 0.869593
vt 0.762280 0.890983
vt 0.586954 0.890983
vt 0.586954 0.794135
vt 0.642175 0.774030
vt 0.630733 0.739960
vt 0.762280 0.539451
vt 0.762280 0.711250
vt 0.586954 0.711250
vt 0.586954 0.692862
vt 0.601506 0.698265
vt 0.664051 0.522341
vt 0.971270 0.522341
vt 0.988584 0.522515
vt 0.991455 0.526261
vt 0.991455 0.698061
vt 0.971270 0.701447
vt 0.978628 0.892391
vt 0.994708 0.717806
vt 0.999202 0.716361
vt 0.999202 0.903494
vt 0.952592 0.698193
vt 0.952592 0.523758
vt 0.976002 0.187559
vt 0.994680 0.186117
vt 0.994680 0.360552
vt 0.976002 0.353709
vt 0.955816 0.188620
vt 0.956751 0.187400
vt 0.955816 0.351629
vt 0.763827 0.163805
vt 0.765662 0.179599
vt 0.603743 0.198416
vt 0.245658 0.326433
vt 0.247015 0.310591
vt 0.247015 0.327154
vt 0.098515 0.803974
vt 0.066289 0.835228
vt 0.110243 0.882119
vt 0.116870 0.883273
vt 0.116870 0.946213
vt 0.075243 0.953322
vt 0.076176 0.958358
vt 0.001759 0.945396
vt 0.000000 0.910425
vt 0.023741 0.816743
vt 0.855253 0.256080
vt 0.855253 0.159232
vt 0.857925 0.155745
vt 0.870448 0.155642
vt 0.875439 0.166087
vt 0.875439 0.257070
vt 0.491689 1.000000
vt 0.487505 0.998661
vt 0.471160 0.824099
vt 0.491689 0.812980
vt 0.745759 0.313590
vt 0.749473 0.318326
vt 0.746110 0.341429
vt 0.711272 0.347188
vt 0.693367 0.338554
vt 0.733758 0.299205
vt 0.884375 0.936548
vt 0.884375 0.992939
vt 0.865697 0.986003
vt 0.865697 0.937965
vt 0.845511 0.975553
vt 0.845511 0.957165
vt 0.859733 0.938609
vt 0.764339 0.198416
vt 0.764339 0.289400
vt 0.745660 0.233784
vt 0.745660 0.205217
vt 0.718355 0.207186
vt 0.736246 0.198416
vt 0.738736 0.939872
vt 0.758921 0.890983
vt 0.758921 0.966520
vt 0.738736 0.965734
s 0
usemtl (null)
f 4/1/1 1/2/1 2/3/1 5/4/1
f 56/5/2 57/6/2 58/7/2 60/8/2 62/9/2 2/10/2 1/11/2 3/12/2
f 3/12/3 1/11/3 4/13/3 6/14/3
f 23/15/4 22/16/4 14/17/4 13/18/4 11/19/4 9/20/4 7/21/4 6/22/4 4/23/4 5/24/4 34/25/4 33/26/4 32/27/4 25/28/4 24/29/4
f 10/30/5 52/31/5 8/32/5 7/33/5 9/34/5
f 11/35/1 12/36/1 10/30/1 9/34/1
f 20/37/6 21/38/6 28/39/6 27/40/6 29/41/6 30/42/6 31/43/6 40/44/6 42/45/6 44/46/6 46/47/6 47/48/6 49/49/6 55/50/6 18/51/6 17/52/6 19/53/6
f 30/54/3 29/55/3 25/56/3 32/57/3
f 35/58/7 37/59/7 31/60/7 30/61/7 32/62/7 33/63/7
f 39/64/8 36/65/8 35/66/8 33/67/8 34/68/8
f 35/66/9 36/65/9 38/69/9 37/70/9
f 39/64/10 38/71/10 36/65/10
f 41/72/3 61/73/3 59/74/3 43/75/3 42/76/3 40/77/3
f 54/78/2 53/79/2 51/80/2 50/81/2 52/82/2 10/83/2 12/84/2
s 1
f 7/85/11 8/86/11 48/87/11 45/88/11 56/89/11 3/90/11 6/91/11
f 13/92/12 15/93/12 16/94/12 54/95/12 12/96/12 11/97/12
f 19/98/13 17/99/13 15/100/13 13/101/13 14/102/13
f 16/103/14 15/104/14 17/105/14 18/106/14
f 22/107/15 20/108/15 19/98/15 14/102/15
f 21/109/16 20/110/16 22/111/16 23/112/16
f 26/113/17 28/114/17 21/109/17 23/112/17 24/115/17
f 29/55/18 27/116/18 26/117/18 24/118/18 25/56/18
f 26/119/19 27/120/19 28/121/19
f 37/122/20 38/123/20 39/124/20 34/125/20 5/126/20 2/127/20 62/128/20 41/129/20 40/130/20 31/131/20
f 56/132/21 45/133/21 44/134/21 42/135/21 43/136/21 57/137/21
f 44/138/22 45/139/22 48/140/22 46/141/22
f 47/142/23 46/143/23 48/144/23 8/32/23 52/31/23 50/145/23
f 47/142/11 50/145/11 51/146/11 49/147/11
f 49/148/15 51/149/15 53/150/15 55/151/15
f 53/150/24 54/152/24 16/153/24 18/154/24 55/151/24
f 57/155/25 43/156/25 59/157/25 58/158/25
f 59/74/26 61/73/26 60/159/26 58/160/26
f 61/161/27 41/162/27 62/163/27 60/164/27
