# Blender 4.0.2
# www.blender.org
mtllib Debris13.mtl
o Debris13
v -2.315918 -2.269474 0.465659
v -2.125931 -2.725746 0.447625
v -2.206589 -1.720478 0.439644
v -1.663239 -2.018623 0.995125
v -2.009857 -2.124397 0.019617
v -1.816666 -2.579155 -0.003079
v -1.913452 -1.581532 0.012458
v -2.194138 -0.920841 0.045432
v -2.050552 -0.401894 0.033202
v -2.318634 -0.979847 0.226849
v -2.182434 -0.464405 0.225397
v -3.829681 2.649048 0.370272
v -3.557175 2.837112 0.355882
v -4.033005 2.665783 0.612997
v -3.874634 2.907570 0.800318
v -2.259308 -0.971756 0.646998
v -3.596313 3.062218 0.730334
v -3.430298 3.315681 0.926702
v -2.130783 -0.457359 0.591235
v -1.923401 -0.377651 0.759468
v -1.945801 -0.851265 0.901308
v -1.674591 -1.516006 0.871207
v -2.390717 3.503788 0.089966
v -3.421799 2.825970 0.194290
v -0.168015 -1.885990 -0.172002
v -1.476562 -2.476170 0.974407
v -0.153336 -2.064408 -2.764934
v -0.153336 -2.558983 -2.764934
v -0.119095 -1.600872 -2.451897
v 1.374954 -2.064407 -1.537977
v -2.222076 -2.064407 -0.188106
v -1.923874 -1.600872 -0.203881
v -2.218414 -2.558983 -0.192672
v -0.240295 -2.558983 -0.324162
v 1.371490 -2.558983 -1.540760
v -0.222122 3.168430 -0.275328
v 1.022110 2.866039 -1.217799
v -1.621475 2.908810 -0.184580
v -0.244568 2.158310 -1.899645
v -1.596512 -0.459179 -0.215664
v -1.929199 -0.882328 -0.197248
v -0.244568 -0.459179 -1.899645
v -0.306961 -0.882328 -2.217891
v -0.306961 1.947311 -2.217890
v -0.119095 1.844909 -2.451897
v 0.114914 2.013962 -2.264028
v 0.122772 2.216339 -1.939819
v 0.114914 -0.882328 -2.264028
v 0.122772 -0.459179 -1.939819
v 1.199921 -0.882328 -1.392949
v 1.194885 -1.600872 -1.396992
v 0.998795 -0.459179 -1.236519
v 0.538864 -2.002498 3.367944
v 3.218674 -2.002499 0.030000
v 0.538864 -2.497070 3.367944
v 0.504639 -1.538959 3.054909
v -1.868698 -2.002499 1.435087
v -1.682114 -1.538959 1.299321
v -1.872147 -2.497070 1.432303
v -0.094650 -2.497070 0.090625
v -0.075806 3.442204 0.141266
v 3.035065 -2.497070 -0.117410
v 3.040024 -2.002499 -0.113419
v 3.218674 -2.497070 0.030000
v 2.716202 -1.538960 -0.087845
v 2.905640 -1.538960 0.064237
v 2.721878 -0.974701 -0.083291
v 2.771576 3.970474 -0.043390
v 2.905640 4.067322 0.064237
v 2.717773 4.169724 0.298246
v 2.717773 -0.820419 0.298246
v 2.393555 4.101429 0.306110
v 0.630096 5.062622 2.502657
v 2.393555 -0.397263 0.306110
v 0.630096 -0.397262 2.502658
v 0.692505 -0.820419 2.820901
v 0.692505 5.273617 2.820899
v 0.504639 5.376019 3.054909
v 0.270615 5.206966 2.867040
v 0.262772 5.004589 2.542831
v 0.270615 -0.820419 2.867040
v 0.262772 -0.397262 2.542832
v -1.677078 -0.820419 1.303366
v -1.470016 -0.397262 1.151703
v -1.440765 3.773937 1.175185
v 2.537140 -2.497071 -1.842678
v 2.540604 -2.002499 -1.839892
v 1.236588 -2.497070 -0.861002
v 3.566956 -2.497070 -1.015907
v 3.571930 -2.002499 -1.011916
v 3.248108 -1.538960 -0.986341
v 2.360535 -1.538960 -1.698911
v 3.255310 -0.820419 -0.980544
v 2.365570 -0.820419 -1.694863
v 2.893875 -0.397263 -0.952820
v 2.934525 3.645454 -0.920197
v 2.164459 -0.397263 -1.538435
v 2.189026 3.106895 -1.518707
v 1.255081 3.333874 -0.811287
vn -0.5465 -0.2590 0.7964
vn -0.7442 -0.2860 -0.6037
vn -0.8371 0.1417 -0.5283
vn -0.6589 0.1660 0.7336
vn -0.1042 0.0054 -0.9945
vn -0.7441 -0.2860 -0.6037
vn -0.8363 0.2195 -0.5025
vn -0.7442 -0.2860 -0.6036
vn -0.0621 0.0136 -0.9980
vn -0.5152 0.7097 -0.4805
vn 0.2165 0.0516 0.9749
vn -0.6657 0.2428 0.7056
vn 0.5907 0.2057 0.7802
vn 0.3841 -0.9226 -0.0365
vn 0.6260 -0.0000 -0.7798
vn -0.7798 -0.0000 -0.6260
vn 0.5643 0.4330 -0.7029
vn -0.7029 0.4330 -0.5643
vn 0.0663 -0.0087 0.9978
vn -0.0000 -1.0000 -0.0000
vn 0.6024 -0.0087 0.7981
vn -0.1885 0.8351 -0.5167
vn -0.6728 0.5055 -0.5402
vn -0.9813 -0.0000 0.1924
vn 0.9997 -0.0000 -0.0242
vn 0.5402 0.5055 -0.6728
vn 0.7798 -0.0000 0.6260
vn 0.7029 0.4330 0.5643
vn -0.6260 -0.0000 0.7798
vn -0.5643 0.4330 0.7029
vn -0.6024 0.0087 -0.7981
vn -0.0663 0.0087 -0.9978
vn 0.0242 -0.0000 0.9997
vn 0.6728 0.5055 0.5402
vn 0.9813 -0.0000 -0.1924
vn -0.9997 -0.0000 0.0242
vn -0.5402 0.5055 0.6728
vn -0.1885 0.8351 -0.5168
vt 0.768866 0.789602
vt 0.679684 0.783861
vt 0.682922 0.733573
vt 0.771651 0.739285
vt 0.963522 0.324888
vt 0.906888 0.335731
vt 0.897412 0.286237
vt 0.953460 0.275506
vt 0.909843 0.230509
vt 0.963522 0.220232
vt 0.771651 0.842287
vt 0.698960 0.837607
vt 0.370750 0.594632
vt 0.187714 0.595109
vt 0.187180 0.544715
vt 0.217482 0.497405
vt 0.216705 0.424191
vt 0.250540 0.380986
vt 0.246745 0.023293
vt 0.370750 0.000000
vt 0.926107 0.152852
vt 0.948904 0.148488
vt 0.897412 0.000000
vt 0.878699 0.050997
vt 0.854142 0.052259
vt 0.874232 0.001191
vt 0.776348 0.073213
vt 0.806924 0.000000
vt 0.806924 0.484437
vt 0.776347 0.474003
vt 0.743304 0.116328
vt 0.743304 0.480961
vt 0.415539 0.959810
vt 0.391232 0.934496
vt 0.396231 0.901659
vt 0.370750 0.875123
vt 0.458198 0.769255
vt 0.458198 0.895428
vt 0.440519 0.907678
vt 0.442094 0.941409
vt 0.743304 0.505045
vt 0.712727 0.431832
vt 0.712728 0.003383
vt 0.743304 0.020608
vt 0.679684 0.388717
vt 0.679684 0.000000
vt 0.835286 0.407849
vt 0.806924 0.406471
vt 0.823003 0.000000
vt 0.854142 0.019590
vt 0.854142 0.458792
vt 0.811269 0.456710
vt 0.163400 0.449906
vt 0.163562 0.523121
vt 0.187069 0.570353
vt 0.187180 0.620747
vt 0.000000 0.620747
vt 0.001547 0.026117
vt 0.136355 0.000000
vt 0.137252 0.406788
vt 0.767605 0.915390
vt 0.724770 0.912633
vt 0.287519 0.595109
vt 0.287519 0.782289
vt 0.201321 0.804093
vt 0.187180 0.748191
vt 0.897412 0.415150
vt 0.876727 0.409258
vt 1.000000 0.335957
vt 1.000000 0.435381
vt 0.974853 0.435381
vt 0.974853 0.335731
vt 0.922559 0.335731
vt 0.922559 0.503750
vt 0.897412 0.503750
vt 0.897412 0.336028
vt 0.948706 0.424059
vt 0.948706 0.338382
vt 0.948706 0.345849
vt 0.948706 0.492428
vt 0.385483 0.563058
vt 0.385871 0.526523
vt 0.370750 0.502914
vt 0.371016 0.477767
vt 0.471816 0.478029
vt 0.471816 0.769255
vt 0.400551 0.755868
vt 0.402367 0.584619
vt 0.652190 0.745356
vt 0.652190 0.913078
vt 0.552765 0.913078
vt 0.577945 0.813535
vt 0.655563 0.745089
vt 0.552886 0.745356
vt 0.552765 0.720208
vt 0.564330 0.696608
vt 0.564154 0.660073
vt 0.577052 0.638523
vt 0.576239 0.469445
vt 0.655563 0.453863
vt 0.989553 0.000000
vt 0.991292 0.016028
vt 0.978550 0.031016
vt 0.991292 0.148488
vt 0.927584 0.113857
vt 0.897412 0.038859
vt 0.962329 0.021087
vt 0.972662 0.004624
vt 0.902506 0.869207
vt 0.792704 0.869207
vt 0.790677 0.697960
vt 0.902506 0.736120
vt 0.508351 0.924916
vt 0.508351 0.793162
vt 0.533287 0.804482
vt 0.533287 0.914284
vt 0.950743 0.852563
vt 0.934254 0.831047
vt 0.934254 0.697960
vt 0.950743 0.708688
vt 0.471816 0.940174
vt 0.471816 0.793594
vt 0.966001 0.889098
vt 0.966001 0.713895
vt 0.917764 0.708250
vt 0.917764 0.855514
vt 0.902506 0.892049
vt 0.902506 0.716846
vt 0.934254 0.833998
vt 0.927442 0.962796
vt 0.902506 0.952164
vt 0.902506 0.895043
vt 0.927442 0.892049
vt 0.963976 0.978054
vt 0.963976 0.892377
vt 0.166177 0.789827
vt 0.109059 0.790340
vt 0.107836 0.654308
vt 0.166177 0.620747
vt 0.305689 0.967937
vt 0.305689 0.816691
vt 0.323164 0.816691
vt 0.323164 0.967937
vt 0.287519 0.960070
vt 0.287519 0.824559
vt 0.999166 0.148488
vt 0.999166 0.257734
vt 0.981692 0.257734
vt 0.981692 0.148645
vt 0.963522 0.249866
vt 0.963522 0.150783
vt 0.287557 0.799216
vt 0.295709 0.782837
vt 0.295765 0.757448
vt 0.304833 0.742496
vt 0.305157 0.595109
vt 0.365660 0.606830
vt 0.366206 0.816691
vt 0.287519 0.816691
vt 0.279199 0.804093
vt 0.287519 0.804093
vt 0.287519 0.955338
vt 0.178273 0.955338
vt 0.197569 0.879054
vt 0.779200 0.699718
vt 0.790677 0.716097
vt 0.790511 0.733573
vt 0.679684 0.733573
vt 0.680230 0.523711
vt 0.781048 0.505045
vt 0.779390 0.679780
vt 0.183074 0.753889
vt 0.175182 0.752089
vt 0.179069 0.735052
vt 0.187180 0.736902
vt 0.178812 0.771553
vt 0.187180 0.773462
vt 0.182495 0.792843
vt 0.790677 0.733573
vt 0.790677 0.931659
vt 0.782350 0.911722
vt 0.784602 0.736995
vt 0.000000 0.943451
vt 0.002790 0.932601
vt 0.014743 0.925968
vt 0.040929 0.824118
vt 0.032862 0.815629
vt 0.035652 0.804778
vt 0.042594 0.805422
vt 0.109676 0.882963
vt 0.111081 0.944575
vt 0.022866 0.936395
vt 0.012118 0.944575
vt 0.977460 0.899666
vt 0.977460 0.723349
vt 0.988063 0.697960
vt 0.988063 0.896048
vt 0.966002 0.897253
vt 0.966001 0.738300
vt 0.890205 0.505045
vt 0.890205 0.697960
vt 0.790677 0.539007
vt 0.187180 0.735052
vt 0.169852 0.727663
vt 0.169852 0.628136
vt 0.667022 0.701809
vt 0.667022 0.917132
vt 0.655563 0.902181
vt 0.655563 0.709264
vt 0.677625 0.698191
vt 0.677625 0.942520
vt 0.994107 0.505045
vt 0.994107 0.640556
vt 0.968719 0.629952
vt 0.968719 0.515648
vt 0.667022 0.479252
vt 0.677625 0.453863
vt 0.667022 0.692217
vt 0.655563 0.494203
vt 0.655563 0.685067
vt 0.854142 0.496015
vt 0.854142 0.417500
vt 0.871470 0.415150
vt 0.871470 0.503403
vt 0.966001 0.988147
vt 0.966002 0.899894
vt 0.991390 0.899666
vt 0.991390 0.998750
vt 0.968719 0.695910
vt 0.890205 0.695910
vt 0.967394 0.548528
vt 0.000000 0.766926
vt 0.100821 0.747288
vt 0.107836 0.785111
vt 0.006868 0.804778
vt 0.589916 0.163420
vt 0.570187 0.130456
vt 0.570456 0.074568
vt 0.552765 0.038468
vt 0.552950 0.000000
vt 0.679684 0.000330
vt 0.679684 0.453863
vt 0.588606 0.435972
vt 0.107836 0.620747
vt 0.552765 0.477767
vt 0.371115 0.477767
vt 0.370750 0.439299
vt 0.396012 0.403245
vt 0.395482 0.347356
vt 0.423674 0.314443
vt 0.420689 0.000000
vt 0.551585 0.024235
vt 0.363160 0.816691
vt 0.363160 0.919557
vt 0.323164 0.923614
vt 0.323164 0.835086
vt 0.791397 0.869207
vt 0.879925 0.869207
vt 0.879422 0.925094
vt 0.790677 0.925094
vt 0.884003 0.963237
vt 0.811248 0.963237
vt 0.545627 0.792224
vt 0.472878 0.793162
vt 0.471816 0.520609
vt 0.545627 0.477767
vt 0.119161 0.875655
vt 0.178273 0.804093
vt 0.178273 0.937213
s 0
usemtl (null)
f 4/1/1 1/2/1 2/3/1 26/4/1
f 6/5/2 2/6/2 1/7/2 5/8/2
f 3/9/3 7/10/3 5/8/3 1/7/3
f 22/11/4 3/12/4 1/2/4 4/1/4
f 25/13/5 6/14/5 5/15/5 7/16/5 8/17/5 9/18/5 24/19/5 23/20/5
f 10/21/6 8/22/6 7/10/6 3/9/6
f 10/23/7 11/24/7 9/25/7 8/26/7
f 10/27/8 3/28/8 14/29/8 12/30/8
f 11/31/9 10/27/9 12/30/9 13/32/9
f 14/33/10 15/34/10 17/35/10 18/36/10 23/37/10 24/38/10 13/39/10 12/40/10
f 3/41/1 16/42/1 15/43/1 14/44/1
f 15/43/11 16/42/11 19/45/11 17/46/11
f 19/47/1 20/48/1 18/49/1 17/50/1
f 20/48/12 19/47/12 16/51/12 21/52/12
f 21/53/13 22/54/13 4/55/13 26/56/13 25/57/13 23/58/13 18/59/13 20/60/13
f 21/61/1 16/62/1 3/12/1 22/11/1
f 25/63/14 26/64/14 2/65/14 6/66/14
f 9/25/2 11/24/2 13/67/2 24/68/2
f 35/69/15 28/70/15 27/71/15 30/72/15
f 31/73/16 27/74/16 28/75/16 33/76/16
f 27/71/17 29/77/17 51/78/17 30/72/17
f 27/74/18 31/73/18 32/79/18 29/80/18
f 41/81/19 32/82/19 31/83/19 33/84/19 34/85/19 36/86/19 38/87/19 40/88/19
f 33/89/20 28/90/20 35/91/20 34/92/20
f 34/93/21 35/94/21 30/95/21 51/96/21 50/97/21 52/98/21 37/99/21 36/100/21
f 45/101/22 44/102/22 39/103/22 38/104/22 36/105/22 37/106/22 47/107/22 46/108/22
f 42/109/16 40/110/16 38/111/16 39/112/16
f 43/113/23 41/114/23 40/115/23 42/116/23
f 43/117/24 42/118/24 39/119/24 44/120/24
f 41/114/16 43/113/16 29/121/16 32/122/16
f 29/123/16 43/117/16 44/120/16 45/124/16
f 46/125/15 48/126/15 29/127/15 45/128/15
f 47/119/25 49/129/25 48/126/25 46/125/25
f 48/130/26 49/131/26 52/132/26 50/133/26
f 29/134/15 48/130/15 50/133/15 51/135/15
f 52/136/15 49/137/15 47/138/15 37/139/15
f 54/140/27 53/141/27 55/142/27 64/143/27
f 53/141/28 54/140/28 66/144/28 56/145/28
f 59/146/29 55/147/29 53/148/29 57/149/29
f 56/150/30 58/151/30 57/149/30 53/148/30
f 57/152/31 58/153/31 83/154/31 84/155/31 85/156/31 61/157/31 60/158/31 59/159/31
f 62/160/20 64/161/20 55/162/20 59/163/20 60/164/20
f 65/165/32 63/166/32 62/167/32 60/168/32 61/169/32 68/170/32 67/171/32
f 63/172/15 54/173/15 64/174/15 62/175/15
f 66/176/17 54/173/17 63/172/17 65/177/17
f 67/178/15 66/176/15 65/177/15
f 69/179/15 66/180/15 67/181/15 68/182/15
f 78/183/22 77/184/22 73/185/22 72/186/22 70/187/22 69/188/22 68/189/22 61/190/22 85/191/22 80/192/22 79/193/22
f 70/194/27 71/195/27 66/196/27 69/197/27
f 72/198/33 74/199/33 71/195/33 70/194/33
f 73/200/27 75/201/27 74/111/27 72/202/27
f 76/56/34 71/203/34 74/204/34 75/205/34
f 77/206/35 76/207/35 75/208/35 73/209/35
f 78/210/27 56/211/27 76/207/27 77/206/27
f 56/212/27 66/213/27 71/214/27 76/215/27
f 81/216/29 56/217/29 78/210/29 79/218/29
f 82/219/36 81/216/36 79/218/36 80/220/36
f 82/221/37 84/222/37 83/223/37 81/224/37
f 81/225/29 83/226/29 58/227/29 56/228/29
f 84/229/29 82/230/29 80/200/29 85/231/29
f 89/232/15 86/233/15 87/234/15 90/235/15
f 97/236/31 94/237/31 92/238/31 87/239/31 86/240/31 88/241/31 99/242/31 98/243/31
f 86/233/20 89/232/20 88/244/20
f 88/245/19 89/246/19 90/247/19 91/248/19 93/249/19 95/250/19 96/251/19 99/252/19
f 90/253/17 87/254/17 92/255/17 91/256/17
f 91/257/15 92/258/15 94/259/15 93/260/15
f 94/259/26 97/261/26 95/262/26 93/260/26
f 95/263/15 97/264/15 98/265/15 96/266/15
f 98/267/38 99/268/38 96/269/38
