# Blender 4.0.2
# www.blender.org
mtllib PlateBlock.mtl
o PlateBlock
v -208.600479 48.751564 18.895063
v -208.600479 46.383183 18.895063
v -220.929886 48.751564 18.511581
v -208.216995 48.751564 6.565651
v -208.216995 46.383183 6.565651
v -220.546402 48.751564 6.182169
v -220.546402 46.383183 6.182170
v -220.929886 46.383183 18.511581
vn 0.9995 -0.0000 0.0311
vn -0.0311 -0.0000 0.9995
vn -0.0000 1.0000 -0.0000
vn 0.0311 -0.0000 -0.9995
vn -0.9995 -0.0000 -0.0311
vn -0.0000 -1.0000 -0.0000
vt 0.383987 0.500000
vt 0.383987 1.000000
vt 0.287994 1.000000
vt 0.287994 0.500000
vt 0.095993 1.000000
vt 0.095993 0.500000
vt 0.191986 0.500000
vt 0.191986 1.000000
vt 0.000000 0.500000
vt 0.000000 0.000000
vt 0.500000 0.000000
vt 0.500000 0.500000
vt 0.000000 1.000000
vt 0.192001 1.000000
vt 1.000000 0.000000
vt 1.000000 0.500000
s 1
usemtl (null)
f 4/1/1 1/2/1 2/3/1 5/4/1
f 1/5/2 3/6/2 8/7/2 2/8/2
f 3/9/3 1/10/3 4/11/3 6/12/3
f 6/13/4 4/9/4 5/6/4 7/5/4
f 3/4/5 6/3/5 7/14/5 8/7/5
f 7/12/6 5/11/6 2/15/6 8/16/6
