ply
format ascii 1.0
comment Created by Blender 2.67 (sub 1) - www.blender.org, source file: 'RockSet.blend'
element vertex 76
property float x
property float y
property float z
property float nx
property float ny
property float nz
property float s
property float t
element face 80
property list uchar uint vertex_indices
end_header
0.069174 5.263616 -0.142253 -0.043001 -0.009430 -0.999023 0.573889 0.240299
0.671343 4.770559 -0.191396 0.087252 -0.120884 -0.988800 0.516462 0.364522
-0.173785 4.614599 -0.099095 -0.058901 -0.184027 -0.981140 0.452699 0.225238
1.090190 4.399102 -0.002919 0.549883 -0.605243 -0.575549 0.465378 0.444680
1.279461 5.194679 -0.044651 0.693106 0.088290 -0.715384 0.609159 0.444428
-0.689541 5.230159 -0.111245 -0.099521 -0.018494 -0.994842 0.536173 0.112488
-0.199298 5.884624 -0.144617 -0.005585 0.246956 -0.968993 0.668167 0.168770
0.674475 5.674144 -0.142428 0.170812 0.256142 -0.951415 0.668330 0.325220
1.090190 4.399102 -0.002919 0.549883 -0.605243 -0.575549 0.710921 0.444680
1.279461 5.194679 -0.044651 0.693106 0.088290 -0.715384 0.840293 0.457786
1.414292 4.734005 0.332384 0.918332 -0.363323 0.156865 0.729457 0.573059
-0.338466 4.154276 0.071696 -0.153996 -0.710685 -0.686422 0.320549 0.157507
0.392548 4.137600 -0.001716 0.120609 -0.719993 -0.683401 0.363086 0.280708
0.046976 3.968273 0.325561 0.021424 -0.997620 -0.065279 0.261443 0.223450
-1.343127 5.189939 0.001154 -0.670400 -0.010285 -0.741905 0.921714 0.135623
-1.016768 4.460812 -0.045142 -0.425520 -0.506424 -0.749962 0.998804 0.241134
-1.400237 4.743977 0.319336 -0.895077 -0.429334 0.120304 0.850727 0.255318
-0.382591 6.281212 0.060571 -0.067995 0.697684 -0.713126 0.606254 0.705944
-1.019324 5.925017 -0.052840 -0.433882 0.415326 -0.799493 0.664972 0.811772
-0.826259 6.331298 0.324712 -0.461135 0.887082 0.019990 0.514898 0.787042
1.097584 5.922116 0.138986 0.609424 0.569811 -0.551225 0.580523 0.444680
0.365119 6.174492 0.071209 0.195593 0.655751 -0.729179 0.600592 0.574443
0.796153 6.280297 0.462027 0.492050 0.865383 0.094668 0.455463 0.505049
1.090190 4.399102 -0.002919 0.549883 -0.605243 -0.575549 0.360860 0.408793
1.414292 4.734005 0.332384 0.918332 -0.363323 0.156865 0.235361 0.482851
0.779654 4.223022 0.322127 0.474166 -0.871059 0.128056 0.261281 0.357278
-0.729382 4.173204 0.304229 -0.463759 -0.885495 0.027650 0.234531 0.096367
-1.417954 5.635981 0.323488 -0.941465 0.335368 0.033784 0.782553 0.114937
-0.007556 6.475855 0.371280 0.035737 0.999146 0.019623 0.486373 0.646344
1.097584 5.922116 0.138986 0.609424 0.569811 -0.551225 0.954223 0.550516
0.796153 6.280297 0.462027 0.492050 0.865383 0.094668 1.000000 0.679753
1.314934 5.630082 0.429850 0.923887 0.353435 0.146550 0.875244 0.640980
0.407716 4.122146 0.639318 0.279153 -0.799890 0.531205 0.157199 0.297471
0.980635 4.592412 0.706552 0.515976 -0.453993 0.726371 0.114379 0.412447
0.248174 4.496936 0.940443 0.101382 -0.318766 0.942381 0.028193 0.289056
-0.943235 4.543860 0.603921 -0.541063 -0.529099 0.653645 0.104990 0.078468
-0.314859 4.110465 0.679175 -0.231361 -0.752647 0.616382 0.127821 0.174038
-0.607982 4.751051 0.905891 -0.280221 -0.193548 0.940214 0.000000 0.149564
-1.044186 5.951624 0.632079 -0.488174 0.462539 0.740074 0.201248 0.836679
-1.262932 5.205554 0.683360 -0.625263 -0.035096 0.779595 0.068385 0.842228
-0.547961 5.619448 0.815705 -0.142827 0.212622 0.966613 0.149939 0.726058
0.361647 6.262036 0.652379 0.078555 0.620228 0.780450 0.316811 0.612931
-0.345752 6.241398 0.628401 -0.128544 0.582263 0.802759 0.281414 0.731498
0.268039 5.788424 0.800315 -0.004303 0.264016 0.964476 0.218998 0.598307
1.226603 5.253808 0.699225 0.683493 0.001556 0.729942 0.794794 0.722890
0.980629 5.883790 0.763397 0.441694 0.394910 0.805536 0.903933 0.770326
0.801380 5.254996 0.894092 0.234382 0.030610 0.971648 0.795222 0.794662
0.392548 4.137600 -0.001716 0.120609 -0.719993 -0.683401 0.392370 0.337824
-0.338466 4.154276 0.071696 -0.153996 -0.710685 -0.686422 0.363086 0.211155
0.674475 5.674144 -0.142428 0.170812 0.256142 -0.951415 0.949610 0.445029
-1.016768 4.460812 -0.045142 -0.425520 -0.506424 -0.749962 0.390479 0.087507
-1.343127 5.189939 0.001154 -0.670400 -0.010285 -0.741905 0.499323 0.000000
-0.199298 5.884624 -0.144617 -0.005585 0.246956 -0.968993 0.692243 0.667166
-1.019324 5.925017 -0.052840 -0.433882 0.415326 -0.799493 0.638725 0.025445
0.674475 5.674144 -0.142428 0.170812 0.256142 -0.951415 0.692523 0.512429
-1.400237 4.743977 0.319336 -0.895077 -0.429334 0.120304 0.171273 0.000000
-0.729382 4.173204 0.304229 -0.463759 -0.885495 0.027650 0.914236 0.337575
-1.016768 4.460812 -0.045142 -0.425520 -0.506424 -0.749962 0.319367 0.048335
-0.826259 6.331298 0.324712 -0.461135 0.887082 0.019990 0.744625 0.000000
-1.044186 5.951624 0.632079 -0.488174 0.462539 0.740074 0.668330 0.108933
-1.019324 5.925017 -0.052840 -0.433882 0.415326 -0.799493 0.892225 0.008256
0.361647 6.262036 0.652379 0.078555 0.620228 0.780450 0.392637 0.582920
0.980635 4.592412 0.706552 0.515976 -0.453993 0.726371 0.692523 0.702948
-1.262932 5.205554 0.683360 -0.625263 -0.035096 0.779595 0.702041 0.236722
-0.943235 4.543860 0.603921 -0.541063 -0.529099 0.653645 0.784659 0.326554
-0.345752 6.241398 0.628401 -0.128544 0.582263 0.802759 0.407559 0.705829
-0.826259 6.331298 0.324712 -0.461135 0.887082 0.019990 0.312580 0.842193
0.980629 5.883790 0.763397 0.441694 0.394910 0.805536 0.363086 0.472086
0.248174 4.496936 0.940443 0.101382 -0.318766 0.942381 0.000000 0.543790
0.801380 5.254996 0.894092 0.234382 0.030610 0.971648 0.150817 0.482851
0.087413 5.203861 0.946436 -0.013764 0.116672 0.993042 0.099982 0.594397
0.801380 5.254996 0.894092 0.234382 0.030610 0.971648 0.000337 0.407321
1.226603 5.253808 0.699225 0.683493 0.001556 0.729942 0.073680 0.475780
-0.607982 4.751051 0.905891 -0.280221 -0.193548 0.940214 0.000894 0.697496
-0.607982 4.751051 0.905891 -0.280221 -0.193548 0.940214 0.679723 0.337033
0.980629 5.883790 0.763397 0.441694 0.394910 0.805536 0.274471 0.487100
3 0 1 2
3 3 1 4
3 0 2 5
3 0 5 6
3 0 6 7
3 8 9 10
3 11 12 13
3 14 15 16
3 17 18 19
3 20 21 22
3 23 24 25
3 11 13 26
3 14 16 27
3 17 19 28
3 29 30 31
3 32 33 34
3 35 36 37
3 38 39 40
3 41 42 43
3 44 45 46
3 2 47 48
3 2 1 47
3 1 3 47
3 9 49 29
3 4 1 7
3 1 0 7
3 5 50 51
3 5 2 50
3 2 48 50
3 52 18 17
3 6 5 53
3 5 51 53
3 54 21 20
3 54 52 21
3 52 17 21
3 10 31 44
3 10 9 31
3 9 29 31
3 13 25 32
3 13 12 25
3 12 23 25
3 55 26 35
3 16 15 56
3 57 11 26
3 58 27 59
3 58 60 27
3 60 14 27
3 22 28 61
3 22 21 28
3 21 17 28
3 25 33 32
3 25 24 33
3 10 44 62
3 26 36 35
3 26 13 36
3 13 32 36
3 27 63 59
3 27 16 63
3 16 64 63
3 28 65 61
3 28 19 65
3 66 38 42
3 31 45 44
3 31 30 45
3 22 61 67
3 68 69 70
3 34 33 71
3 33 72 71
3 73 68 70
3 37 36 34
3 36 32 34
3 40 73 70
3 40 39 73
3 63 64 74
3 43 40 70
3 43 42 40
3 42 38 40
3 69 43 70
3 69 75 43
3 75 41 43
